<svg width="213" height="132" viewBox="0 0 213 132" fill="none" xmlns="http://www.w3.org/2000/svg">
<g filter="url(#filter0_d_4493_146209)">
<rect x="8.33301" y="4.5" width="196" height="115" rx="2.34527" fill="white"/>
<path d="M25.5443 21.938C25.5443 21.835 25.5283 21.7433 25.4962 21.6632C25.4664 21.583 25.4126 21.5097 25.3347 21.4433C25.2569 21.3769 25.1469 21.3128 25.0049 21.2509C24.8652 21.1868 24.6866 21.1215 24.469 21.0551C24.2308 20.9818 24.0109 20.9005 23.8094 20.8112C23.6101 20.7196 23.4361 20.6142 23.2872 20.4951C23.1383 20.3737 23.0227 20.2352 22.9402 20.0794C22.8578 19.9214 22.8166 19.7393 22.8166 19.5332C22.8166 19.3294 22.8589 19.1439 22.9437 18.9767C23.0307 18.8095 23.1532 18.6652 23.3113 18.5438C23.4716 18.4201 23.6605 18.3251 23.8781 18.2587C24.0957 18.1899 24.3362 18.1556 24.5996 18.1556C24.9706 18.1556 25.2901 18.2243 25.558 18.3617C25.8283 18.4991 26.0356 18.6835 26.1799 18.9148C26.3264 19.1461 26.3997 19.4015 26.3997 19.6809H25.5443C25.5443 19.516 25.5088 19.3706 25.4378 19.2446C25.3691 19.1164 25.2637 19.0156 25.1217 18.9423C24.982 18.869 24.8045 18.8324 24.5892 18.8324C24.3854 18.8324 24.2159 18.8633 24.0808 18.9251C23.9457 18.987 23.8449 19.0706 23.7785 19.1759C23.7121 19.2813 23.6788 19.4004 23.6788 19.5332C23.6788 19.6271 23.7006 19.713 23.7441 19.7909C23.7876 19.8664 23.8541 19.9374 23.9434 20.0039C24.0327 20.068 24.1449 20.1287 24.2801 20.1859C24.4152 20.2432 24.5744 20.2982 24.7576 20.3508C25.0347 20.4333 25.2763 20.5249 25.4825 20.6257C25.6886 20.7242 25.8604 20.8364 25.9978 20.9624C26.1352 21.0883 26.2383 21.2315 26.307 21.3918C26.3757 21.5498 26.41 21.7296 26.41 21.9312C26.41 22.1419 26.3677 22.332 26.2829 22.5014C26.1982 22.6686 26.0768 22.8118 25.9188 22.9309C25.763 23.0477 25.5752 23.1381 25.3554 23.2023C25.1378 23.2641 24.895 23.295 24.627 23.295C24.3866 23.295 24.1495 23.263 23.9159 23.1988C23.6846 23.1347 23.4739 23.0374 23.2838 22.9068C23.0937 22.774 22.9425 22.6091 22.8303 22.4121C22.7181 22.2129 22.662 21.9804 22.662 21.7147H23.5243C23.5243 21.8773 23.5517 22.0159 23.6067 22.1304C23.664 22.2449 23.743 22.3388 23.8438 22.4121C23.9445 22.4831 24.0613 22.5358 24.1942 22.5701C24.3293 22.6045 24.4736 22.6217 24.627 22.6217C24.8286 22.6217 24.9969 22.593 25.132 22.5358C25.2695 22.4785 25.3725 22.3984 25.4412 22.2953C25.5099 22.1922 25.5443 22.0732 25.5443 21.938ZM28.1232 17.9495V23.2263H27.2918V17.9495H28.1232ZM30.0631 19.5092V23.2263H29.2317V19.5092H30.0631ZM29.1767 18.5335C29.1767 18.4075 29.2179 18.3033 29.3004 18.2209C29.3851 18.1361 29.5019 18.0938 29.6508 18.0938C29.7974 18.0938 29.9131 18.1361 29.9978 18.2209C30.0825 18.3033 30.1249 18.4075 30.1249 18.5335C30.1249 18.6572 30.0825 18.7602 29.9978 18.8427C29.9131 18.9251 29.7974 18.9664 29.6508 18.9664C29.5019 18.9664 29.3851 18.9251 29.3004 18.8427C29.2179 18.7602 29.1767 18.6572 29.1767 18.5335ZM33.384 22.4568V17.9495H34.2154V23.2263H33.463L33.384 22.4568ZM30.9654 21.409V21.3368C30.9654 21.0551 30.9987 20.7986 31.0651 20.5673C31.1315 20.3337 31.2277 20.1333 31.3537 19.9661C31.4796 19.7966 31.6331 19.6672 31.814 19.5779C31.9949 19.4863 32.1988 19.4404 32.4255 19.4404C32.65 19.4404 32.8469 19.484 33.0164 19.571C33.1859 19.658 33.3302 19.7829 33.4493 19.9455C33.5684 20.1058 33.6634 20.2982 33.7344 20.5226C33.8054 20.7448 33.8558 20.9921 33.8856 21.2647V21.4949C33.8558 21.7605 33.8054 22.0033 33.7344 22.2232C33.6634 22.443 33.5684 22.6331 33.4493 22.7935C33.3302 22.9538 33.1847 23.0774 33.013 23.1645C32.8435 23.2515 32.6454 23.295 32.4186 23.295C32.1942 23.295 31.9915 23.2481 31.8106 23.1542C31.6319 23.0603 31.4796 22.9286 31.3537 22.7591C31.2277 22.5896 31.1315 22.3904 31.0651 22.1613C30.9987 21.93 30.9654 21.6792 30.9654 21.409ZM31.7934 21.3368V21.409C31.7934 21.5784 31.8083 21.7365 31.838 21.8831C31.8701 22.0296 31.9194 22.159 31.9858 22.2713C32.0522 22.3812 32.1381 22.4682 32.2434 22.5324C32.3511 22.5942 32.4793 22.6251 32.6282 22.6251C32.816 22.6251 32.9706 22.5839 33.092 22.5014C33.2134 22.419 33.3084 22.3079 33.3771 22.1682C33.4481 22.0262 33.4962 21.8682 33.5214 21.6941V21.0723C33.5077 20.9372 33.4791 20.8112 33.4355 20.6944C33.3943 20.5776 33.3382 20.4757 33.2672 20.3886C33.1962 20.2993 33.108 20.2306 33.0027 20.1825C32.8996 20.1321 32.7771 20.1069 32.6351 20.1069C32.4839 20.1069 32.3557 20.139 32.2503 20.2031C32.1449 20.2672 32.0579 20.3554 31.9892 20.4677C31.9228 20.5799 31.8735 20.7104 31.8415 20.8593C31.8094 21.0082 31.7934 21.1673 31.7934 21.3368ZM36.8664 23.295C36.5916 23.295 36.3431 23.2504 36.1209 23.161C35.901 23.0694 35.7132 22.9423 35.5575 22.7797C35.404 22.6171 35.2861 22.4259 35.2036 22.206C35.1212 21.9861 35.08 21.7491 35.08 21.4949V21.3574C35.08 21.0666 35.1223 20.8032 35.2071 20.5673C35.2918 20.3314 35.4098 20.1298 35.5609 19.9626C35.7121 19.7932 35.8907 19.6638 36.0969 19.5744C36.303 19.4851 36.5263 19.4404 36.7668 19.4404C37.0325 19.4404 37.2649 19.4851 37.4642 19.5744C37.6634 19.6638 37.8283 19.7897 37.9589 19.9523C38.0917 20.1127 38.1902 20.3039 38.2543 20.5261C38.3207 20.7482 38.354 20.9933 38.354 21.2612V21.6151H35.4819V21.0208H37.5363V20.9555C37.5317 20.8066 37.502 20.6669 37.447 20.5364C37.3943 20.4058 37.313 20.3005 37.2031 20.2203C37.0931 20.1401 36.9466 20.1001 36.7633 20.1001C36.6259 20.1001 36.5034 20.1298 36.3957 20.1894C36.2904 20.2466 36.2022 20.3302 36.1312 20.4402C36.0602 20.5501 36.0053 20.6829 35.9663 20.8387C35.9297 20.9921 35.9113 21.165 35.9113 21.3574V21.4949C35.9113 21.6575 35.9331 21.8086 35.9766 21.9483C36.0224 22.0857 36.0888 22.206 36.1759 22.3091C36.2629 22.4121 36.3683 22.4934 36.4919 22.553C36.6156 22.6102 36.7565 22.6389 36.9145 22.6389C37.1138 22.6389 37.2913 22.5988 37.447 22.5186C37.6027 22.4385 37.7379 22.3251 37.8524 22.1785L38.2887 22.6011C38.2085 22.7179 38.1043 22.8301 37.9761 22.9377C37.8478 23.0431 37.6909 23.129 37.5054 23.1954C37.3222 23.2618 37.1092 23.295 36.8664 23.295ZM39.9778 20.2169V23.2263H39.1498V19.5092H39.94L39.9778 20.2169ZM41.1149 19.4851L41.108 20.2547C41.0577 20.2455 41.0027 20.2386 40.9431 20.234C40.8859 20.2295 40.8286 20.2272 40.7714 20.2272C40.6294 20.2272 40.5045 20.2478 40.3969 20.289C40.2893 20.3279 40.1988 20.3852 40.1255 20.4608C40.0545 20.5341 39.9995 20.6234 39.9606 20.7287C39.9217 20.8341 39.8988 20.952 39.8919 21.0826L39.7029 21.0963C39.7029 20.8627 39.7258 20.6463 39.7717 20.447C39.8175 20.2478 39.8862 20.0726 39.9778 19.9214C40.0717 19.7703 40.1885 19.6523 40.3282 19.5676C40.4702 19.4828 40.634 19.4404 40.8195 19.4404C40.8699 19.4404 40.9237 19.445 40.9809 19.4542C41.0405 19.4634 41.0851 19.4737 41.1149 19.4851Z" fill="black" fill-opacity="0.87"/>
<path d="M100.802 54.4486V55.7679H93.5875L93.5325 54.7716L97.8474 48.0106H99.1735L97.7375 50.4704L95.2571 54.4486H100.802ZM99.5514 48.0106V58.0146H97.8955V48.0106H99.5514ZM108.449 55.2869C108.449 55.9099 108.305 56.4343 108.016 56.8603C107.728 57.2863 107.334 57.6093 106.835 57.8291C106.34 58.0444 105.781 58.1521 105.158 58.1521C104.535 58.1521 103.974 58.0444 103.475 57.8291C102.975 57.6093 102.581 57.2863 102.293 56.8603C102.004 56.4343 101.86 55.9099 101.86 55.2869C101.86 54.8746 101.94 54.5013 102.101 54.1669C102.261 53.828 102.488 53.5371 102.781 53.2943C103.078 53.047 103.427 52.8569 103.825 52.7241C104.228 52.5912 104.668 52.5248 105.144 52.5248C105.776 52.5248 106.342 52.6416 106.841 52.8752C107.341 53.1088 107.732 53.4318 108.016 53.844C108.305 54.2563 108.449 54.7372 108.449 55.2869ZM106.786 55.2044C106.786 54.8701 106.718 54.5769 106.58 54.325C106.443 54.073 106.251 53.8784 106.003 53.7409C105.756 53.6035 105.47 53.5348 105.144 53.5348C104.815 53.5348 104.528 53.6035 104.285 53.7409C104.043 53.8784 103.853 54.073 103.715 54.325C103.582 54.5769 103.516 54.8701 103.516 55.2044C103.516 55.5434 103.582 55.8366 103.715 56.0839C103.848 56.3267 104.038 56.5122 104.285 56.6405C104.533 56.7687 104.824 56.8329 105.158 56.8329C105.492 56.8329 105.781 56.7687 106.024 56.6405C106.267 56.5122 106.454 56.3267 106.587 56.0839C106.72 55.8366 106.786 55.5434 106.786 55.2044ZM108.223 50.6422C108.223 51.1415 108.09 51.5858 107.824 51.9751C107.563 52.3645 107.201 52.6714 106.738 52.8958C106.276 53.1157 105.749 53.2256 105.158 53.2256C104.563 53.2256 104.031 53.1157 103.564 52.8958C103.101 52.6714 102.737 52.3645 102.472 51.9751C102.21 51.5858 102.08 51.1415 102.08 50.6422C102.08 50.0467 102.21 49.5451 102.472 49.1374C102.737 48.7252 103.101 48.4114 103.564 48.1961C104.027 47.9808 104.556 47.8732 105.151 47.8732C105.747 47.8732 106.276 47.9808 106.738 48.1961C107.201 48.4114 107.563 48.7252 107.824 49.1374C108.09 49.5451 108.223 50.0467 108.223 50.6422ZM106.567 50.6971C106.567 50.3994 106.507 50.1383 106.388 49.9139C106.273 49.6848 106.111 49.5062 105.9 49.3779C105.689 49.2497 105.44 49.1855 105.151 49.1855C104.863 49.1855 104.613 49.2474 104.402 49.3711C104.192 49.4947 104.029 49.6688 103.914 49.8932C103.8 50.1177 103.743 50.3857 103.743 50.6971C103.743 51.004 103.8 51.272 103.914 51.501C104.029 51.7255 104.192 51.9018 104.402 52.0301C104.618 52.1583 104.87 52.2225 105.158 52.2225C105.447 52.2225 105.696 52.1583 105.907 52.0301C106.118 51.9018 106.28 51.7255 106.395 51.501C106.509 51.272 106.567 51.004 106.567 50.6971ZM109.837 50.4635V49.9345C109.837 49.5543 109.92 49.2084 110.085 48.897C110.249 48.5855 110.49 48.3358 110.806 48.148C111.122 47.9602 111.502 47.8663 111.947 47.8663C112.405 47.8663 112.789 47.9602 113.101 48.148C113.417 48.3358 113.657 48.5855 113.822 48.897C113.987 49.2084 114.07 49.5543 114.07 49.9345V50.4635C114.07 50.8346 113.987 51.1758 113.822 51.4873C113.662 51.7988 113.424 52.0484 113.108 52.2362C112.796 52.424 112.414 52.5179 111.96 52.5179C111.511 52.5179 111.127 52.424 110.806 52.2362C110.49 52.0484 110.249 51.7988 110.085 51.4873C109.92 51.1758 109.837 50.8346 109.837 50.4635ZM110.985 49.9345V50.4635C110.985 50.6467 111.019 50.8208 111.088 50.9857C111.161 51.1506 111.271 51.2835 111.417 51.3842C111.564 51.485 111.745 51.5354 111.96 51.5354C112.18 51.5354 112.359 51.485 112.496 51.3842C112.638 51.2835 112.744 51.1506 112.812 50.9857C112.881 50.8208 112.915 50.6467 112.915 50.4635V49.9345C112.915 49.7467 112.879 49.5703 112.805 49.4054C112.737 49.2359 112.631 49.1008 112.489 49C112.347 48.8992 112.166 48.8489 111.947 48.8489C111.736 48.8489 111.557 48.8992 111.411 49C111.269 49.1008 111.161 49.2359 111.088 49.4054C111.019 49.5703 110.985 49.7467 110.985 49.9345ZM114.661 56.0977V55.5617C114.661 55.1861 114.743 54.8426 114.908 54.5311C115.077 54.2196 115.32 53.97 115.636 53.7822C115.952 53.5944 116.332 53.5005 116.777 53.5005C117.235 53.5005 117.62 53.5944 117.931 53.7822C118.247 53.97 118.485 54.2196 118.646 54.5311C118.811 54.8426 118.893 55.1861 118.893 55.5617V56.0977C118.893 56.4733 118.811 56.8168 118.646 57.1283C118.485 57.4398 118.249 57.6894 117.938 57.8772C117.626 58.065 117.246 58.1589 116.797 58.1589C116.344 58.1589 115.957 58.065 115.636 57.8772C115.32 57.6894 115.077 57.4398 114.908 57.1283C114.743 56.8168 114.661 56.4733 114.661 56.0977ZM115.815 55.5617V56.0977C115.815 56.2809 115.851 56.455 115.925 56.6199C116.003 56.7848 116.115 56.9199 116.261 57.0252C116.408 57.126 116.584 57.1764 116.791 57.1764C117.024 57.1764 117.212 57.126 117.354 57.0252C117.496 56.9199 117.597 56.787 117.656 56.6267C117.72 56.4618 117.752 56.2855 117.752 56.0977V55.5617C117.752 55.3739 117.716 55.1976 117.643 55.0327C117.574 54.8678 117.466 54.7349 117.32 54.6342C117.178 54.5334 116.997 54.483 116.777 54.483C116.561 54.483 116.383 54.5334 116.241 54.6342C116.099 54.7349 115.991 54.8678 115.918 55.0327C115.849 55.1976 115.815 55.3739 115.815 55.5617ZM117.189 49.4398L112.304 57.2588L111.459 56.771L116.344 48.9519L117.189 49.4398Z" fill="black" fill-opacity="0.87"/>
<g clip-path="url(#clip0_4493_146209)">
<rect x="22.4043" y="70.0505" width="167.82" height="3.5179" rx="1.75895" fill="#00695C" fill-opacity="0.2"/>
<circle cx="24.1635" cy="71.8094" r="0.586317" fill="#00695C"/>
<circle cx="37.806" cy="71.8094" r="0.586317" fill="#00695C"/>
<circle cx="51.4496" cy="71.8094" r="0.586317" fill="#00695C"/>
<circle cx="65.0932" cy="71.8094" r="0.586317" fill="#00695C"/>
<circle cx="78.7357" cy="71.8094" r="0.586317" fill="#00695C"/>
<circle cx="92.3793" cy="71.8094" r="0.586317" fill="#00695C"/>
<circle cx="106.022" cy="71.8094" r="0.586317" fill="#00695C"/>
<circle cx="119.665" cy="71.8094" r="0.586317" fill="#00695C"/>
<circle cx="133.309" cy="71.8094" r="0.586317" fill="#00695C"/>
<circle cx="146.952" cy="71.8094" r="0.586317" fill="#00695C"/>
<circle cx="160.595" cy="71.8094" r="0.586317" fill="#00695C"/>
<circle cx="174.239" cy="71.8094" r="0.586317" fill="#00695C"/>
<circle cx="187.881" cy="71.8094" r="0.586317" fill="#00695C"/>
<g clip-path="url(#clip1_4493_146209)">
<rect x="22.4043" y="70.0505" width="82.5863" height="3.5179" rx="1.75895" fill="#00695C"/>
<rect x="63.4043" y="70.0505" width="0.586317" height="3.5179" rx="0.293159" fill="#00695C"/>
</g>
</g>
<path d="M25.8498 80.2557V80.9549C25.8498 81.3307 25.8162 81.6477 25.749 81.9059C25.6818 82.1641 25.5852 82.372 25.4593 82.5294C25.3333 82.6869 25.1811 82.8013 25.0026 82.8727C24.8263 82.942 24.6268 82.9766 24.4043 82.9766C24.2279 82.9766 24.0652 82.9546 23.9162 82.9105C23.7671 82.8664 23.6328 82.7961 23.5131 82.6995C23.3955 82.6008 23.2947 82.4728 23.2108 82.3153C23.1268 82.1578 23.0628 81.9668 23.0187 81.7421C22.9746 81.5175 22.9525 81.2551 22.9525 80.9549V80.2557C22.9525 79.8799 22.9861 79.565 23.0533 79.311C23.1226 79.057 23.2202 78.8533 23.3462 78.7001C23.4721 78.5447 23.6233 78.4334 23.7997 78.3662C23.9781 78.2991 24.1776 78.2655 24.398 78.2655C24.5765 78.2655 24.7402 78.2875 24.8893 78.3316C25.0404 78.3736 25.1748 78.4418 25.2924 78.5363C25.4099 78.6287 25.5097 78.7525 25.5915 78.9079C25.6755 79.0612 25.7395 79.2491 25.7836 79.4716C25.8277 79.6941 25.8498 79.9555 25.8498 80.2557ZM25.264 81.0493V80.1581C25.264 79.9524 25.2514 79.7718 25.2262 79.6165C25.2031 79.459 25.1685 79.3246 25.1223 79.2134C25.0761 79.1021 25.0173 79.0118 24.946 78.9425C24.8767 78.8733 24.7958 78.8229 24.7035 78.7914C24.6132 78.7578 24.5114 78.741 24.398 78.741C24.2594 78.741 24.1366 78.7672 24.0295 78.8197C23.9225 78.8701 23.8322 78.9509 23.7587 79.0622C23.6873 79.1735 23.6328 79.3194 23.595 79.4999C23.5572 79.6805 23.5383 79.8999 23.5383 80.1581V81.0493C23.5383 81.2551 23.5498 81.4367 23.5729 81.5941C23.5981 81.7516 23.6349 81.8881 23.6831 82.0035C23.7314 82.1169 23.7902 82.2103 23.8595 82.2838C23.9288 82.3573 24.0086 82.4119 24.0988 82.4476C24.1912 82.4811 24.293 82.4979 24.4043 82.4979C24.5471 82.4979 24.672 82.4707 24.779 82.4161C24.8861 82.3615 24.9753 82.2765 25.0467 82.161C25.1202 82.0434 25.1748 81.8933 25.2105 81.7107C25.2462 81.5259 25.264 81.3055 25.264 81.0493Z" fill="black" fill-opacity="0.54"/>
<path d="M180.932 78.3033V82.9136H180.349V79.0307L179.175 79.459V78.9331L180.841 78.3033H180.932ZM185.67 80.2557V80.9549C185.67 81.3307 185.636 81.6477 185.569 81.9059C185.502 82.1641 185.406 82.372 185.28 82.5294C185.154 82.6869 185.001 82.8013 184.823 82.8727C184.647 82.942 184.447 82.9766 184.225 82.9766C184.048 82.9766 183.886 82.9546 183.736 82.9105C183.587 82.8664 183.453 82.7961 183.333 82.6995C183.216 82.6008 183.115 82.4728 183.031 82.3153C182.947 82.1578 182.883 81.9668 182.839 81.7421C182.795 81.5175 182.773 81.2551 182.773 80.9549V80.2557C182.773 79.8799 182.806 79.565 182.874 79.311C182.943 79.057 183.041 78.8533 183.166 78.7001C183.292 78.5447 183.444 78.4334 183.62 78.3662C183.798 78.2991 183.998 78.2655 184.218 78.2655C184.397 78.2655 184.561 78.2875 184.71 78.3316C184.861 78.3736 184.995 78.4418 185.113 78.5363C185.23 78.6287 185.33 78.7525 185.412 78.9079C185.496 79.0612 185.56 79.2491 185.604 79.4716C185.648 79.6941 185.67 79.9555 185.67 80.2557ZM185.084 81.0493V80.1581C185.084 79.9524 185.072 79.7718 185.047 79.6165C185.023 79.459 184.989 79.3246 184.943 79.2134C184.896 79.1021 184.838 79.0118 184.766 78.9425C184.697 78.8733 184.616 78.8229 184.524 78.7914C184.434 78.7578 184.332 78.741 184.218 78.741C184.08 78.741 183.957 78.7672 183.85 78.8197C183.743 78.8701 183.653 78.9509 183.579 79.0622C183.508 79.1735 183.453 79.3194 183.415 79.4999C183.377 79.6805 183.359 79.8999 183.359 80.1581V81.0493C183.359 81.2551 183.37 81.4367 183.393 81.5941C183.418 81.7516 183.455 81.8881 183.503 82.0035C183.552 82.1169 183.611 82.2103 183.68 82.2838C183.749 82.3573 183.829 82.4119 183.919 82.4476C184.012 82.4811 184.113 82.4979 184.225 82.4979C184.367 82.4979 184.492 82.4707 184.599 82.4161C184.706 82.3615 184.796 82.2765 184.867 82.161C184.941 82.0434 184.995 81.8933 185.031 81.7107C185.066 81.5259 185.084 81.3055 185.084 81.0493ZM189.444 80.2557V80.9549C189.444 81.3307 189.411 81.6477 189.344 81.9059C189.277 82.1641 189.18 82.372 189.054 82.5294C188.928 82.6869 188.776 82.8013 188.597 82.8727C188.421 82.942 188.222 82.9766 187.999 82.9766C187.823 82.9766 187.66 82.9546 187.511 82.9105C187.362 82.8664 187.227 82.7961 187.108 82.6995C186.99 82.6008 186.889 82.4728 186.805 82.3153C186.722 82.1578 186.657 81.9668 186.613 81.7421C186.569 81.5175 186.547 81.2551 186.547 80.9549V80.2557C186.547 79.8799 186.581 79.565 186.648 79.311C186.717 79.057 186.815 78.8533 186.941 78.7001C187.067 78.5447 187.218 78.4334 187.394 78.3662C187.573 78.2991 187.772 78.2655 187.993 78.2655C188.171 78.2655 188.335 78.2875 188.484 78.3316C188.635 78.3736 188.77 78.4418 188.887 78.5363C189.005 78.6287 189.104 78.7525 189.186 78.9079C189.27 79.0612 189.334 79.2491 189.378 79.4716C189.422 79.6941 189.444 79.9555 189.444 80.2557ZM188.859 81.0493V80.1581C188.859 79.9524 188.846 79.7718 188.821 79.6165C188.798 79.459 188.763 79.3246 188.717 79.2134C188.671 79.1021 188.612 79.0118 188.541 78.9425C188.471 78.8733 188.391 78.8229 188.298 78.7914C188.208 78.7578 188.106 78.741 187.993 78.741C187.854 78.741 187.731 78.7672 187.624 78.8197C187.517 78.8701 187.427 78.9509 187.353 79.0622C187.282 79.1735 187.227 79.3194 187.19 79.4999C187.152 79.6805 187.133 79.8999 187.133 80.1581V81.0493C187.133 81.2551 187.145 81.4367 187.168 81.5941C187.193 81.7516 187.23 81.8881 187.278 82.0035C187.326 82.1169 187.385 82.2103 187.454 82.2838C187.524 82.3573 187.603 82.4119 187.694 82.4476C187.786 82.4811 187.888 82.4979 187.999 82.4979C188.142 82.4979 188.267 82.4707 188.374 82.4161C188.481 82.3615 188.57 82.2765 188.641 82.161C188.715 82.0434 188.77 81.8933 188.805 81.7107C188.841 81.5259 188.859 81.3055 188.859 81.0493Z" fill="black" fill-opacity="0.54"/>
<circle cx="106.597" cy="71.9169" r="4.69054" fill="#00695C"/>
</g>
<defs>
<filter id="filter0_d_4493_146209" x="0.333008" y="0.5" width="212" height="131" filterUnits="userSpaceOnUse" color-interpolation-filters="sRGB">
<feFlood flood-opacity="0" result="BackgroundImageFix"/>
<feColorMatrix in="SourceAlpha" type="matrix" values="0 0 0 0 0 0 0 0 0 0 0 0 0 0 0 0 0 0 127 0" result="hardAlpha"/>
<feOffset dy="4"/>
<feGaussianBlur stdDeviation="4"/>
<feComposite in2="hardAlpha" operator="out"/>
<feColorMatrix type="matrix" values="0 0 0 0 0 0 0 0 0 0 0 0 0 0 0 0 0 0 0.04 0"/>
<feBlend mode="normal" in2="BackgroundImageFix" result="effect1_dropShadow_4493_146209"/>
<feBlend mode="normal" in="SourceGraphic" in2="effect1_dropShadow_4493_146209" result="shape"/>
</filter>
<clipPath id="clip0_4493_146209">
<rect x="22.4043" y="70.0505" width="167.82" height="3.5179" rx="1.75895" fill="white"/>
</clipPath>
<clipPath id="clip1_4493_146209">
<rect x="22.4043" y="70.0505" width="82.5863" height="3.5179" rx="1.75895" fill="white"/>
</clipPath>
</defs>
</svg>
