<svg width="206" height="125" viewBox="0 0 206 125" fill="none" xmlns="http://www.w3.org/2000/svg">
<g filter="url(#filter0_d_4516_102446)">
<rect x="5" y="2.5" width="196" height="115" rx="2.3403" fill="white"/>
<path d="M22.1753 19.9159C22.1753 19.8131 22.1593 19.7216 22.1273 19.6417C22.0976 19.5617 22.0439 19.4885 21.9662 19.4223C21.8885 19.356 21.7788 19.292 21.6371 19.2303C21.4977 19.1663 21.3194 19.1012 21.1023 19.0349C20.8646 18.9617 20.6452 18.8806 20.4441 18.7915C20.2453 18.7001 20.0716 18.5949 19.923 18.4761C19.7745 18.355 19.6591 18.2167 19.5768 18.0613C19.4945 17.9036 19.4534 17.7219 19.4534 17.5162C19.4534 17.3128 19.4957 17.1277 19.5802 16.9608C19.6671 16.794 19.7893 16.65 19.947 16.5289C20.107 16.4055 20.2956 16.3106 20.5127 16.2443C20.7298 16.1758 20.9698 16.1415 21.2326 16.1415C21.6028 16.1415 21.9217 16.2101 22.1891 16.3472C22.4587 16.4843 22.6656 16.6683 22.8096 16.8991C22.9558 17.13 23.029 17.3848 23.029 17.6636H22.1753C22.1753 17.4991 22.1399 17.3539 22.0691 17.2282C22.0005 17.1002 21.8954 16.9997 21.7537 16.9265C21.6143 16.8534 21.4371 16.8168 21.2223 16.8168C21.0189 16.8168 20.8498 16.8477 20.7149 16.9094C20.5801 16.9711 20.4795 17.0545 20.4133 17.1597C20.347 17.2648 20.3138 17.3836 20.3138 17.5162C20.3138 17.6099 20.3356 17.6956 20.379 17.7733C20.4224 17.8487 20.4887 17.9196 20.5778 17.9859C20.6669 18.0498 20.7789 18.1104 20.9138 18.1675C21.0486 18.2247 21.2075 18.2795 21.3903 18.3321C21.6668 18.4144 21.9079 18.5058 22.1136 18.6064C22.3193 18.7046 22.4907 18.8166 22.6279 18.9423C22.765 19.068 22.8678 19.2109 22.9364 19.3708C23.005 19.5285 23.0392 19.7079 23.0392 19.9091C23.0392 20.1193 22.997 20.309 22.9124 20.4781C22.8278 20.645 22.7067 20.7878 22.549 20.9067C22.3936 21.0232 22.2062 21.1135 21.9868 21.1775C21.7697 21.2392 21.5274 21.27 21.26 21.27C21.02 21.27 20.7835 21.238 20.5504 21.1741C20.3196 21.1101 20.1093 21.0129 19.9196 20.8827C19.7299 20.7501 19.5791 20.5855 19.4671 20.389C19.3551 20.1902 19.2991 19.9582 19.2991 19.6931H20.1596C20.1596 19.8553 20.187 19.9936 20.2419 20.1079C20.299 20.2222 20.3778 20.3159 20.4784 20.389C20.579 20.4598 20.6955 20.5124 20.8281 20.5467C20.9629 20.581 21.1069 20.5981 21.26 20.5981C21.4611 20.5981 21.6291 20.5696 21.764 20.5124C21.9011 20.4553 22.0039 20.3753 22.0725 20.2724C22.1411 20.1696 22.1753 20.0508 22.1753 19.9159ZM24.7488 15.9358V21.2015H23.9191V15.9358H24.7488ZM26.6845 17.4922V21.2015H25.8549V17.4922H26.6845ZM25.8001 16.5186C25.8001 16.3929 25.8412 16.2889 25.9235 16.2066C26.008 16.1221 26.1246 16.0798 26.2731 16.0798C26.4194 16.0798 26.5348 16.1221 26.6194 16.2066C26.704 16.2889 26.7462 16.3929 26.7462 16.5186C26.7462 16.642 26.704 16.7449 26.6194 16.8271C26.5348 16.9094 26.4194 16.9505 26.2731 16.9505C26.1246 16.9505 26.008 16.9094 25.9235 16.8271C25.8412 16.7449 25.8001 16.642 25.8001 16.5186ZM29.9984 20.4336V15.9358H30.828V21.2015H30.0773L29.9984 20.4336ZM27.585 19.388V19.316C27.585 19.0349 27.6181 18.7789 27.6844 18.5481C27.7507 18.315 27.8467 18.115 27.9724 17.9481C28.0981 17.779 28.2512 17.6499 28.4318 17.5608C28.6123 17.4693 28.8157 17.4236 29.042 17.4236C29.2659 17.4236 29.4625 17.4671 29.6316 17.5539C29.8007 17.6407 29.9447 17.7653 30.0636 17.9276C30.1824 18.0876 30.2773 18.2795 30.3481 18.5035C30.419 18.7252 30.4692 18.972 30.4989 19.244V19.4737C30.4692 19.7388 30.419 19.981 30.3481 20.2005C30.2773 20.4199 30.1824 20.6095 30.0636 20.7695C29.9447 20.9295 29.7996 21.0529 29.6282 21.1398C29.4591 21.2266 29.2614 21.27 29.0351 21.27C28.8111 21.27 28.6089 21.2232 28.4283 21.1295C28.2501 21.0358 28.0981 20.9044 27.9724 20.7352C27.8467 20.5661 27.7507 20.3673 27.6844 20.1387C27.6181 19.9079 27.585 19.6577 27.585 19.388ZM28.4112 19.316V19.388C28.4112 19.5571 28.426 19.7148 28.4558 19.8611C28.4877 20.0073 28.5369 20.1365 28.6032 20.2484C28.6694 20.3581 28.7551 20.445 28.8603 20.509C28.9677 20.5707 29.0957 20.6015 29.2442 20.6015C29.4316 20.6015 29.5859 20.5604 29.707 20.4781C29.8282 20.3959 29.923 20.285 29.9916 20.1456C30.0624 20.0039 30.1104 19.8462 30.1356 19.6725V19.052C30.1218 18.9172 30.0933 18.7915 30.0499 18.6749C30.0087 18.5584 29.9527 18.4567 29.8819 18.3698C29.811 18.2807 29.723 18.2121 29.6179 18.1641C29.5151 18.1138 29.3928 18.0887 29.2511 18.0887C29.1002 18.0887 28.9723 18.1207 28.8671 18.1847C28.762 18.2487 28.6752 18.3367 28.6066 18.4487C28.5403 18.5606 28.4912 18.6909 28.4592 18.8395C28.4272 18.988 28.4112 19.1469 28.4112 19.316ZM33.4735 21.27C33.1992 21.27 32.9512 21.2255 32.7295 21.1363C32.5101 21.0449 32.3227 20.9181 32.1673 20.7558C32.0142 20.5935 31.8965 20.4027 31.8142 20.1833C31.7319 19.9639 31.6908 19.7274 31.6908 19.4737V19.3366C31.6908 19.0463 31.7331 18.7835 31.8176 18.5481C31.9022 18.3127 32.0199 18.1116 32.1707 17.9447C32.3216 17.7756 32.4999 17.6465 32.7055 17.5573C32.9112 17.4682 33.1341 17.4236 33.374 17.4236C33.6391 17.4236 33.8711 17.4682 34.07 17.5573C34.2688 17.6465 34.4333 17.7722 34.5636 17.9344C34.6962 18.0944 34.7944 18.2852 34.8584 18.5069C34.9247 18.7286 34.9578 18.9732 34.9578 19.2406V19.5937H32.0919V19.0006H34.1419V18.9355C34.1374 18.7869 34.1077 18.6475 34.0528 18.5172C34.0002 18.3869 33.9191 18.2818 33.8094 18.2018C33.6997 18.1218 33.5534 18.0818 33.3706 18.0818C33.2335 18.0818 33.1112 18.1116 33.0038 18.171C32.8987 18.2281 32.8107 18.3115 32.7398 18.4212C32.669 18.5309 32.6141 18.6635 32.5753 18.8189C32.5387 18.972 32.5204 19.1446 32.5204 19.3366V19.4737C32.5204 19.6359 32.5421 19.7868 32.5856 19.9262C32.6313 20.0633 32.6975 20.1833 32.7844 20.2862C32.8712 20.389 32.9764 20.4701 33.0998 20.5296C33.2232 20.5867 33.3637 20.6153 33.5214 20.6153C33.7203 20.6153 33.8974 20.5753 34.0528 20.4953C34.2082 20.4153 34.3431 20.3022 34.4573 20.1559L34.8927 20.5775C34.8127 20.6941 34.7087 20.8061 34.5808 20.9135C34.4528 21.0186 34.2962 21.1043 34.1111 21.1706C33.9283 21.2369 33.7157 21.27 33.4735 21.27ZM36.5782 18.1984V21.2015H35.752V17.4922H36.5405L36.5782 18.1984ZM37.713 17.4682L37.7061 18.2361C37.6558 18.227 37.601 18.2201 37.5415 18.2155C37.4844 18.211 37.4273 18.2087 37.3701 18.2087C37.2284 18.2087 37.1039 18.2293 36.9965 18.2704C36.8891 18.3092 36.7988 18.3664 36.7256 18.4418C36.6548 18.5149 36.5999 18.6041 36.5611 18.7092C36.5222 18.8143 36.4994 18.932 36.4925 19.0623L36.304 19.076C36.304 18.8429 36.3268 18.6269 36.3725 18.4281C36.4183 18.2293 36.4868 18.0544 36.5782 17.9036C36.6719 17.7527 36.7885 17.635 36.9279 17.5505C37.0696 17.4659 37.233 17.4236 37.4181 17.4236C37.4684 17.4236 37.5221 17.4282 37.5793 17.4373C37.6387 17.4465 37.6832 17.4568 37.713 17.4682Z" fill="black" fill-opacity="0.87"/>
<path d="M97.4806 52.4848V53.8012H90.2815L90.2266 52.8071L94.5324 46.0604H95.8557L94.4227 48.515L91.9476 52.4848H97.4806ZM96.2328 46.0604V56.0433H94.5804V46.0604H96.2328ZM105.112 53.3213C105.112 53.9429 104.968 54.4663 104.68 54.8914C104.392 55.3165 103.999 55.6387 103.501 55.8582C103.007 56.073 102.449 56.1804 101.828 56.1804C101.206 56.1804 100.646 56.073 100.148 55.8582C99.6495 55.6387 99.2564 55.3165 98.9685 54.8914C98.6805 54.4663 98.5365 53.9429 98.5365 53.3213C98.5365 52.9099 98.6165 52.5374 98.7765 52.2037C98.9365 51.8655 99.1627 51.5752 99.4553 51.333C99.7524 51.0861 100.1 50.8964 100.497 50.7639C100.9 50.6313 101.338 50.5651 101.814 50.5651C102.445 50.5651 103.009 50.6816 103.507 50.9147C104.006 51.1478 104.396 51.4701 104.68 51.8815C104.968 52.2929 105.112 52.7728 105.112 53.3213ZM103.453 53.239C103.453 52.9054 103.384 52.6128 103.247 52.3614C103.11 52.11 102.918 51.9158 102.671 51.7786C102.424 51.6415 102.138 51.5729 101.814 51.5729C101.485 51.5729 101.199 51.6415 100.957 51.7786C100.715 51.9158 100.525 52.11 100.388 52.3614C100.255 52.6128 100.189 52.9054 100.189 53.239C100.189 53.5773 100.255 53.8698 100.388 54.1166C100.52 54.3589 100.71 54.544 100.957 54.672C101.204 54.8 101.494 54.864 101.828 54.864C102.161 54.864 102.449 54.8 102.691 54.672C102.934 54.544 103.121 54.3589 103.254 54.1166C103.386 53.8698 103.453 53.5773 103.453 53.239ZM104.885 48.6864C104.885 49.1846 104.753 49.628 104.488 50.0165C104.227 50.4051 103.866 50.7113 103.405 50.9353C102.943 51.1547 102.417 51.2644 101.828 51.2644C101.233 51.2644 100.703 51.1547 100.237 50.9353C99.7752 50.7113 99.4118 50.4051 99.1467 50.0165C98.8862 49.628 98.7559 49.1846 98.7559 48.6864C98.7559 48.0922 98.8862 47.5917 99.1467 47.1849C99.4118 46.7735 99.7752 46.4604 100.237 46.2456C100.699 46.0307 101.226 45.9233 101.821 45.9233C102.415 45.9233 102.943 46.0307 103.405 46.2456C103.866 46.4604 104.227 46.7735 104.488 47.1849C104.753 47.5917 104.885 48.0922 104.885 48.6864ZM103.233 48.7413C103.233 48.4442 103.174 48.1836 103.055 47.9596C102.941 47.7311 102.778 47.5528 102.568 47.4249C102.358 47.2969 102.109 47.2329 101.821 47.2329C101.533 47.2329 101.284 47.2946 101.073 47.418C100.863 47.5414 100.701 47.7151 100.587 47.9391C100.472 48.1631 100.415 48.4304 100.415 48.7413C100.415 49.0475 100.472 49.3149 100.587 49.5435C100.701 49.7674 100.863 49.9434 101.073 50.0714C101.288 50.1994 101.54 50.2634 101.828 50.2634C102.116 50.2634 102.365 50.1994 102.575 50.0714C102.785 49.9434 102.947 49.7674 103.062 49.5435C103.176 49.3149 103.233 49.0475 103.233 48.7413ZM106.497 48.5082V47.9802C106.497 47.6008 106.579 47.2557 106.744 46.9449C106.908 46.6341 107.148 46.385 107.463 46.1976C107.779 46.0102 108.158 45.9165 108.602 45.9165C109.059 45.9165 109.443 46.0102 109.753 46.1976C110.069 46.385 110.309 46.6341 110.473 46.9449C110.638 47.2557 110.72 47.6008 110.72 47.9802V48.5082C110.72 48.8784 110.638 49.2189 110.473 49.5297C110.313 49.8406 110.076 50.0897 109.76 50.2771C109.45 50.4645 109.068 50.5582 108.615 50.5582C108.167 50.5582 107.783 50.4645 107.463 50.2771C107.148 50.0897 106.908 49.8406 106.744 49.5297C106.579 49.2189 106.497 48.8784 106.497 48.5082ZM107.642 47.9802V48.5082C107.642 48.691 107.676 48.8647 107.745 49.0292C107.818 49.1938 107.927 49.3263 108.074 49.4269C108.22 49.5275 108.401 49.5777 108.615 49.5777C108.835 49.5777 109.013 49.5275 109.15 49.4269C109.292 49.3263 109.397 49.1938 109.466 49.0292C109.534 48.8647 109.568 48.691 109.568 48.5082V47.9802C109.568 47.7928 109.532 47.6168 109.459 47.4523C109.39 47.2832 109.285 47.1483 109.143 47.0478C109.002 46.9472 108.821 46.8969 108.602 46.8969C108.391 46.8969 108.213 46.9472 108.067 47.0478C107.925 47.1483 107.818 47.2832 107.745 47.4523C107.676 47.6168 107.642 47.7928 107.642 47.9802ZM111.31 54.1304V53.5956C111.31 53.2207 111.392 52.8779 111.557 52.5671C111.726 52.2563 111.968 52.0072 112.283 51.8198C112.599 51.6324 112.978 51.5387 113.422 51.5387C113.879 51.5387 114.263 51.6324 114.574 51.8198C114.889 52.0072 115.127 52.2563 115.287 52.5671C115.451 52.8779 115.533 53.2207 115.533 53.5956V54.1304C115.533 54.5052 115.451 54.848 115.287 55.1588C115.127 55.4696 114.891 55.7187 114.58 55.9061C114.27 56.0936 113.89 56.1873 113.442 56.1873C112.99 56.1873 112.603 56.0936 112.283 55.9061C111.968 55.7187 111.726 55.4696 111.557 55.1588C111.392 54.848 111.31 54.5052 111.31 54.1304ZM112.462 53.5956V54.1304C112.462 54.3132 112.498 54.4869 112.571 54.6514C112.649 54.816 112.761 54.9508 112.907 55.056C113.054 55.1565 113.23 55.2068 113.435 55.2068C113.668 55.2068 113.856 55.1565 113.998 55.056C114.139 54.9508 114.24 54.8183 114.299 54.6583C114.363 54.4937 114.395 54.3178 114.395 54.1304V53.5956C114.395 53.4082 114.359 53.2322 114.286 53.0676C114.217 52.9031 114.11 52.7705 113.963 52.67C113.822 52.5694 113.641 52.5191 113.422 52.5191C113.207 52.5191 113.029 52.5694 112.887 52.67C112.745 52.7705 112.638 52.9031 112.565 53.0676C112.496 53.2322 112.462 53.4082 112.462 53.5956ZM113.833 47.4866L108.958 55.2891L108.115 54.8023L112.99 46.9998L113.833 47.4866Z" fill="black" fill-opacity="0.87"/>
<path d="M27.8143 71.173L27.525 71.3425V71.6778V72.9168C27.525 72.9458 27.5136 72.9726 27.4947 72.9916C27.476 73.0104 27.4518 73.0201 27.4275 73.0201H24.6971C24.6729 73.0201 24.6486 73.0104 24.6299 72.9916C24.6111 72.9726 24.5996 72.9458 24.5996 72.9168V71.6778V71.3425L24.3103 71.173C23.2609 70.5582 22.5519 69.4112 22.5519 68.0986C22.5519 67.1568 22.9229 66.2547 23.5818 65.5902C24.2405 64.926 25.1329 64.5537 26.0623 64.5537C26.9918 64.5537 27.8841 64.926 28.5429 65.5902C29.2017 66.2547 29.5728 67.1568 29.5728 68.0986C29.5728 69.4112 28.8637 70.5582 27.8143 71.173ZM26.8424 74.8785V74.9818C26.8424 75.0108 26.831 75.0375 26.8121 75.0565C26.7935 75.0754 26.7692 75.085 26.7449 75.085H25.3797C25.3555 75.085 25.3312 75.0754 25.3125 75.0565C25.2937 75.0375 25.2822 75.0108 25.2822 74.9818V74.8785H26.8424Z" fill="#00695C" stroke="#00695C" stroke-width="1.17015"/>
<g clip-path="url(#clip0_4516_102446)">
<rect x="37.7646" y="68.0641" width="130.472" height="3.51045" rx="1.75522" fill="#00695C" fill-opacity="0.2"/>
<circle cx="39.5196" cy="69.8194" r="0.585075" fill="#00695C"/>
<circle cx="50.0509" cy="69.8194" r="0.585075" fill="#00695C"/>
<circle cx="60.5831" cy="69.8194" r="0.585075" fill="#00695C"/>
<circle cx="71.1144" cy="69.8194" r="0.585075" fill="#00695C"/>
<circle cx="81.6456" cy="69.8194" r="0.585075" fill="#00695C"/>
<circle cx="92.1778" cy="69.8194" r="0.585075" fill="#00695C"/>
<circle cx="102.709" cy="69.8194" r="0.585075" fill="#00695C"/>
<circle cx="113.24" cy="69.8194" r="0.585075" fill="#00695C"/>
<circle cx="123.772" cy="69.8194" r="0.585075" fill="#00695C"/>
<circle cx="134.304" cy="69.8194" r="0.585075" fill="#00695C"/>
<circle cx="144.835" cy="69.8194" r="0.585075" fill="#00695C"/>
<circle cx="155.366" cy="69.8194" r="0.585075" fill="#00695C"/>
<circle cx="165.898" cy="69.8194" r="0.585075" fill="#00695C"/>
<g clip-path="url(#clip1_4516_102446)">
<rect x="37.7646" y="68.0641" width="67.2836" height="3.51045" rx="1.75522" fill="#00695C"/>
<rect x="71.1143" y="68.0641" width="0.585075" height="3.51045" rx="0.292537" fill="#00695C"/>
</g>
</g>
<path d="M41.2071 78.2626V78.9602C41.2071 79.3352 41.1735 79.6516 41.1065 79.9093C41.0395 80.1669 40.9431 80.3743 40.8174 80.5315C40.6917 80.6886 40.5398 80.8028 40.3617 80.874C40.1857 80.9431 39.9867 80.9777 39.7646 80.9777C39.5887 80.9777 39.4263 80.9557 39.2776 80.9117C39.1288 80.8677 38.9947 80.7975 38.8753 80.7012C38.758 80.6027 38.6574 80.4749 38.5736 80.3178C38.4898 80.1607 38.4259 79.97 38.382 79.7458C38.338 79.5217 38.316 79.2598 38.316 78.9602V78.2626C38.316 77.8876 38.3495 77.5733 38.4165 77.3198C38.4857 77.0664 38.5831 76.8631 38.7088 76.7102C38.8345 76.5552 38.9853 76.4441 39.1613 76.3771C39.3394 76.3101 39.5384 76.2765 39.7584 76.2765C39.9364 76.2765 40.0998 76.2985 40.2486 76.3425C40.3994 76.3844 40.5335 76.4525 40.6508 76.5468C40.7682 76.639 40.8677 76.7626 40.9494 76.9176C41.0332 77.0705 41.0971 77.258 41.1411 77.4801C41.1851 77.7022 41.2071 77.963 41.2071 78.2626ZM40.6225 79.0545V78.1652C40.6225 77.9599 40.61 77.7797 40.5848 77.6247C40.5618 77.4675 40.5272 77.3335 40.4811 77.2224C40.435 77.1114 40.3764 77.0213 40.3052 76.9522C40.236 76.883 40.1554 76.8328 40.0632 76.8013C39.9731 76.7678 39.8715 76.7511 39.7584 76.7511C39.6201 76.7511 39.4975 76.7772 39.3907 76.8296C39.2838 76.8799 39.1938 76.9606 39.1204 77.0716C39.0492 77.1826 38.9947 77.3282 38.957 77.5084C38.9193 77.6886 38.9005 77.9075 38.9005 78.1652V79.0545C38.9005 79.2598 38.912 79.441 38.935 79.5982C38.9602 79.7553 38.9968 79.8915 39.045 80.0067C39.0932 80.1198 39.1519 80.213 39.221 80.2864C39.2901 80.3597 39.3697 80.4142 39.4598 80.4498C39.552 80.4833 39.6536 80.5 39.7646 80.5C39.9071 80.5 40.0318 80.4728 40.1386 80.4183C40.2454 80.3639 40.3345 80.279 40.4057 80.1638C40.479 80.0465 40.5335 79.8967 40.5691 79.7144C40.6047 79.5301 40.6225 79.3101 40.6225 79.0545Z" fill="black" fill-opacity="0.54"/>
<path d="M158.951 76.3142V80.9149H158.369V77.0402L157.197 77.4675V76.9427L158.86 76.3142H158.951ZM163.679 78.2626V78.9602C163.679 79.3352 163.645 79.6516 163.578 79.9093C163.511 80.1669 163.415 80.3743 163.289 80.5315C163.163 80.6886 163.011 80.8028 162.833 80.874C162.657 80.9431 162.458 80.9777 162.236 80.9777C162.06 80.9777 161.898 80.9557 161.749 80.9117C161.6 80.8677 161.466 80.7975 161.347 80.7012C161.23 80.6027 161.129 80.4749 161.045 80.3178C160.962 80.1607 160.898 79.97 160.854 79.7458C160.81 79.5217 160.788 79.2598 160.788 78.9602V78.2626C160.788 77.8876 160.821 77.5733 160.888 77.3198C160.957 77.0664 161.055 76.8631 161.18 76.7102C161.306 76.5552 161.457 76.4441 161.633 76.3771C161.811 76.3101 162.01 76.2765 162.23 76.2765C162.408 76.2765 162.572 76.2985 162.72 76.3425C162.871 76.3844 163.005 76.4525 163.123 76.5468C163.24 76.639 163.339 76.7626 163.421 76.9176C163.505 77.0705 163.569 77.258 163.613 77.4801C163.657 77.7022 163.679 77.963 163.679 78.2626ZM163.094 79.0545V78.1652C163.094 77.9599 163.082 77.7797 163.057 77.6247C163.033 77.4675 162.999 77.3335 162.953 77.2224C162.907 77.1114 162.848 77.0213 162.777 76.9522C162.708 76.883 162.627 76.8328 162.535 76.8013C162.445 76.7678 162.343 76.7511 162.23 76.7511C162.092 76.7511 161.969 76.7772 161.862 76.8296C161.756 76.8799 161.665 76.9606 161.592 77.0716C161.521 77.1826 161.466 77.3282 161.429 77.5084C161.391 77.6886 161.372 77.9075 161.372 78.1652V79.0545C161.372 79.2598 161.384 79.441 161.407 79.5982C161.432 79.7553 161.469 79.8915 161.517 80.0067C161.565 80.1198 161.624 80.213 161.693 80.2864C161.762 80.3597 161.841 80.4142 161.932 80.4498C162.024 80.4833 162.125 80.5 162.236 80.5C162.379 80.5 162.503 80.4728 162.61 80.4183C162.717 80.3639 162.806 80.279 162.877 80.1638C162.951 80.0465 163.005 79.8967 163.041 79.7144C163.076 79.5301 163.094 79.3101 163.094 79.0545ZM167.445 78.2626V78.9602C167.445 79.3352 167.412 79.6516 167.345 79.9093C167.278 80.1669 167.181 80.3743 167.055 80.5315C166.93 80.6886 166.778 80.8028 166.6 80.874C166.424 80.9431 166.225 80.9777 166.003 80.9777C165.827 80.9777 165.664 80.9557 165.516 80.9117C165.367 80.8677 165.233 80.7975 165.113 80.7012C164.996 80.6027 164.896 80.4749 164.812 80.3178C164.728 80.1607 164.664 79.97 164.62 79.7458C164.576 79.5217 164.554 79.2598 164.554 78.9602V78.2626C164.554 77.8876 164.588 77.5733 164.655 77.3198C164.724 77.0664 164.821 76.8631 164.947 76.7102C165.073 76.5552 165.223 76.4441 165.399 76.3771C165.577 76.3101 165.776 76.2765 165.996 76.2765C166.175 76.2765 166.338 76.2985 166.487 76.3425C166.638 76.3844 166.772 76.4525 166.889 76.5468C167.006 76.639 167.106 76.7626 167.187 76.9176C167.271 77.0705 167.335 77.258 167.379 77.4801C167.423 77.7022 167.445 77.963 167.445 78.2626ZM166.861 79.0545V78.1652C166.861 77.9599 166.848 77.7797 166.823 77.6247C166.8 77.4675 166.765 77.3335 166.719 77.2224C166.673 77.1114 166.614 77.0213 166.543 76.9522C166.474 76.883 166.393 76.8328 166.301 76.8013C166.211 76.7678 166.11 76.7511 165.996 76.7511C165.858 76.7511 165.736 76.7772 165.629 76.8296C165.522 76.8799 165.432 76.9606 165.359 77.0716C165.287 77.1826 165.233 77.3282 165.195 77.5084C165.157 77.6886 165.139 77.9075 165.139 78.1652V79.0545C165.139 79.2598 165.15 79.441 165.173 79.5982C165.198 79.7553 165.235 79.8915 165.283 80.0067C165.331 80.1198 165.39 80.213 165.459 80.2864C165.528 80.3597 165.608 80.4142 165.698 80.4498C165.79 80.4833 165.892 80.5 166.003 80.5C166.145 80.5 166.27 80.4728 166.377 80.4183C166.484 80.3639 166.573 80.279 166.644 80.1638C166.717 80.0465 166.772 79.8967 166.807 79.7144C166.843 79.5301 166.861 79.3101 166.861 79.0545Z" fill="black" fill-opacity="0.54"/>
<g clip-path="url(#clip2_4516_102446)">
<path d="M181.546 72.6088L181.4 72.6934V72.8618V73.9149C181.4 73.9925 181.37 74.0669 181.315 74.1217C181.26 74.1766 181.186 74.2074 181.108 74.2074H178.768C178.69 74.2074 178.616 74.1766 178.561 74.1217C178.506 74.0669 178.475 73.9925 178.475 73.9149V72.8618V72.6934L178.33 72.6088C177.368 72.0503 176.72 71.0093 176.72 69.8194C176.72 68.9659 177.059 68.1474 177.662 67.544C178.266 66.9405 179.084 66.6015 179.938 66.6015C180.791 66.6015 181.61 66.9405 182.213 67.544C182.817 68.1474 183.156 68.9659 183.156 69.8194C183.156 71.0093 182.507 72.0503 181.546 72.6088ZM180.815 75.3776V75.6701C180.815 75.7477 180.785 75.8221 180.73 75.877C180.675 75.9318 180.6 75.9626 180.523 75.9626H179.353C179.275 75.9626 179.201 75.9318 179.146 75.877C179.091 75.8221 179.06 75.7477 179.06 75.6701V75.3776H180.815ZM184.911 69.5268H186.081V70.1119H184.911V69.5268ZM173.794 69.5268H174.965V70.1119H173.794V69.5268ZM180.23 63.6761V64.8462H179.645V63.6761H180.23ZM175.378 65.6817L175.796 65.2612L176.628 66.0971L176.211 66.5107L175.378 65.6817ZM183.665 66.51L183.247 66.092L184.075 65.2604L184.497 65.6824L183.665 66.51Z" fill="#00695C" stroke="#00695C" stroke-width="0.585075"/>
</g>
<circle cx="103.02" cy="69.8821" r="4.6806" fill="#00695C"/>
</g>
<defs>
<filter id="filter0_d_4516_102446" x="0.319403" y="0.159702" width="205.361" height="124.361" filterUnits="userSpaceOnUse" color-interpolation-filters="sRGB">
<feFlood flood-opacity="0" result="BackgroundImageFix"/>
<feColorMatrix in="SourceAlpha" type="matrix" values="0 0 0 0 0 0 0 0 0 0 0 0 0 0 0 0 0 0 127 0" result="hardAlpha"/>
<feOffset dy="2.3403"/>
<feGaussianBlur stdDeviation="2.3403"/>
<feComposite in2="hardAlpha" operator="out"/>
<feColorMatrix type="matrix" values="0 0 0 0 0 0 0 0 0 0 0 0 0 0 0 0 0 0 0.04 0"/>
<feBlend mode="normal" in2="BackgroundImageFix" result="effect1_dropShadow_4516_102446"/>
<feBlend mode="normal" in="SourceGraphic" in2="effect1_dropShadow_4516_102446" result="shape"/>
</filter>
<clipPath id="clip0_4516_102446">
<rect x="37.7646" y="68.0641" width="130.472" height="3.51045" rx="1.75522" fill="white"/>
</clipPath>
<clipPath id="clip1_4516_102446">
<rect x="37.7646" y="68.0641" width="67.2836" height="3.51045" rx="1.75522" fill="white"/>
</clipPath>
<clipPath id="clip2_4516_102446">
<rect width="14.0418" height="14.0418" fill="white" transform="translate(172.916 62.7985)"/>
</clipPath>
</defs>
</svg>
