<svg width="207" height="125" viewBox="0 0 207 125" fill="none" xmlns="http://www.w3.org/2000/svg">
<g filter="url(#filter0_d_4516_100876)">
<rect x="5.66602" y="2.5" width="196" height="115" rx="2.3403" fill="white"/>
<g clip-path="url(#clip0_4516_100876)">
<rect x="19.708" y="57.0746" width="167.916" height="3.51045" rx="1.75522" fill="#00695C" fill-opacity="0.2"/>
<circle cx="21.463" cy="58.8299" r="0.585075" fill="#00695C"/>
<circle cx="35.1153" cy="58.8299" r="0.585075" fill="#00695C"/>
<circle cx="48.7667" cy="58.8299" r="0.585075" fill="#00695C"/>
<circle cx="62.4191" cy="58.8299" r="0.585075" fill="#00695C"/>
<circle cx="76.0704" cy="58.8299" r="0.585075" fill="#00695C"/>
<circle cx="89.7228" cy="58.8299" r="0.585075" fill="#00695C"/>
<circle cx="103.374" cy="58.8299" r="0.585075" fill="#00695C"/>
<circle cx="117.026" cy="58.8299" r="0.585075" fill="#00695C"/>
<circle cx="130.678" cy="58.8299" r="0.585075" fill="#00695C"/>
<circle cx="144.33" cy="58.8299" r="0.585075" fill="#00695C"/>
<circle cx="157.983" cy="58.8299" r="0.585075" fill="#00695C"/>
<circle cx="171.634" cy="58.8299" r="0.585075" fill="#00695C"/>
<circle cx="185.286" cy="58.8299" r="0.585075" fill="#00695C"/>
<g clip-path="url(#clip1_4516_100876)">
<rect x="19.708" y="57.0746" width="84.8358" height="3.51045" rx="1.75522" fill="#00695C"/>
<rect x="61.833" y="57.0746" width="0.585075" height="3.51045" rx="0.292537" fill="#00695C"/>
</g>
</g>
<path d="M23.1504 67.2732V67.9708C23.1504 68.3458 23.1169 68.6621 23.0499 68.9198C22.9828 69.1775 22.8864 69.3849 22.7607 69.542C22.635 69.6992 22.4832 69.8133 22.3051 69.8846C22.1291 69.9537 21.9301 69.9883 21.708 69.9883C21.532 69.9883 21.3697 69.9663 21.2209 69.9223C21.0722 69.8783 20.9381 69.8081 20.8187 69.7117C20.7014 69.6133 20.6008 69.4855 20.517 69.3283C20.4332 69.1712 20.3693 68.9806 20.3253 68.7564C20.2813 68.5322 20.2593 68.2704 20.2593 67.9708V67.2732C20.2593 66.8981 20.2928 66.5839 20.3599 66.3304C20.429 66.0769 20.5264 65.8737 20.6521 65.7208C20.7778 65.5657 20.9287 65.4547 21.1046 65.3877C21.2827 65.3206 21.4817 65.2871 21.7017 65.2871C21.8798 65.2871 22.0432 65.3091 22.192 65.3531C22.3428 65.395 22.4769 65.4631 22.5942 65.5574C22.7115 65.6495 22.811 65.7731 22.8927 65.9282C22.9765 66.0811 23.0404 66.2686 23.0844 66.4907C23.1284 66.7127 23.1504 66.9736 23.1504 67.2732ZM22.5659 68.0651V67.1757C22.5659 66.9704 22.5533 66.7903 22.5282 66.6352C22.5052 66.4781 22.4706 66.344 22.4245 66.233C22.3784 66.122 22.3197 66.0319 22.2485 65.9627C22.1794 65.8936 22.0987 65.8433 22.0065 65.8119C21.9165 65.7784 21.8149 65.7616 21.7017 65.7616C21.5635 65.7616 21.4409 65.7878 21.3341 65.8402C21.2272 65.8905 21.1371 65.9711 21.0638 66.0821C20.9926 66.1932 20.9381 66.3388 20.9004 66.519C20.8627 66.6991 20.8438 66.9181 20.8438 67.1757V68.0651C20.8438 68.2704 20.8553 68.4516 20.8784 68.6087C20.9035 68.7658 20.9402 68.902 20.9884 69.0172C21.0366 69.1304 21.0952 69.2236 21.1644 69.2969C21.2335 69.3702 21.3131 69.4247 21.4032 69.4603C21.4954 69.4938 21.597 69.5106 21.708 69.5106C21.8505 69.5106 21.9751 69.4834 22.082 69.4289C22.1888 69.3744 22.2778 69.2896 22.3491 69.1744C22.4224 69.057 22.4769 68.9072 22.5125 68.725C22.5481 68.5406 22.5659 68.3206 22.5659 68.0651Z" fill="black" fill-opacity="0.54"/>
<path d="M178.338 65.3248V69.9254H177.757V66.0507L176.585 66.4781V65.9533L178.247 65.3248H178.338ZM183.066 67.2732V67.9708C183.066 68.3458 183.033 68.6621 182.966 68.9198C182.899 69.1775 182.802 69.3849 182.677 69.542C182.551 69.6992 182.399 69.8133 182.221 69.8846C182.045 69.9537 181.846 69.9883 181.624 69.9883C181.448 69.9883 181.286 69.9663 181.137 69.9223C180.988 69.8783 180.854 69.8081 180.735 69.7117C180.617 69.6133 180.517 69.4855 180.433 69.3283C180.349 69.1712 180.285 68.9806 180.241 68.7564C180.197 68.5322 180.175 68.2704 180.175 67.9708V67.2732C180.175 66.8981 180.209 66.5839 180.276 66.3304C180.345 66.0769 180.442 65.8737 180.568 65.7208C180.694 65.5657 180.845 65.4547 181.021 65.3877C181.199 65.3206 181.398 65.2871 181.618 65.2871C181.796 65.2871 181.959 65.3091 182.108 65.3531C182.259 65.395 182.393 65.4631 182.51 65.5574C182.628 65.6495 182.727 65.7731 182.809 65.9282C182.893 66.0811 182.956 66.2686 183 66.4907C183.044 66.7127 183.066 66.9736 183.066 67.2732ZM182.482 68.0651V67.1757C182.482 66.9704 182.469 66.7903 182.444 66.6352C182.421 66.4781 182.387 66.344 182.341 66.233C182.294 66.122 182.236 66.0319 182.165 65.9627C182.095 65.8936 182.015 65.8433 181.923 65.8119C181.832 65.7784 181.731 65.7616 181.618 65.7616C181.479 65.7616 181.357 65.7878 181.25 65.8402C181.143 65.8905 181.053 65.9711 180.98 66.0821C180.909 66.1932 180.854 66.3388 180.816 66.519C180.779 66.6991 180.76 66.9181 180.76 67.1757V68.0651C180.76 68.2704 180.771 68.4516 180.794 68.6087C180.82 68.7658 180.856 68.902 180.904 69.0172C180.953 69.1304 181.011 69.2236 181.08 69.2969C181.15 69.3702 181.229 69.4247 181.319 69.4603C181.411 69.4938 181.513 69.5106 181.624 69.5106C181.766 69.5106 181.891 69.4834 181.998 69.4289C182.105 69.3744 182.194 69.2896 182.265 69.1744C182.338 69.057 182.393 68.9072 182.429 68.725C182.464 68.5406 182.482 68.3206 182.482 68.0651ZM186.833 67.2732V67.9708C186.833 68.3458 186.799 68.6621 186.732 68.9198C186.665 69.1775 186.569 69.3849 186.443 69.542C186.317 69.6992 186.166 69.8133 185.988 69.8846C185.812 69.9537 185.613 69.9883 185.39 69.9883C185.214 69.9883 185.052 69.9663 184.903 69.9223C184.755 69.8783 184.621 69.8081 184.501 69.7117C184.384 69.6133 184.283 69.4855 184.199 69.3283C184.116 69.1712 184.052 68.9806 184.008 68.7564C183.964 68.5322 183.942 68.2704 183.942 67.9708V67.2732C183.942 66.8981 183.975 66.5839 184.042 66.3304C184.111 66.0769 184.209 65.8737 184.335 65.7208C184.46 65.5657 184.611 65.4547 184.787 65.3877C184.965 65.3206 185.164 65.2871 185.384 65.2871C185.562 65.2871 185.726 65.3091 185.874 65.3531C186.025 65.395 186.159 65.4631 186.277 65.5574C186.394 65.6495 186.493 65.7731 186.575 65.9282C186.659 66.0811 186.723 66.2686 186.767 66.4907C186.811 66.7127 186.833 66.9736 186.833 67.2732ZM186.248 68.0651V67.1757C186.248 66.9704 186.236 66.7903 186.211 66.6352C186.188 66.4781 186.153 66.344 186.107 66.233C186.061 66.122 186.002 66.0319 185.931 65.9627C185.862 65.8936 185.781 65.8433 185.689 65.8119C185.599 65.7784 185.497 65.7616 185.384 65.7616C185.246 65.7616 185.123 65.7878 185.016 65.8402C184.91 65.8905 184.82 65.9711 184.746 66.0821C184.675 66.1932 184.621 66.3388 184.583 66.519C184.545 66.6991 184.526 66.9181 184.526 67.1757V68.0651C184.526 68.2704 184.538 68.4516 184.561 68.6087C184.586 68.7658 184.623 68.902 184.671 69.0172C184.719 69.1304 184.778 69.2236 184.847 69.2969C184.916 69.3702 184.996 69.4247 185.086 69.4603C185.178 69.4938 185.279 69.5106 185.39 69.5106C185.533 69.5106 185.658 69.4834 185.764 69.4289C185.871 69.3744 185.96 69.2896 186.032 69.1744C186.105 69.057 186.159 68.9072 186.195 68.725C186.231 68.5406 186.248 68.3206 186.248 68.0651Z" fill="black" fill-opacity="0.54"/>
<circle cx="103.686" cy="58.8299" r="4.6806" fill="#00695C"/>
</g>
<defs>
<filter id="filter0_d_4516_100876" x="0.985419" y="0.159702" width="205.361" height="124.361" filterUnits="userSpaceOnUse" color-interpolation-filters="sRGB">
<feFlood flood-opacity="0" result="BackgroundImageFix"/>
<feColorMatrix in="SourceAlpha" type="matrix" values="0 0 0 0 0 0 0 0 0 0 0 0 0 0 0 0 0 0 127 0" result="hardAlpha"/>
<feOffset dy="2.3403"/>
<feGaussianBlur stdDeviation="2.3403"/>
<feComposite in2="hardAlpha" operator="out"/>
<feColorMatrix type="matrix" values="0 0 0 0 0 0 0 0 0 0 0 0 0 0 0 0 0 0 0.04 0"/>
<feBlend mode="normal" in2="BackgroundImageFix" result="effect1_dropShadow_4516_100876"/>
<feBlend mode="normal" in="SourceGraphic" in2="effect1_dropShadow_4516_100876" result="shape"/>
</filter>
<clipPath id="clip0_4516_100876">
<rect x="19.708" y="57.0746" width="167.916" height="3.51045" rx="1.75522" fill="white"/>
</clipPath>
<clipPath id="clip1_4516_100876">
<rect x="19.708" y="57.0746" width="84.8358" height="3.51045" rx="1.75522" fill="white"/>
</clipPath>
</defs>
</svg>
