<svg width="207" height="125" viewBox="0 0 207 125" fill="none" xmlns="http://www.w3.org/2000/svg">
<g filter="url(#filter0_d_4565_107908)">
<rect x="5.66602" y="2.5" width="196" height="115" rx="2.3403" fill="white"/>
<path d="M22.8414 19.9159C22.8414 19.8131 22.8254 19.7216 22.7934 19.6417C22.7637 19.5617 22.7099 19.4885 22.6322 19.4223C22.5545 19.356 22.4448 19.292 22.3031 19.2303C22.1637 19.1663 21.9855 19.1012 21.7683 19.0349C21.5307 18.9617 21.3112 18.8806 21.1101 18.7915C20.9113 18.7001 20.7376 18.5949 20.589 18.4761C20.4405 18.355 20.3251 18.2167 20.2428 18.0613C20.1605 17.9036 20.1194 17.7219 20.1194 17.5162C20.1194 17.3128 20.1617 17.1277 20.2462 16.9608C20.3331 16.794 20.4553 16.65 20.613 16.5289C20.773 16.4055 20.9616 16.3106 21.1787 16.2443C21.3958 16.1758 21.6358 16.1415 21.8986 16.1415C22.2689 16.1415 22.5877 16.2101 22.8551 16.3472C23.1248 16.4843 23.3316 16.6683 23.4756 16.8991C23.6218 17.13 23.695 17.3848 23.695 17.6636H22.8414C22.8414 17.4991 22.8059 17.3539 22.7351 17.2282C22.6665 17.1002 22.5614 16.9997 22.4197 16.9265C22.2803 16.8534 22.1032 16.8168 21.8883 16.8168C21.6849 16.8168 21.5158 16.8477 21.381 16.9094C21.2461 16.9711 21.1456 17.0545 21.0793 17.1597C21.013 17.2648 20.9799 17.3836 20.9799 17.5162C20.9799 17.6099 21.0016 17.6956 21.045 17.7733C21.0884 17.8487 21.1547 17.9196 21.2438 17.9859C21.333 18.0498 21.4449 18.1104 21.5798 18.1675C21.7146 18.2247 21.8735 18.2795 22.0563 18.3321C22.3328 18.4144 22.574 18.5058 22.7796 18.6064C22.9853 18.7046 23.1567 18.8166 23.2939 18.9423C23.431 19.068 23.5338 19.2109 23.6024 19.3708C23.671 19.5285 23.7053 19.7079 23.7053 19.9091C23.7053 20.1193 23.663 20.309 23.5784 20.4781C23.4939 20.645 23.3727 20.7878 23.215 20.9067C23.0596 21.0232 22.8722 21.1135 22.6528 21.1775C22.4357 21.2392 22.1934 21.27 21.926 21.27C21.6861 21.27 21.4495 21.238 21.2164 21.1741C20.9856 21.1101 20.7753 21.0129 20.5856 20.8827C20.3959 20.7501 20.2451 20.5855 20.1331 20.389C20.0211 20.1902 19.9651 19.9582 19.9651 19.6931H20.8256C20.8256 19.8553 20.853 19.9936 20.9079 20.1079C20.965 20.2222 21.0439 20.3159 21.1444 20.389C21.245 20.4598 21.3615 20.5124 21.4941 20.5467C21.6289 20.581 21.7729 20.5981 21.926 20.5981C22.1272 20.5981 22.2951 20.5696 22.43 20.5124C22.5671 20.4553 22.6699 20.3753 22.7385 20.2724C22.8071 20.1696 22.8414 20.0508 22.8414 19.9159ZM25.4148 15.9358V21.2015H24.5852V15.9358H25.4148ZM27.3505 17.4922V21.2015H26.5209V17.4922H27.3505ZM26.4661 16.5186C26.4661 16.3929 26.5072 16.2889 26.5895 16.2066C26.6741 16.1221 26.7906 16.0798 26.9392 16.0798C27.0854 16.0798 27.2008 16.1221 27.2854 16.2066C27.37 16.2889 27.4123 16.3929 27.4123 16.5186C27.4123 16.642 27.37 16.7449 27.2854 16.8271C27.2008 16.9094 27.0854 16.9505 26.9392 16.9505C26.7906 16.9505 26.6741 16.9094 26.5895 16.8271C26.5072 16.7449 26.4661 16.642 26.4661 16.5186ZM30.6644 20.4336V15.9358H31.4941V21.2015H30.7433L30.6644 20.4336ZM28.251 19.388V19.316C28.251 19.0349 28.2841 18.7789 28.3504 18.5481C28.4167 18.315 28.5127 18.115 28.6384 17.9481C28.7641 17.779 28.9172 17.6499 29.0978 17.5608C29.2783 17.4693 29.4817 17.4236 29.708 17.4236C29.932 17.4236 30.1285 17.4671 30.2976 17.5539C30.4668 17.6407 30.6107 17.7653 30.7296 17.9276C30.8484 18.0876 30.9433 18.2795 31.0141 18.5035C31.085 18.7252 31.1352 18.972 31.165 19.244V19.4737C31.1352 19.7388 31.085 19.981 31.0141 20.2005C30.9433 20.4199 30.8484 20.6095 30.7296 20.7695C30.6107 20.9295 30.4656 21.0529 30.2942 21.1398C30.1251 21.2266 29.9274 21.27 29.7011 21.27C29.4772 21.27 29.2749 21.2232 29.0943 21.1295C28.9161 21.0358 28.7641 20.9044 28.6384 20.7352C28.5127 20.5661 28.4167 20.3673 28.3504 20.1387C28.2841 19.9079 28.251 19.6577 28.251 19.388ZM29.0772 19.316V19.388C29.0772 19.5571 29.0921 19.7148 29.1218 19.8611C29.1538 20.0073 29.2029 20.1365 29.2692 20.2484C29.3355 20.3581 29.4212 20.445 29.5263 20.509C29.6337 20.5707 29.7617 20.6015 29.9102 20.6015C30.0977 20.6015 30.2519 20.5604 30.373 20.4781C30.4942 20.3959 30.589 20.285 30.6576 20.1456C30.7284 20.0039 30.7764 19.8462 30.8016 19.6725V19.052C30.7879 18.9172 30.7593 18.7915 30.7159 18.6749C30.6747 18.5584 30.6187 18.4567 30.5479 18.3698C30.477 18.2807 30.389 18.2121 30.2839 18.1641C30.1811 18.1138 30.0588 18.0887 29.9171 18.0887C29.7663 18.0887 29.6383 18.1207 29.5331 18.1847C29.428 18.2487 29.3412 18.3367 29.2726 18.4487C29.2063 18.5606 29.1572 18.6909 29.1252 18.8395C29.0932 18.988 29.0772 19.1469 29.0772 19.316ZM34.1395 21.27C33.8652 21.27 33.6172 21.2255 33.3956 21.1363C33.1762 21.0449 32.9887 20.9181 32.8333 20.7558C32.6802 20.5935 32.5625 20.4027 32.4802 20.1833C32.398 19.9639 32.3568 19.7274 32.3568 19.4737V19.3366C32.3568 19.0463 32.3991 18.7835 32.4837 18.5481C32.5682 18.3127 32.6859 18.1116 32.8368 17.9447C32.9876 17.7756 33.1659 17.6465 33.3716 17.5573C33.5772 17.4682 33.8001 17.4236 34.04 17.4236C34.3052 17.4236 34.5371 17.4682 34.736 17.5573C34.9348 17.6465 35.0994 17.7722 35.2296 17.9344C35.3622 18.0944 35.4605 18.2852 35.5244 18.5069C35.5907 18.7286 35.6239 18.9732 35.6239 19.2406V19.5937H32.7579V19.0006H34.808V18.9355C34.8034 18.7869 34.7737 18.6475 34.7188 18.5172C34.6663 18.3869 34.5851 18.2818 34.4754 18.2018C34.3657 18.1218 34.2195 18.0818 34.0366 18.0818C33.8995 18.0818 33.7772 18.1116 33.6698 18.171C33.5647 18.2281 33.4767 18.3115 33.4058 18.4212C33.335 18.5309 33.2801 18.6635 33.2413 18.8189C33.2047 18.972 33.1864 19.1446 33.1864 19.3366V19.4737C33.1864 19.6359 33.2081 19.7868 33.2516 19.9262C33.2973 20.0633 33.3636 20.1833 33.4504 20.2862C33.5373 20.389 33.6424 20.4701 33.7658 20.5296C33.8892 20.5867 34.0298 20.6153 34.1875 20.6153C34.3863 20.6153 34.5634 20.5753 34.7188 20.4953C34.8742 20.4153 35.0091 20.3022 35.1234 20.1559L35.5587 20.5775C35.4787 20.6941 35.3748 20.8061 35.2468 20.9135C35.1188 21.0186 34.9622 21.1043 34.7771 21.1706C34.5943 21.2369 34.3817 21.27 34.1395 21.27ZM37.2442 18.1984V21.2015H36.4181V17.4922H37.2065L37.2442 18.1984ZM38.379 17.4682L38.3721 18.2361C38.3218 18.227 38.267 18.2201 38.2076 18.2155C38.1504 18.211 38.0933 18.2087 38.0362 18.2087C37.8945 18.2087 37.7699 18.2293 37.6625 18.2704C37.5551 18.3092 37.4648 18.3664 37.3917 18.4418C37.3208 18.5149 37.266 18.6041 37.2271 18.7092C37.1883 18.8143 37.1654 18.932 37.1585 19.0623L36.97 19.076C36.97 18.8429 36.9928 18.6269 37.0386 18.4281C37.0843 18.2293 37.1528 18.0544 37.2442 17.9036C37.338 17.7527 37.4545 17.635 37.5939 17.5505C37.7356 17.4659 37.899 17.4236 38.0841 17.4236C38.1344 17.4236 38.1881 17.4282 38.2453 17.4373C38.3047 17.4465 38.3493 17.4568 38.379 17.4682Z" fill="black" fill-opacity="0.87"/>
<g clip-path="url(#clip0_4565_107908)">
<rect x="19.708" y="62.0746" width="167.513" height="3.51045" rx="1.75522" fill="#00695C" fill-opacity="0.2"/>
<circle cx="21.463" cy="63.8299" r="0.585075" fill="#00695C"/>
<circle cx="35.0812" cy="63.8299" r="0.585075" fill="#00695C"/>
<circle cx="48.7003" cy="63.8299" r="0.585075" fill="#00695C"/>
<circle cx="62.3185" cy="63.8299" r="0.585075" fill="#00695C"/>
<circle cx="75.9366" cy="63.8299" r="0.585075" fill="#00695C"/>
<circle cx="89.5548" cy="63.8299" r="0.585075" fill="#00695C"/>
<circle cx="103.173" cy="63.8299" r="0.585075" fill="#00695C"/>
<circle cx="116.791" cy="63.8299" r="0.585075" fill="#00695C"/>
<circle cx="130.41" cy="63.8299" r="0.585075" fill="#00695C"/>
<circle cx="144.028" cy="63.8299" r="0.585075" fill="#00695C"/>
<circle cx="157.647" cy="63.8299" r="0.585075" fill="#00695C"/>
<circle cx="171.265" cy="63.8299" r="0.585075" fill="#00695C"/>
<circle cx="184.883" cy="63.8299" r="0.585075" fill="#00695C"/>
<g clip-path="url(#clip1_4565_107908)">
<rect x="19.708" y="62.0746" width="84.8358" height="3.51045" rx="1.75522" fill="#00695C"/>
<rect x="61.833" y="62.0746" width="0.585075" height="3.51045" rx="0.292537" fill="#00695C"/>
</g>
</g>
<path d="M23.1504 72.2731V72.9707C23.1504 73.3457 23.1169 73.6621 23.0499 73.9198C22.9828 74.1774 22.8864 74.3848 22.7607 74.542C22.635 74.6991 22.4832 74.8133 22.3051 74.8845C22.1291 74.9536 21.9301 74.9882 21.708 74.9882C21.532 74.9882 21.3697 74.9662 21.2209 74.9222C21.0722 74.8782 20.9381 74.808 20.8187 74.7117C20.7014 74.6132 20.6008 74.4854 20.517 74.3283C20.4332 74.1712 20.3693 73.9805 20.3253 73.7563C20.2813 73.5322 20.2593 73.2703 20.2593 72.9707V72.2731C20.2593 71.8981 20.2928 71.5838 20.3599 71.3303C20.429 71.0769 20.5264 70.8736 20.6521 70.7207C20.7778 70.5657 20.9287 70.4546 21.1046 70.3876C21.2827 70.3206 21.4817 70.287 21.7017 70.287C21.8798 70.287 22.0432 70.309 22.192 70.353C22.3428 70.3949 22.4769 70.463 22.5942 70.5573C22.7115 70.6495 22.811 70.7731 22.8927 70.9281C22.9765 71.081 23.0404 71.2685 23.0844 71.4906C23.1284 71.7127 23.1504 71.9735 23.1504 72.2731ZM22.5659 73.065V72.1757C22.5659 71.9704 22.5533 71.7902 22.5282 71.6352C22.5052 71.478 22.4706 71.344 22.4245 71.2329C22.3784 71.1219 22.3197 71.0318 22.2485 70.9627C22.1794 70.8935 22.0987 70.8433 22.0065 70.8118C21.9165 70.7783 21.8149 70.7616 21.7017 70.7616C21.5635 70.7616 21.4409 70.7877 21.3341 70.8401C21.2272 70.8904 21.1371 70.9711 21.0638 71.0821C20.9926 71.1931 20.9381 71.3387 20.9004 71.5189C20.8627 71.6991 20.8438 71.918 20.8438 72.1757V73.065C20.8438 73.2703 20.8553 73.4515 20.8784 73.6087C20.9035 73.7658 20.9402 73.9019 20.9884 74.0172C21.0366 74.1303 21.0952 74.2235 21.1644 74.2969C21.2335 74.3702 21.3131 74.4247 21.4032 74.4603C21.4954 74.4938 21.597 74.5105 21.708 74.5105C21.8505 74.5105 21.9751 74.4833 22.082 74.4288C22.1888 74.3744 22.2778 74.2895 22.3491 74.1743C22.4224 74.057 22.4769 73.9072 22.5125 73.7249C22.5481 73.5406 22.5659 73.3206 22.5659 73.065Z" fill="black" fill-opacity="0.54"/>
<path d="M177.936 70.3247V74.9254H177.355V71.0507L176.183 71.478V70.9532L177.845 70.3247H177.936ZM182.664 72.2731V72.9707C182.664 73.3457 182.631 73.6621 182.564 73.9198C182.496 74.1774 182.4 74.3848 182.274 74.542C182.149 74.6991 181.997 74.8133 181.819 74.8845C181.643 74.9536 181.444 74.9882 181.222 74.9882C181.046 74.9882 180.883 74.9662 180.735 74.9222C180.586 74.8782 180.452 74.808 180.332 74.7117C180.215 74.6132 180.114 74.4854 180.031 74.3283C179.947 74.1712 179.883 73.9805 179.839 73.7563C179.795 73.5322 179.773 73.2703 179.773 72.9707V72.2731C179.773 71.8981 179.807 71.5838 179.874 71.3303C179.943 71.0769 180.04 70.8736 180.166 70.7207C180.292 70.5657 180.442 70.4546 180.618 70.3876C180.796 70.3206 180.995 70.287 181.215 70.287C181.393 70.287 181.557 70.309 181.706 70.353C181.856 70.3949 181.991 70.463 182.108 70.5573C182.225 70.6495 182.325 70.7731 182.406 70.9281C182.49 71.081 182.554 71.2685 182.598 71.4906C182.642 71.7127 182.664 71.9735 182.664 72.2731ZM182.08 73.065V72.1757C182.08 71.9704 182.067 71.7902 182.042 71.6352C182.019 71.478 181.984 71.344 181.938 71.2329C181.892 71.1219 181.833 71.0318 181.762 70.9627C181.693 70.8935 181.612 70.8433 181.52 70.8118C181.43 70.7783 181.329 70.7616 181.215 70.7616C181.077 70.7616 180.955 70.7877 180.848 70.8401C180.741 70.8904 180.651 70.9711 180.577 71.0821C180.506 71.1931 180.452 71.3387 180.414 71.5189C180.376 71.6991 180.357 71.918 180.357 72.1757V73.065C180.357 73.2703 180.369 73.4515 180.392 73.6087C180.417 73.7658 180.454 73.9019 180.502 74.0172C180.55 74.1303 180.609 74.2235 180.678 74.2969C180.747 74.3702 180.827 74.4247 180.917 74.4603C181.009 74.4938 181.111 74.5105 181.222 74.5105C181.364 74.5105 181.489 74.4833 181.596 74.4288C181.702 74.3744 181.792 74.2895 181.863 74.1743C181.936 74.057 181.991 73.9072 182.026 73.7249C182.062 73.5406 182.08 73.3206 182.08 73.065ZM186.431 72.2731V72.9707C186.431 73.3457 186.397 73.6621 186.33 73.9198C186.263 74.1774 186.167 74.3848 186.041 74.542C185.915 74.6991 185.763 74.8133 185.585 74.8845C185.409 74.9536 185.21 74.9882 184.988 74.9882C184.812 74.9882 184.65 74.9662 184.501 74.9222C184.352 74.8782 184.218 74.808 184.099 74.7117C183.981 74.6132 183.881 74.4854 183.797 74.3283C183.713 74.1712 183.649 73.9805 183.605 73.7563C183.561 73.5322 183.539 73.2703 183.539 72.9707V72.2731C183.539 71.8981 183.573 71.5838 183.64 71.3303C183.709 71.0769 183.807 70.8736 183.932 70.7207C184.058 70.5657 184.209 70.4546 184.385 70.3876C184.563 70.3206 184.762 70.287 184.982 70.287C185.16 70.287 185.323 70.309 185.472 70.353C185.623 70.3949 185.757 70.463 185.874 70.5573C185.992 70.6495 186.091 70.7731 186.173 70.9281C186.257 71.081 186.321 71.2685 186.365 71.4906C186.409 71.7127 186.431 71.9735 186.431 72.2731ZM185.846 73.065V72.1757C185.846 71.9704 185.833 71.7902 185.808 71.6352C185.785 71.478 185.751 71.344 185.705 71.2329C185.658 71.1219 185.6 71.0318 185.529 70.9627C185.459 70.8935 185.379 70.8433 185.287 70.8118C185.197 70.7783 185.095 70.7616 184.982 70.7616C184.844 70.7616 184.721 70.7877 184.614 70.8401C184.507 70.8904 184.417 70.9711 184.344 71.0821C184.273 71.1931 184.218 71.3387 184.18 71.5189C184.143 71.6991 184.124 71.918 184.124 72.1757V73.065C184.124 73.2703 184.135 73.4515 184.158 73.6087C184.184 73.7658 184.22 73.9019 184.268 74.0172C184.317 74.1303 184.375 74.2235 184.444 74.2969C184.514 74.3702 184.593 74.4247 184.683 74.4603C184.775 74.4938 184.877 74.5105 184.988 74.5105C185.131 74.5105 185.255 74.4833 185.362 74.4288C185.469 74.3744 185.558 74.2895 185.629 74.1743C185.702 74.057 185.757 73.9072 185.793 73.7249C185.828 73.5406 185.846 73.3206 185.846 73.065Z" fill="black" fill-opacity="0.54"/>
<circle cx="103.707" cy="63.9135" r="4.6806" fill="#00695C"/>
</g>
<defs>
<filter id="filter0_d_4565_107908" x="0.985419" y="0.159702" width="205.361" height="124.361" filterUnits="userSpaceOnUse" color-interpolation-filters="sRGB">
<feFlood flood-opacity="0" result="BackgroundImageFix"/>
<feColorMatrix in="SourceAlpha" type="matrix" values="0 0 0 0 0 0 0 0 0 0 0 0 0 0 0 0 0 0 127 0" result="hardAlpha"/>
<feOffset dy="2.3403"/>
<feGaussianBlur stdDeviation="2.3403"/>
<feComposite in2="hardAlpha" operator="out"/>
<feColorMatrix type="matrix" values="0 0 0 0 0 0 0 0 0 0 0 0 0 0 0 0 0 0 0.04 0"/>
<feBlend mode="normal" in2="BackgroundImageFix" result="effect1_dropShadow_4565_107908"/>
<feBlend mode="normal" in="SourceGraphic" in2="effect1_dropShadow_4565_107908" result="shape"/>
</filter>
<clipPath id="clip0_4565_107908">
<rect x="19.708" y="62.0746" width="167.513" height="3.51045" rx="1.75522" fill="white"/>
</clipPath>
<clipPath id="clip1_4565_107908">
<rect x="19.708" y="62.0746" width="84.8358" height="3.51045" rx="1.75522" fill="white"/>
</clipPath>
</defs>
</svg>
