<?xml version="1.0" encoding="UTF-8" standalone="no"?>
<svg version="1.1" id="Layer_1" xmlns="http://www.w3.org/2000/svg" xmlns:xlink="http://www.w3.org/1999/xlink" x="0px" y="0px"
	 height="320"
	 width="1452.9"
	 viewBox="546.5 212 1326.4 374" style="enable-background:new 546.5 212 1326.4 374;" xml:space="preserve">
<style type="text/css">
	.st0{fill:#FFFFFF;}
	.st1{fill:none;stroke:#63A7DB;stroke-linecap:round;stroke-miterlimit:10;}
</style>
<polygon class="st0" points="1081.4,307.6 1045.6,307.6 1045.6,407 1031,407 1031,307.6 995.2,307.6 995.2,295.5 1081.4,295.5 "/>
<path class="st0" d="M1081.4,307.6"/>
<path class="st0" d="M1110.1,334.1c6.3-7.7,14.5-11.5,24.5-11.5c17.5,0,26.4,9.9,26.5,29.6V407H1147v-54.8c-0.1-6-1.4-10.4-4.1-13.3
	c-2.7-2.8-6.8-4.3-12.5-4.3c-4.6,0-8.6,1.3-12.1,3.7c-3.5,2.4-6.2,5.7-8.1,9.6v59H1096V289.4h14.1L1110.1,334.1L1110.1,334.1z"/>
<path class="st0" d="M1110.1,334.1"/>
<rect x="1183.5" y="324.1" class="st0" width="14.1" height="82.8"/>
<path class="st0" d="M1182.4,302.2c0-2.3,0.7-4.3,2.1-5.8c1.4-1.6,3.6-2.4,6.3-2.4s4.8,0.8,6.3,2.4c1.4,1.6,2.1,3.6,2.1,5.8
	c0,2.3-0.7,4.2-2.1,5.8c-1.4,1.5-3.6,2.3-6.3,2.3s-4.8-0.8-6.3-2.3C1183.1,306.4,1182.4,304.5,1182.4,302.2L1182.4,302.2z"/>
<path class="st0" d="M1182.4,302.2"/>
<path class="st0" d="M1233.7,324.1l0.5,10.4c6.3-8,14.6-11.9,24.8-11.9c17.5,0,26.4,9.9,26.5,29.6V407h-14.1v-54.8
	c-0.1-6-1.4-10.4-4.1-13.3c-2.7-2.8-6.8-4.3-12.5-4.3c-4.6,0-8.6,1.3-12.1,3.7c-3.5,2.4-6.2,5.7-8.1,9.6v59h-14.3v-82.9H1233.7z"/>
<path class="st0" d="M1233.7,324.1"/>
<path class="st0" d="M1360.7,324.1l-0.7,9.2c-5.7-7.1-13.6-10.7-23.7-10.7c-9.9,0-17.8,3.9-23.8,11.5c-6,7.6-8.9,17.8-8.9,30.8
	c0,13.5,3,24.1,8.9,31.9c6,7.8,13.9,11.7,23.6,11.7c9.8,0,17.5-3.2,23.2-9.8v7.1c0,7-2,12.5-5.8,16.4c-3.9,3.9-9.2,5.8-16.1,5.8
	c-8.8,0-16.2-3.8-22.3-11.3l-7.3,8.5c3,4.4,7.3,8,13.1,10.5c5.7,2.5,11.5,3.8,17.5,3.8c10.7,0,19.3-3.1,25.6-9.2
	c6.4-6.2,9.6-14.6,9.6-25.3v-80.9H1360.7z M1359.3,384.4c-4.2,8.1-10.7,12.2-19.7,12.2c-6.9,0-12.2-2.7-16.1-8
	c-3.8-5.4-5.8-12.7-5.8-22c0-10.5,2-18.5,5.8-23.8s9.2-8.1,16.2-8.1c8.7,0,15.2,3.9,19.5,11.8L1359.3,384.4L1359.3,384.4z"/>
<path class="st0" d="M1443.1,385c0-3.8-1.4-6.8-4.3-8.8c-2.8-2.1-7.9-3.9-15.1-5.5c-7.2-1.5-12.9-3.4-17.1-5.5
	c-4.2-2.1-7.3-4.7-9.3-7.7c-2-3-3-6.5-3-10.6c0-6.8,2.8-12.6,8.6-17.2c5.8-4.7,13.1-7,22-7c9.4,0,17,2.4,22.8,7.3
	c5.8,4.8,8.8,11.1,8.8,18.6h-14.2c0-3.9-1.7-7.3-5-10c-3.2-2.8-7.4-4.2-12.4-4.2c-5.1,0-9.2,1.1-12.1,3.4c-2.9,2.2-4.3,5.2-4.3,8.8
	c0,3.4,1.3,6,4,7.7s7.6,3.4,14.6,5c7.1,1.6,12.9,3.5,17.2,5.7c4.4,2.2,7.7,4.8,9.7,8c2.1,3.1,3.2,6.8,3.2,11.3
	c0,7.4-3,13.3-8.8,17.8c-5.9,4.4-13.6,6.6-23.1,6.6c-6.6,0-12.5-1.2-17.6-3.6c-5.1-2.4-9.1-5.6-12-9.8c-2.8-4.3-4.3-8.8-4.3-13.7
	h14.1c0.2,4.7,2.1,8.5,5.7,11.4c3.6,2.8,8.3,4.1,14.1,4.1c5.4,0,9.6-1.1,12.9-3.2C1441.5,391.6,1443.1,388.6,1443.1,385L1443.1,385z
	"/>
<path class="st0" d="M1338.7,380"/>
<g>
	<path class="st0" d="M1534.4,348.4c5.1-2.2,9.2-5.3,12.1-9.2c2.9-4,4.4-8.7,4.4-13.9c0-9.8-3.1-17.2-9.2-22.2
		c-6.1-5-15.2-7.5-27.2-7.5H1478V407h38.7c11.8,0,21-2.8,27.5-8.6c6.5-5.7,9.7-13.6,9.7-23.6c0-6.6-1.7-12.2-5.3-16.8
		C1545.1,353.3,1540.4,350,1534.4,348.4z M1492.7,307.6h21.7c7.3,0,12.7,1.4,16.3,4.2c3.6,2.8,5.4,7.2,5.4,13.3
		c0,5.5-2,9.9-5.8,13.1c-3.9,3.2-8.9,4.8-15.4,4.8h-22.2V307.6z M1533.1,389.7c-3.9,3.6-9.3,5.3-16.2,5.3h-24.2v-40.1h24.5
		c14.6,0,21.9,6.7,21.9,20.1C1539.1,381.2,1537.1,386.1,1533.1,389.7z"/>
	<path class="st0" d="M1634.7,334.3c-6.9-7.8-16-11.7-27.3-11.7c-7.3,0-13.8,1.7-19.5,5.3s-10.1,8.5-13.3,15
		c-3.2,6.5-4.7,13.8-4.7,21.9v1c0,12.9,3.5,23.2,10.4,31c7,7.8,16.1,11.7,27.3,11.7c7.4,0,14.1-1.8,19.7-5.4
		c5.8-3.6,10.2-8.5,13.3-14.9c3.1-6.4,4.7-13.7,4.7-21.7v-1C1645.2,352.5,1641.7,342.1,1634.7,334.3z M1624.7,388.6
		c-4.3,5.6-10,8.4-17.1,8.4c-7.2,0-12.9-2.8-17.1-8.4c-4.3-5.5-6.4-13-6.4-22.1c0-10.3,2.1-18.3,6.4-23.9c4.3-5.6,10-8.4,16.9-8.4
		c7.2,0,12.9,2.8,17.1,8.5c4.3,5.6,6.5,13,6.5,22C1631,375,1628.9,382.9,1624.7,388.6z"/>
</g>
<path class="st0" d="M1788.4,336.8"/>
<g>
	<path class="st0" d="M1726.1,349.5c-0.2-8.4-3-14.9-8.4-19.7c-5.4-4.8-12.9-7.2-22.4-7.2c-6,0-11.5,1.1-16.6,3.4
		c-5,2.2-9,5.3-11.9,9.2c-2.9,3.9-4.3,7.8-4.3,11.9h14.2c0-3.6,1.7-6.7,5.1-9.2c3.4-2.5,7.7-3.8,12.7-3.8c5.8,0,10.1,1.5,13.1,4.4
		c3,2.9,4.4,6.9,4.4,11.8v6.5h-13.8c-11.9,0-21.2,2.4-27.7,7.2c-6.6,4.7-9.8,11.5-9.8,20.1c0,7.1,2.6,13,7.8,17.6
		c5.3,4.6,12,6.9,20.1,6.9c9.2,0,17-3.4,23.6-10.3c0.5,4.2,1.2,7.1,2,8.8h14.8v-1.3c-2-4.5-2.9-10.6-2.9-18.2L1726.1,349.5
		L1726.1,349.5z M1711.9,383.8c-1.8,3.7-4.7,6.6-8.7,8.9c-3.9,2.3-8.2,3.5-12.6,3.5c-4.7,0-8.4-1.3-11.4-3.8c-3-2.5-4.4-6-4.4-10.4
		c0-10.2,8.7-15.2,26.1-15.2h11.1L1711.9,383.8L1711.9,383.8z"/>
	<path class="st0" d="M1762.5,333.7l-0.2-9.6h-13.8V407h14.1v-58.8c3.3-7.9,9.6-11.8,19-11.8c2.5,0,4.8,0.2,6.9,0.6v-13.2
		c-1.4-0.7-3.6-1.1-6.3-1.1C1773.7,322.6,1767,326.3,1762.5,333.7z"/>
	<path class="st0" d="M1853.8,289.4v43.2c-5.7-6.6-13.3-10-23.1-10c-9.7,0-17.6,3.9-23.7,11.6c-6,7.7-9,17.9-9,30.6v1.1
		c0,12.6,3,22.9,9,30.8c6.1,7.9,13.9,11.8,23.5,11.8c10.1,0,18-3.5,23.7-10.4l0.7,8.8h13V289.4H1853.8z M1853.8,384.4
		c-4.1,8.1-10.7,12.1-19.7,12.1c-6.9,0-12.2-2.7-16.1-8c-3.9-5.3-5.8-12.6-5.8-22c0-10.5,2-18.5,5.8-23.8s9.3-8.1,16.3-8.1
		c8.8,0,15.3,3.9,19.5,11.7L1853.8,384.4L1853.8,384.4z"/>
</g>
<g>
	<path class="st0" d="M1693.6,515.3h-38v-71.7h36.4v7.6h-28V475h25.9v7.5H1664v25.1h29.6V515.3z"/>
	<path class="st0" d="M1749.9,515.3h-8.2v-8.7h-0.2c-3.8,6.6-9.7,9.9-17.6,9.9c-6.4,0-11.6-2.3-15.4-6.9c-3.8-4.6-5.8-10.8-5.8-18.7
		c0-8.5,2.1-15.2,6.4-20.3s9.9-7.6,17-7.6c7,0,12.1,2.8,15.3,8.3h0.2v-31.7h8.2L1749.9,515.3L1749.9,515.3z M1741.7,492.1v-7.5
		c0-4.1-1.4-7.6-4.1-10.5c-2.7-2.9-6.2-4.3-10.4-4.3c-5,0-8.9,1.8-11.8,5.5s-4.3,8.7-4.3,15.2c0,5.9,1.4,10.6,4.1,14
		s6.4,5.1,11.1,5.1c4.6,0,8.3-1.6,11.1-4.9S1741.7,497.1,1741.7,492.1z"/>
	<path class="st0" d="M1810.2,511.1c0,18.8-9,28.2-27,28.2c-6.3,0-11.9-1.2-16.6-3.6v-8.2c5.8,3.2,11.3,4.8,16.5,4.8
		c12.6,0,18.9-6.7,18.9-20.1v-5.6h-0.2c-3.9,6.5-9.8,9.8-17.6,9.8c-6.4,0-11.5-2.3-15.4-6.8s-5.8-10.7-5.8-18.3
		c0-8.7,2.1-15.6,6.3-20.7c4.2-5.1,9.9-7.7,17.2-7.7c6.9,0,12,2.8,15.3,8.3h0.2v-7.1h8.2V511.1z M1802,492.1v-7.5
		c0-4.1-1.4-7.5-4.1-10.4c-2.7-2.9-6.2-4.3-10.3-4.3c-5.1,0-9,1.8-11.9,5.5s-4.3,8.8-4.3,15.5c0,5.7,1.4,10.3,4.1,13.7
		c2.7,3.4,6.4,5.1,10.9,5.1c4.6,0,8.3-1.6,11.2-4.9C1800.6,501.4,1802,497.3,1802,492.1z"/>
	<path class="st0" d="M1867.9,491.8h-36.1c0.1,5.7,1.7,10.1,4.6,13.2s7,4.6,12.1,4.6c5.8,0,11.1-1.9,15.9-5.7v7.7
		c-4.5,3.3-10.4,4.9-17.8,4.9c-7.2,0-12.9-2.3-17-7c-4.1-4.6-6.2-11.2-6.2-19.6c0-8,2.3-14.4,6.8-19.5c4.5-5,10.1-7.5,16.8-7.5
		c6.7,0,11.9,2.2,15.5,6.5c3.7,4.3,5.5,10.3,5.5,18v4.4H1867.9z M1859.5,484.8c0-4.7-1.2-8.4-3.4-11c-2.2-2.6-5.4-3.9-9.4-3.9
		c-3.9,0-7.1,1.4-9.8,4.1c-2.7,2.8-4.4,6.4-5,10.8H1859.5z"/>
</g>
<path class="st0" d="M907.6,445.6c-8.7,0-16,6.6-17,15h-34.7l-19.3-19.3c0.6-1,0.9-2.3,0.9-3.6l0,0c-0.1-1.7-0.7-3.3-1.9-4.6
	c-4.4-4.6-13.3-13.3-16.6-16.6l20.3-20.3c3.3-3.3,3.3-8.6,0-11.7L824,369.4l0,0c2-2,11.3-11.3,16.4-16.4c1.3-1.3,1.9-3,1.9-4.9
	c0-1-0.1-2-0.6-2.9l9.7-9.7H890c1,8.6,8.3,15.3,17.2,15.3c9.4,0,17.2-7.7,17.2-17.2c0-9.4-7.7-17.2-17.2-17.2
	c-8.6,0-15.7,6.4-17,14.7h-39.9c-0.7,0-1.3,0.4-1.6,0.9l-10.2,10.2c-1-0.4-2.1-0.7-3.3-0.7c-1.7,0.1-3.3,0.7-4.6,1.9
	c-5,5-14.6,14.6-16.6,16.6l-16.3-16.3c2.4-2.4,11.4-11.4,16.4-16.4c1.3-1.3,1.9-3,1.9-4.9c0-1-0.3-2-0.6-2.9l12.6-12.6
	c0.1-0.1,0.3-0.4,0.4-0.6c0.1-0.3,0.3-0.4,0.3-0.7v-50c8.4-1.1,15-8.3,15-17c0-9.4-7.7-17.2-17.2-17.2s-17.2,7.7-17.2,17.2
	c0,8.7,6.6,16,15,17v48.6l-12,11.9c-1-0.4-2.1-0.7-3.3-0.7c-1.7,0.1-3.3,0.7-4.6,1.9c-4.9,4.7-14,14-16.6,16.6L773.7,319
	c-3.3-3.3-8.6-3.3-11.7,0l-20.3,20.3c0,0-10.6-10.6-16.4-16.4c-1.3-1.3-3-1.9-4.9-1.9c-1,0-2,0.3-2.9,0.7l-22.9-23v-43
	c8.4-1.1,15-8.3,15-17c0-9.4-7.7-17.2-17.2-17.2c-9.4,0-17.2,7.7-17.2,17.2c0,8.7,6.6,16,15,17v43.7c0,0,0,0,0,0.1
	c0,0.6,0.1,1.3,0.6,1.7l23.6,23.6c-0.4,1-0.7,2-0.6,3.1c0.1,1.7,0.7,3.3,1.9,4.6c4.7,4.9,14,14,16.6,16.6l-21.3,21.3l0,0
	c-2.4-2.4-10.7-10.7-15.7-15.7c-1.3-1.3-3-1.9-4.9-1.9c-1.1,0-2.3,0.3-3.3,0.9l-21.4-21.3c-0.3-0.6-0.9-1-1.6-1h-36.5
	c-1.1-8.4-8.3-15-17-15c-9.4,0-17.2,7.7-17.2,17.2s7.7,17.2,17.2,17.2c8.7,0,16-6.6,17-15h35.2l21.3,21.2c-0.3,0.9-0.6,1.9-0.4,2.9
	c0.1,1.7,0.7,3.3,1.9,4.6c4.7,4.7,13.4,13.4,15.9,15.9l-20.3,20.3c-3.3,3.3-3.3,8.6,0,11.7l14.9,14.9l0,0
	c-3.3,3.3-11.9,11.9-16.4,16.4c-1.3,1.3-1.9,3-1.9,4.9c0,1,0.1,1.9,0.6,2.6l-9.9,9.9h-40.6c-1.1-8.4-8.3-15-17-15
	c-9.4,0-17.2,7.7-17.2,17.2s7.7,17.2,17.2,17.2c8.7,0,16-6.6,17-15H670c0.6,0,1-0.4,1.3-1.1l10-9.9c1,0.6,2.1,0.9,3.4,0.9
	c1.7-0.1,3.3-0.7,4.6-1.9c4.4-4.4,13.2-13.2,16.6-16.6l16.3,16.3l0,0c-3.1,3.1-11.7,11.7-16.4,16.4c-1.3,1.3-1.9,3-1.9,4.9
	c0,1,0.1,1.9,0.6,2.7l-12.7,12.7c-0.6,0.3-1,0.7-1,1.3v53c-8.4,1.1-15,8.3-15,17c0,9.4,7.7,17.2,17.2,17.2s17.2-7.7,17.2-17.2
	c0-8.7-6.6-16-15-17v-51.5l12.4-12.3c1,0.4,2.1,0.7,3.3,0.7c1.7-0.1,3.3-0.7,4.6-1.9c4.6-4.4,13.3-13.3,16.6-16.6l15.3,15.3
	c3.3,3.3,8.6,3.3,11.7,0l20.3-20.3c3.3,3.3,11.7,11.7,16.4,16.4c1.3,1.3,3,1.9,4.9,1.9c1,0,2-0.3,2.9-0.6l22.2,22v44.6
	c-8.4,1.1-15,8.3-15,17c0,9.4,7.7,17.2,17.2,17.2c9.4,0,17.2-7.7,17.2-17.2c0-8.7-6.6-16-15-17v-46c0-0.6-0.4-1.1-1-1.4l-22.3-22.3
	c0.4-1,0.7-2.1,0.7-3.3l0,0c-0.1-1.7-0.7-3.3-1.9-4.6c-4.4-4.6-13.3-13.3-16.6-16.6l21.3-21.3c3.1,3.1,11.7,11.7,16.4,16.4
	c1.3,1.3,3,1.9,4.9,1.9c0.9,0,1.7-0.1,2.4-0.4l19.9,19.9c0.4,0.6,1,0.9,1.6,0.9h35.9c1.1,8.4,8.3,15,17,15c9.4,0,17.2-7.7,17.2-17.2
	C924.9,453.3,917.2,445.6,907.6,445.6z M907.3,320.8c7,0,12.7,5.7,12.7,12.7s-5.7,12.7-12.7,12.7s-12.7-5.7-12.7-12.7
	S900.3,320.8,907.3,320.8z M814.3,238.6c0-7,5.7-12.7,12.7-12.7c7,0,12.7,5.7,12.7,12.7c0,7-5.7,12.7-12.7,12.7
	C820,251.3,814.3,245.6,814.3,238.6z M679.5,238.5c0-7,5.7-12.7,12.7-12.7s12.7,5.7,12.7,12.7s-5.7,12.7-12.7,12.7
	S679.5,245.5,679.5,238.5z M610.1,346c-7,0-12.7-5.7-12.7-12.7s5.7-12.7,12.7-12.7c7,0,12.7,5.7,12.7,12.7S617.1,346,610.1,346z
	 M610.1,475.6c-7,0-12.7-5.7-12.7-12.7s5.7-12.7,12.7-12.7c7,0,12.7,5.7,12.7,12.7S617.1,475.6,610.1,475.6z M704.9,561
	c0,7-5.7,12.7-12.7,12.7s-12.7-5.7-12.7-12.7c0-7,5.7-12.7,12.7-12.7S704.9,554,704.9,561z M839.7,558.8c0,7-5.7,12.7-12.7,12.7
	s-12.7-5.7-12.7-12.7c0-7,5.7-12.7,12.7-12.7S839.7,551.8,839.7,558.8z M791,370.1c-1.6,3-5,4.4-8.1,3.6l5,19.4
	c0.9,3.6-1.3,7.3-4.9,8.4l-5.7,1.7l-0.1,0.1l-30.5,9.3l6.7,25.9c0.4,1.4,0.3,2.9-0.3,4.1c-0.7,2.1-2.4,3.9-4.7,4.6
	c-2.7,0.9-5.3,0-6.9-2l0.1-0.1c-0.6-0.7-1.1-1.6-1.4-2.6l-0.4-1.9l-0.1,0.1l-7.9-30.5c-0.4-1.7-0.1-3.6,0.7-5.1l0,0
	c0.9-1.6,2.3-2.9,4.3-3.4l36.3-11.2l-2.4-9.3l0.1,0.1l-1-4c-0.4,0.6-1,1-1.6,1.3l0,0c-0.1,0-0.1,0.1-0.3,0.1l0,0
	c-2.1,1.1-4.7,1.3-6.7,0c-1.1-0.7-1.9-1.7-2.4-2.7l0.1-0.1c-0.7-1.6-0.9-3.6,0-5.4l2.3-5.4l0,0l4.3-10.3c0.3-0.9,0.9-1.6,1.6-2.3
	c1.4-1.4,3.3-2.1,5.1-2.1l0,0l0,0c1.3,0,2.7,0.4,3.7,1.3l13.4,9.9c1.6,1.1,2.6,3,2.6,5C791.8,367.8,791.5,369,791,370.1z
	 M907.6,475.6c-7,0-12.7-5.7-12.7-12.7s5.7-12.7,12.7-12.7s12.7,5.7,12.7,12.7C920.4,469.9,914.6,475.6,907.6,475.6z"/>
<g id="XMLID_192_">
	<path id="XMLID_125_" class="st1" d="M522.1,427.5"/>
</g>
<g id="XMLID_203_">
	<path id="XMLID_85_" class="st1" d="M546.5,373"/>
</g>
<g id="XMLID_196_">
	<path id="XMLID_83_" class="st1" d="M546.5,366.8"/>
</g>
</svg>
