<svg width="415" height="415" viewBox="0 0 415 415" fill="none" xmlns="http://www.w3.org/2000/svg">
<path fill-rule="evenodd" clip-rule="evenodd" d="M84.9923 122.83C83.5003 124.388 82.626 126.54 82.7347 128.901C82.8309 130.946 83.6479 132.922 85.0719 134.419C91.877 141.275 135.295 184.642 135.295 184.642L147.14 172.813C147.14 172.813 104.167 129.852 96.9635 122.642C95.3596 121.01 93.2138 120.328 90.9515 120.318C88.5932 120.307 86.4843 121.272 84.9923 122.83ZM147.14 172.813L110.5 209.452C106.525 213.428 106.525 219.873 110.5 223.849L128.657 242.006L160.41 273.759L190.887 304.236C194.863 308.212 201.309 308.213 205.285 304.236L230.077 279.445L267.991 241.531L304.63 204.892C308.606 200.915 308.605 194.469 304.63 190.493L286 171.865L254.247 140.112L224.242 110.107C220.266 106.132 213.821 106.132 209.845 110.107L185.054 134.899L147.14 172.813ZM185.054 134.899C185.054 134.899 142.081 91.9375 134.878 84.7281C133.274 83.0956 131.128 82.414 128.866 82.4038C124.149 82.3812 120.431 86.2653 120.649 90.9872C120.745 93.0319 121.562 95.0076 122.986 96.5049C129.791 103.361 173.209 146.728 173.209 146.728L185.054 134.899ZM254.247 140.112C254.247 140.112 267.208 127.139 274.417 119.936C276.05 118.332 276.732 116.186 276.742 113.924C276.764 109.207 272.88 105.49 268.158 105.707C266.114 105.803 264.138 106.62 262.641 108.044C255.785 114.849 242.417 128.267 242.417 128.267L254.247 140.112ZM286 171.865C286 171.865 298.961 158.892 306.171 151.689C307.803 150.085 308.485 147.939 308.495 145.677C308.517 140.96 304.633 137.243 299.911 137.46C297.867 137.556 295.891 138.373 294.394 139.797C287.538 146.602 274.17 160.02 274.17 160.02L286 171.865ZM267.991 241.531C267.991 241.531 310.964 284.493 318.169 291.701C319.773 293.333 321.918 294.015 324.181 294.025C328.897 294.047 332.615 290.163 332.398 285.441L332.396 285.443C332.299 283.399 331.481 281.422 330.057 279.925C323.252 273.069 279.835 229.702 279.835 229.702L267.991 241.531ZM230.077 279.445C230.077 279.445 273.05 322.407 280.255 329.615C281.859 331.247 284.004 331.929 286.267 331.939C290.983 331.962 294.701 328.077 294.484 323.356H294.482C294.385 321.311 293.568 319.335 292.144 317.838C285.339 310.982 241.921 267.614 241.921 267.614L230.077 279.445ZM160.41 273.759C160.41 273.759 147.449 286.732 140.241 293.937C138.608 295.541 137.927 297.687 137.917 299.949C137.894 304.665 141.778 308.383 146.5 308.166H146.498C148.543 308.07 150.519 307.253 152.016 305.828C158.872 299.024 172.239 285.605 172.239 285.605L160.41 273.759ZM128.657 242.006C128.657 242.006 115.695 254.979 108.488 262.184C106.855 263.788 106.174 265.934 106.164 268.196C106.141 272.912 110.025 276.63 114.747 276.413H114.745C116.79 276.317 118.766 275.499 120.263 274.075C127.119 267.271 140.486 253.852 140.486 253.852L128.657 242.006ZM215.893 151.452C217.573 149.745 219.86 148.792 222.19 148.826C223.853 148.849 225.443 149.376 226.753 150.335L243.251 162.435C246.452 164.732 247.396 169.094 245.482 172.747C243.568 176.4 239.359 178.271 235.531 177.17L241.655 201.118C242.768 205.469 240.091 210.085 235.672 211.435L191.031 225.066L199.276 256.948C200.449 261.318 197.774 265.993 193.322 267.355C188.869 268.718 184.346 266.245 183.253 261.851L172.971 222.082C171.845 217.726 174.521 213.097 178.947 211.744L223.608 198.107L219.486 181.988C216.723 185.053 212.253 185.797 208.9 183.75C205.547 181.703 204.286 177.46 205.914 173.703L214.031 154.249C214.464 153.211 215.098 152.26 215.893 151.452Z" fill="#83ACBE"/>
<path fill-rule="evenodd" clip-rule="evenodd" d="M163.17 44.5864C163.17 44.5864 130.209 77.5595 123 84.7625C121.367 86.3665 120.686 88.5122 120.676 90.7745C120.653 95.4911 124.537 99.2087 129.259 98.9914C131.304 98.8952 133.279 98.0782 134.777 96.6541C141.633 89.849 175 56.4309 175 56.4309L163.17 44.5864Z" fill="#83ACBE"/>
<path fill-rule="evenodd" clip-rule="evenodd" d="M56.8296 174.714C56.8296 174.714 89.7907 141.741 97.0002 134.538C98.6327 132.934 99.3142 130.788 99.3244 128.526C99.3469 123.809 95.4629 120.092 90.741 120.309C88.6963 120.405 86.7206 121.222 85.2233 122.646C78.3674 129.451 45 162.87 45 162.87L56.8296 174.714Z" fill="#83ACBE"/>
<circle cx="183.5" cy="36.5" r="28" stroke="#83ACBE" stroke-width="17"/>
<circle cx="36.5" cy="183.5" r="28" stroke="#83ACBE" stroke-width="17"/>
<path fill-rule="evenodd" clip-rule="evenodd" d="M358.17 239.586C358.17 239.586 325.209 272.56 318 279.763C316.367 281.367 315.686 283.512 315.676 285.775C315.653 290.491 319.537 294.209 324.259 293.991C326.304 293.895 328.279 293.078 329.777 291.654C336.633 284.849 370 251.431 370 251.431L358.17 239.586Z" fill="#83ACBE"/>
<path fill-rule="evenodd" clip-rule="evenodd" d="M251.83 369.714C251.83 369.714 284.791 336.741 292 329.538C293.633 327.934 294.314 325.788 294.324 323.526C294.347 318.809 290.463 315.092 285.741 315.309C283.696 315.405 281.721 316.222 280.223 317.646C273.367 324.451 240 357.87 240 357.87L251.83 369.714Z" fill="#83ACBE"/>
<circle cx="378.5" cy="231.5" r="28" stroke="#83ACBE" stroke-width="17"/>
<circle cx="231.5" cy="378.5" r="28" stroke="#83ACBE" stroke-width="17"/>
</svg>
