<svg width="1542" height="438" viewBox="0 0 1542 438" fill="none" xmlns="http://www.w3.org/2000/svg">
<path fill-rule="evenodd" clip-rule="evenodd" d="M172.446 68.6024C191.39 68.6024 206.747 53.2452 206.747 34.3012C206.747 15.3572 191.39 0 172.446 0C153.502 0 138.145 15.3572 138.145 34.3012C138.145 40.8253 139.966 46.9239 143.128 52.1164C133.461 61.7863 119.817 75.4335 115.59 79.6562C114.83 80.4031 114.289 81.2751 113.936 82.2234C113.529 83.2284 113.327 84.3401 113.381 85.5062C113.398 85.8671 113.439 86.2255 113.503 86.5793C113.791 88.3957 114.707 89.9883 116.02 91.1374C123.652 98.8121 162.775 137.889 162.775 137.889L162.849 137.815L162.856 137.822L138.276 162.402C138.276 162.402 97.8915 122.029 91.1224 115.254C90.2415 114.358 89.1865 113.766 88.0375 113.428C87.174 113.149 86.2432 113.017 85.2747 113.062C85.1503 113.067 85.0262 113.076 84.9025 113.088C82.9175 113.221 81.153 114.093 79.8723 115.431C79.7528 115.556 79.6375 115.684 79.5266 115.817C74.842 120.476 61.5361 133.79 52.1727 143.163C46.968 139.979 40.8489 138.145 34.3011 138.145C15.3572 138.145 0 153.502 0 172.446C0 191.39 15.3572 206.747 34.3011 206.747C53.2452 206.747 68.6024 191.39 68.6024 172.446C68.6024 165.751 66.6843 159.504 63.3677 154.224C70.3281 147.262 79.4419 138.146 85.5986 131.99C98.7158 145.124 127.145 173.519 127.145 173.519L127.169 173.495L127.176 173.502L103.844 196.835C100.108 200.571 100.108 206.628 103.844 210.365L120.906 227.427C120.906 227.427 108.726 239.619 101.953 246.39C100.418 247.897 99.7778 249.914 99.7682 252.04C99.7471 256.472 103.397 259.966 107.835 259.761H107.833C109.754 259.671 111.611 258.903 113.018 257.565C119.461 251.17 132.023 238.56 132.023 238.56L132.006 238.543L132.015 238.536L150.746 257.268C150.746 257.268 138.566 269.459 131.793 276.23C130.259 277.737 129.618 279.754 129.608 281.88C129.587 286.312 133.237 289.806 137.675 289.602H137.673C139.594 289.511 141.451 288.743 142.858 287.405C149.301 281.01 161.863 268.4 161.863 268.4L161.778 268.315L161.787 268.308L179.388 285.909C183.124 289.646 189.182 289.646 192.919 285.909L216.217 262.611C216.217 262.611 244.541 290.928 257.725 304.111C251.568 310.26 242.402 319.432 235.425 326.416C230.221 323.232 224.102 321.398 217.554 321.398C198.61 321.398 183.253 336.755 183.253 355.699C183.253 374.643 198.61 390 217.554 390C236.498 390 251.855 374.643 251.855 355.699C251.855 349.004 249.937 342.757 246.621 337.477C255.803 328.292 268.733 315.359 273.678 310.418C275.643 308.947 276.867 306.555 276.744 303.876H276.742C276.651 301.955 275.884 300.098 274.545 298.691C268.15 292.248 227.347 251.493 227.347 251.493L227.337 251.504L227.331 251.497L251.847 226.981C251.847 226.981 290.854 265.979 298.623 273.75C298.831 273.981 299.053 274.199 299.287 274.403C300.132 275.17 301.117 275.683 302.18 275.982C302.623 276.111 303.082 276.201 303.554 276.249C303.915 276.29 304.282 276.311 304.652 276.313C307.349 276.326 309.699 274.979 311.079 272.923C316.144 267.88 328.464 255.552 337.422 246.586C342.713 249.924 348.98 251.856 355.699 251.856C374.643 251.856 390 236.498 390 217.554C390 198.61 374.643 183.253 355.699 183.253C336.755 183.253 321.398 198.61 321.398 217.554C321.398 224.078 323.219 230.177 326.381 235.37C319.469 242.284 310.524 251.231 304.442 257.313C291.289 244.143 262.978 215.865 262.978 215.865L262.921 215.921L262.914 215.914L286.279 192.549C290.015 188.812 290.015 182.754 286.278 179.018L268.771 161.512C268.771 161.512 280.951 149.32 287.727 142.551C289.261 141.044 289.901 139.027 289.911 136.901C289.932 132.469 286.282 128.975 281.844 129.179C279.923 129.27 278.066 130.037 276.659 131.376C270.216 137.771 257.654 150.381 257.654 150.381L257.744 150.471L257.737 150.478L238.931 131.671C238.931 131.671 251.111 119.48 257.886 112.711C259.421 111.203 260.061 109.187 260.071 107.061C260.092 102.628 256.442 99.1349 252.004 99.3391C250.083 99.4295 248.226 100.197 246.819 101.536C240.376 107.931 227.814 120.541 227.814 120.541L227.889 120.616L227.882 120.622L210.734 103.474C206.997 99.7389 200.94 99.7389 197.204 103.474L173.906 126.772C173.906 126.772 145.463 98.3375 132.317 85.1898C138.354 79.1598 147.261 70.247 154.169 63.3328C159.46 66.6709 165.727 68.6024 172.446 68.6024ZM172.446 51.6024C182.001 51.6024 189.747 43.8564 189.747 34.3012C189.747 24.746 182.001 17 172.446 17C162.891 17 155.145 24.746 155.145 34.3012C155.145 43.8564 162.891 51.6024 172.446 51.6024ZM202.888 142.328C204.466 140.725 206.615 139.829 208.805 139.86C210.368 139.883 211.862 140.377 213.093 141.279L228.598 152.65C231.606 154.809 232.492 158.908 230.694 162.341C228.896 165.773 224.939 167.532 221.343 166.497L227.098 189.002C228.144 193.092 225.628 197.43 221.475 198.698L179.523 211.508L187.272 241.47C188.374 245.576 185.86 249.969 181.676 251.25C177.491 252.53 173.241 250.206 172.214 246.077L162.552 208.703C161.493 204.61 164.007 200.26 168.167 198.988L210.138 186.173L206.264 171.025C203.668 173.905 199.467 174.604 196.316 172.681C193.165 170.757 191.979 166.77 193.51 163.239L201.137 144.957C201.545 143.982 202.14 143.088 202.888 142.328ZM51.6024 172.446C51.6024 182.001 43.8564 189.747 34.3011 189.747C24.746 189.747 17 182.001 17 172.446C17 162.891 24.746 155.145 34.3011 155.145C43.8564 155.145 51.6024 162.891 51.6024 172.446ZM355.699 234.856C365.254 234.856 373 227.11 373 217.554C373 207.999 365.254 200.253 355.699 200.253C346.144 200.253 338.398 207.999 338.398 217.554C338.398 227.11 346.144 234.856 355.699 234.856ZM234.855 355.699C234.855 365.254 227.109 373 217.554 373C207.999 373 200.253 365.254 200.253 355.699C200.253 346.144 207.999 338.398 217.554 338.398C227.109 338.398 234.855 346.144 234.855 355.699Z" fill="white"/>
<path d="M538.278 134.644H492.628V261.253H473.996V134.644H428.449V119.231H538.278V134.644Z" fill="white"/>
<path d="M574.757 168.482C582.755 158.666 593.157 153.758 605.965 153.758C628.27 153.758 639.52 166.341 639.715 191.507V261.249H621.669V191.409C621.604 183.801 619.849 178.176 616.402 174.535C613.021 170.893 607.721 169.072 600.503 169.072C594.65 169.072 589.513 170.633 585.091 173.755C580.669 176.876 577.223 180.973 574.751 186.045V261.25H556.711V111.421H574.757V168.482Z" fill="white"/>
<path d="M686.348 261.254H668.299V155.712H686.348V261.254Z" fill="white"/>
<path d="M666.832 127.716C666.832 124.79 667.71 122.319 669.466 120.303C671.287 118.287 673.953 117.279 677.464 117.279C680.976 117.279 683.642 118.287 685.463 120.303C687.284 122.319 688.194 124.79 688.194 127.716C688.194 130.643 687.284 133.081 685.463 135.032C683.642 136.983 680.976 137.958 677.464 137.958C673.953 137.958 671.287 136.983 669.466 135.032C667.711 133.081 666.834 130.643 666.834 127.716H666.832Z" fill="white"/>
<path d="M732.771 168.977L732.186 155.712L732.185 155.71H715.115V261.252H733.16V186.047C735.632 180.975 739.078 176.878 743.5 173.756C747.922 170.635 753.059 169.074 758.912 169.074C766.13 169.074 771.43 170.895 774.811 174.537C778.258 178.178 780.013 183.803 780.078 191.411V261.251H798.124V191.509C797.929 166.343 786.679 153.76 764.374 153.76C751.369 153.76 740.834 158.832 732.771 168.977Z" fill="white"/>
<path fill-rule="evenodd" clip-rule="evenodd" d="M821.239 207.604C821.239 191.152 825.043 178.081 832.651 168.392C840.26 158.638 850.339 153.761 862.89 153.761C875.765 153.761 885.812 158.313 893.03 167.417L893.908 155.712H910.392V258.715C910.392 272.371 906.328 283.133 898.199 291.001C890.136 298.869 879.276 302.804 865.62 302.804C858.012 302.804 850.566 301.178 843.283 297.927C836 294.675 830.44 290.221 826.604 284.563L835.968 273.737C843.706 283.296 853.167 288.076 864.352 288.076C873.131 288.076 879.959 285.605 884.836 280.662C889.778 275.72 892.249 268.762 892.249 259.788V250.717C885.032 259.04 875.18 263.202 862.694 263.202C850.339 263.202 840.325 258.227 832.652 248.278C825.043 238.329 821.239 224.771 821.239 207.604ZM839.381 209.652C839.381 221.552 841.82 230.916 846.697 237.744C851.574 244.507 858.402 247.889 867.181 247.889C878.561 247.889 886.917 242.719 892.249 232.379V184.194C886.722 174.115 878.43 169.075 867.376 169.075C858.597 169.075 851.736 172.489 846.795 179.317C841.852 186.145 839.381 196.257 839.381 209.652Z" fill="white"/>
<path d="M993.409 221.943C997.115 224.61 998.969 228.381 998.969 233.258C998.969 237.875 996.887 241.581 992.726 244.378C988.629 247.109 983.166 248.474 976.338 248.474C968.925 248.474 962.943 246.719 958.391 243.207C953.904 239.631 951.498 234.819 951.173 228.771H933.127C933.127 235.014 934.948 240.834 938.589 246.231C942.296 251.563 947.4 255.725 953.903 258.716C960.406 261.708 967.884 263.203 976.338 263.203C988.368 263.203 998.155 260.375 1005.7 254.717C1013.24 248.995 1017.01 241.419 1017.01 231.99C1017.01 226.333 1015.65 221.553 1012.92 217.651C1010.25 213.685 1006.12 210.303 1000.53 207.507C994.937 204.711 987.621 202.305 978.582 200.289C969.608 198.273 963.398 196.16 959.952 193.949C956.505 191.738 954.782 188.454 954.782 184.097C954.782 179.48 956.635 175.741 960.342 172.88C964.048 170.019 969.185 168.588 975.753 168.588C982.126 168.588 987.393 170.376 991.555 173.953C995.782 177.53 997.895 181.789 997.895 186.731H1016.04C1016.04 177.107 1012.3 169.206 1004.82 163.028C997.408 156.851 987.719 153.762 975.754 153.762C964.374 153.762 955.01 156.753 947.661 162.736C940.378 168.718 936.737 176.034 936.737 184.682C936.737 189.885 938.005 194.372 940.541 198.143C943.142 201.915 947.109 205.166 952.441 207.898C957.839 210.629 965.089 212.97 974.193 214.921C983.362 216.871 989.767 219.212 993.409 221.943Z" fill="white"/>
<path fill-rule="evenodd" clip-rule="evenodd" d="M1043.36 261.253V119.237H1089.79C1105.2 119.237 1116.78 122.423 1124.51 128.796C1132.32 135.168 1136.22 144.597 1136.22 157.082C1136.22 163.715 1134.33 169.6 1130.56 174.738C1126.79 179.81 1121.65 183.744 1115.15 186.54C1122.82 188.686 1128.87 192.783 1133.29 198.831C1137.78 204.813 1140.02 211.966 1140.02 220.29C1140.02 233.035 1135.89 243.05 1127.63 250.333C1119.37 257.616 1107.7 261.257 1092.62 261.257H1043.36L1043.36 261.253ZM1062.09 194.828V245.94H1093.01C1101.72 245.94 1108.58 243.696 1113.59 239.209C1118.66 234.657 1121.2 228.415 1121.2 220.481C1121.2 203.379 1111.9 194.828 1093.3 194.828L1062.09 194.828ZM1062.09 179.807H1090.37C1098.57 179.807 1105.1 177.758 1109.98 173.662C1114.92 169.565 1117.39 164.005 1117.39 156.982C1117.39 149.179 1115.12 143.521 1110.56 140.01C1106.01 136.433 1099.09 134.645 1089.79 134.645H1062.09L1062.09 179.807Z" fill="white"/>
<path fill-rule="evenodd" clip-rule="evenodd" d="M1166.26 179.613C1162.23 187.871 1160.21 197.17 1160.21 207.51L1160.22 207.512V208.78C1160.22 225.163 1164.64 238.33 1173.48 248.282C1182.38 258.231 1193.99 263.206 1208.3 263.206C1217.79 263.206 1226.18 260.93 1233.46 256.378C1240.81 251.826 1246.44 245.486 1250.34 237.357C1254.3 229.164 1256.29 219.93 1256.29 209.655V208.387C1256.29 191.87 1251.83 178.637 1242.92 168.688C1234.08 158.739 1222.47 153.764 1208.1 153.764C1198.8 153.764 1190.51 156.008 1183.23 160.495C1176.01 164.982 1170.35 171.355 1166.26 179.613ZM1186.45 237.845C1181.05 230.757 1178.35 221.361 1178.35 209.656C1178.35 196.455 1181.08 186.311 1186.55 179.223C1192.01 172.135 1199.19 168.59 1208.1 168.59C1217.21 168.59 1224.49 172.199 1229.95 179.417C1235.48 186.571 1238.24 195.935 1238.24 207.509C1238.24 220.45 1235.54 230.53 1230.15 237.748C1224.75 244.901 1217.47 248.478 1208.3 248.478C1199.19 248.478 1191.91 244.934 1186.45 237.845Z" fill="white"/>
<path fill-rule="evenodd" clip-rule="evenodd" d="M1344.09 261.253C1343.05 259.173 1342.2 255.466 1341.55 250.133C1333.16 258.847 1323.15 263.204 1311.51 263.204C1301.1 263.204 1292.55 260.278 1285.85 254.425C1279.22 248.508 1275.91 241.03 1275.91 231.991C1275.91 221.001 1280.07 212.483 1288.39 206.435C1296.78 200.322 1308.55 197.266 1323.7 197.266H1341.26V188.975C1341.26 182.667 1339.37 177.66 1335.6 173.953C1331.83 170.182 1326.27 168.296 1318.92 168.296C1312.48 168.296 1307.09 169.922 1302.73 173.173C1298.37 176.424 1296.19 180.359 1296.19 184.976H1278.05C1278.05 179.708 1279.9 174.636 1283.61 169.759C1287.38 164.817 1292.46 160.915 1298.83 158.054C1305.26 155.193 1312.32 153.762 1319.99 153.762C1332.15 153.762 1341.68 156.818 1348.57 162.931C1355.47 168.979 1359.04 177.335 1359.3 187.999V236.574C1359.3 246.263 1360.54 253.969 1363.01 259.692V261.252H1344.09L1344.09 261.253ZM1314.14 247.5C1319.8 247.5 1325.16 246.037 1330.24 243.111C1335.31 240.185 1338.98 236.38 1341.26 231.698V210.044H1327.12C1305.01 210.044 1293.95 216.514 1293.95 229.454C1293.95 235.112 1295.84 239.534 1299.61 242.72C1303.38 245.906 1308.23 247.5 1314.14 247.5Z" fill="white"/>
<path d="M1429.88 171.226C1433.06 171.226 1436.02 171.454 1438.75 171.909L1438.75 155.131C1436.93 154.221 1434.27 153.765 1430.75 153.765C1419.89 153.765 1411.51 158.48 1405.59 167.909L1405.3 155.716H1387.74V261.258H1405.78V186.346C1410.01 176.266 1418.04 171.226 1429.88 171.226Z" fill="white"/>
<path fill-rule="evenodd" clip-rule="evenodd" d="M1450.88 207.604C1450.88 191.412 1454.72 178.406 1462.39 168.587C1470.06 158.703 1480.11 153.761 1492.53 153.761C1504.89 153.761 1514.67 157.988 1521.89 166.442V111.432H1539.94V261.26H1523.35L1522.48 249.945C1515.26 258.789 1505.21 263.211 1492.34 263.211C1480.11 263.211 1470.13 258.204 1462.39 248.189C1454.72 238.175 1450.88 225.105 1450.88 208.978V207.612L1450.88 207.604ZM1468.93 209.652C1468.93 221.617 1471.4 230.981 1476.34 237.744C1481.28 244.507 1488.11 247.888 1496.82 247.888C1508.27 247.888 1516.62 242.751 1521.89 232.477V183.998C1516.49 174.048 1508.2 169.074 1497.02 169.074C1488.17 169.074 1481.28 172.488 1476.34 179.316C1471.4 186.144 1468.93 196.257 1468.93 209.652Z" fill="white"/>
<path fill-rule="evenodd" clip-rule="evenodd" d="M1333.89 346.828C1328.66 353.498 1326.05 362.332 1326.05 373.331V374.259C1326.05 385.214 1328.66 394.092 1333.89 400.895C1339.15 407.698 1345.95 411.099 1354.27 411.099C1363.04 411.099 1369.88 408.095 1374.79 402.088L1375.39 409.774H1386.68V308H1374.39V345.37C1369.48 339.628 1362.82 336.756 1354.4 336.756C1345.95 336.756 1339.11 340.113 1333.89 346.828ZM1343.38 393.805C1340.02 389.211 1338.34 382.85 1338.34 374.723C1338.34 365.623 1340.02 358.754 1343.38 354.116C1346.75 349.478 1351.44 347.159 1357.46 347.159C1365.07 347.159 1370.72 350.538 1374.39 357.297V390.227C1370.81 397.207 1365.12 400.696 1357.33 400.696C1351.39 400.696 1346.75 398.399 1343.38 393.805Z" fill="white"/>
<path d="M1267.75 365.181H1309.65V354.779H1267.75V323.77H1315.76V313.301H1255V409.774H1316.42V399.371H1267.75V365.181Z" fill="white"/>
<path fill-rule="evenodd" clip-rule="evenodd" d="M1402.88 373.331C1402.88 362.156 1405.47 353.277 1410.65 346.695C1415.83 340.069 1422.69 336.756 1431.23 336.756C1440 336.756 1446.84 339.848 1451.75 346.033L1452.35 338.082H1463.57V408.051C1463.57 417.327 1460.8 424.638 1455.27 429.983C1449.78 435.328 1442.39 438 1433.09 438C1427.91 438 1422.84 436.896 1417.89 434.687C1412.93 432.478 1409.14 429.453 1406.53 425.61L1412.91 418.255C1418.17 424.748 1424.61 427.995 1432.23 427.995C1438.2 427.995 1442.85 426.316 1446.17 422.959C1449.54 419.602 1451.22 414.876 1451.22 408.78V402.618C1446.31 408.272 1439.6 411.099 1431.1 411.099C1422.69 411.099 1415.87 407.72 1410.65 400.961C1405.47 394.203 1402.88 384.993 1402.88 373.331ZM1415.23 374.723C1415.23 382.806 1416.89 389.167 1420.21 393.805C1423.53 398.399 1428.18 400.696 1434.15 400.696C1441.9 400.696 1447.59 397.185 1451.22 390.161V357.429C1447.46 350.582 1441.81 347.159 1434.29 347.159C1428.31 347.159 1423.64 349.478 1420.28 354.116C1416.91 358.754 1415.23 365.623 1415.23 374.723Z" fill="white"/>
<path fill-rule="evenodd" clip-rule="evenodd" d="M1488.21 401.558C1494.31 407.918 1502.24 411.099 1511.98 411.099C1524.02 411.099 1533.05 406.483 1539.07 397.251L1531.57 391.42C1529.31 394.335 1526.68 396.677 1523.66 398.443C1520.65 400.21 1516.98 401.094 1512.64 401.094C1506.53 401.094 1501.49 398.929 1497.5 394.6C1493.56 390.227 1491.5 384.507 1491.33 377.439H1540V372.337C1540 360.897 1537.41 352.106 1532.23 345.966C1527.05 339.826 1519.79 336.756 1510.45 336.756C1504.74 336.756 1499.43 338.347 1494.51 341.527C1489.64 344.663 1485.84 349.036 1483.09 354.646C1480.39 360.212 1479.04 366.551 1479.04 373.663V375.915C1479.04 386.605 1482.1 395.153 1488.21 401.558ZM1497.97 352.261C1501.33 348.639 1505.49 346.828 1510.45 346.828C1515.59 346.828 1519.66 348.55 1522.67 351.996C1525.68 355.397 1527.36 360.212 1527.72 366.44V367.368H1491.73C1492.52 360.875 1494.6 355.839 1497.97 352.261Z" fill="white"/>
</svg>
