<svg xmlns="http://www.w3.org/2000/svg" height="320" viewBox="0 0 1452.9451 320.00026" width="1452.9" version="1.1">
 <g transform="matrix(.94010 0 0 .94010 -.0010706 -.0026458)">
  <g transform="translate(0,-732.36)">
   <g stroke-width="28">
    <g transform="matrix(-.66287 .69913 -.66371 -.70001 863.46 1410.6)"></g>
    <g transform="matrix(.66287 -.69913 .66371 .70001 -543.46 380.47)"></g>
   </g>
   <g fill="#305680" transform="translate(0,732.36)">
    <g fill="#fff">
     <g transform="translate(-6.1238e-5,-732.36)">
      <path style="color-rendering:auto;text-decoration-color:#000000;color:#000000;isolation:auto;mix-blend-mode:normal;shape-rendering:auto;solid-color:#000000;text-decoration-line:none;image-rendering:auto;white-space:normal;text-indent:0;text-transform:none;text-decoration-style:solid" d="m151.13 732.36c-28.363 0-54.915 7.9153-77.613 21.537-6.4723-5.2623-14.605-8.1915-23.067-8.1937a8.7661 8.7661 0 0 0 -0.0035 0c-20.154 0.00073-36.679 16.528-36.678 36.682a8.7661 8.7661 0 0 0 0 0.0106c0.0099 8.4147 2.9267 16.483 8.1033 22.927-13.83 22.83-21.87 49.58-21.87 78.17a8.7661 8.7661 0 1 0 17.531 0c0-24.702 6.7193-47.748 18.378-67.574 4.5663 1.9846 9.4727 3.1496 14.519 3.1573a8.7661 8.7661 0 0 0 0.01241 0c20.155 0.00062 36.683-16.527 36.682-36.682a8.7661 8.7661 0 0 0 0 -0.004c-0.0016-4.9994-1.1387-9.8628-3.0828-14.397 19.717-11.484 42.585-18.095 67.085-18.095a8.7661 8.7661 0 1 0 0 -17.531zm-100.69 30.88c5.9129 0.002 11.191 2.5121 14.836 7.0769a8.7661 8.7661 0 0 0 0.1826 0.21451c2.6715 3.3798 4.1326 7.5531 4.1341 11.863-0.0015 10.677-8.468 19.144-19.144 19.148-4.37-0.008-8.6011-1.5088-12-4.2546a8.7661 8.7661 0 0 0 -0.01241 -0.009c-4.514-3.6331-7.1358-9.0979-7.1442-14.893 0.0025-10.677 8.4701-19.144 19.148-19.146z"/>
      <path style="color-rendering:auto;text-decoration-color:#000000;color:#000000;isolation:auto;mix-blend-mode:normal;shape-rendering:auto;solid-color:#000000;text-decoration-line:none;image-rendering:auto;white-space:normal;text-indent:0;text-transform:none;text-decoration-style:solid" fill-rule="evenodd" d="m66.992 835.19c-1.492 1.5583-2.3663 3.7103-2.2576 6.0713 0.0962 2.0447 0.91322 4.0204 2.3372 5.5177 6.8051 6.8559 20.223 20.223 20.223 20.223l11.844-11.83s-12.973-12.961-20.176-20.171c-1.604-1.6325-3.7498-2.3141-6.012-2.3243-2.3583-0.0112-4.4673 0.95389-5.9592 2.5122zm32.147 19.98-36.639 36.64c-3.9751 3.976-3.9751 10.421 0 14.397l18.156 18.156 31.753 31.753 30.478 30.478c3.9758 3.9759 10.422 3.9763 14.398 0l24.791-24.791 37.914-37.914 36.639-36.639c3.9754-3.9764 3.975-10.422-0.00067-14.398l-18.63-18.63-31.75-31.76-30.01-30c-3.976-3.9751-10.421-3.9751-14.397 0l-24.79 24.79-37.91 37.91zm37.911-37.91s-12.973-12.961-20.176-20.171c-1.604-1.6325-3.7498-2.3141-6.012-2.3243-4.7166-0.0226-8.4341 3.8616-8.2169 8.5834 0.0962 2.0447 0.91322 4.0204 2.3372 5.5177 6.8051 6.8559 20.223 20.223 20.223 20.223l11.844-11.83zm69.193 5.2132s12.961-12.973 20.171-20.176c1.6325-1.604 2.3141-3.7498 2.3243-6.012 0.0225-4.7166-3.8616-8.4341-8.5834-8.2169-2.0447 0.0962-4.0204 0.91322-5.5177 2.3372-6.8559 6.8051-20.223 20.223-20.223 20.223l11.83 11.844zm31.753 31.753s12.961-12.973 20.171-20.176c1.6325-1.604 2.314-3.7498 2.3243-6.012 0.0225-4.7166-3.8616-8.4341-8.5834-8.2169-2.0447 0.0962-4.0204 0.91323-5.5177 2.3372-6.8559 6.8051-20.223 20.223-20.223 20.223l11.83 11.844zm-18.009 69.667s12.973 12.961 20.178 20.169c1.604 1.6324 3.7498 2.314 6.012 2.3243 4.7166 0.0225 8.4342-3.8615 8.2169-8.5834l-0.002 0.002c-0.0962-2.0447-0.91415-4.0214-2.3382-5.5186-6.8051-6.8559-20.222-20.222-20.222-20.222l-11.844 11.83zm-37.914 37.914s12.973 12.961 20.178 20.169c1.604 1.6324 3.7498 2.314 6.012 2.3242 4.7166 0.023 8.4342-3.8615 8.2169-8.5834h-0.002c-0.0962-2.0447-0.91323-4.0205-2.3372-5.5177-6.8051-6.8559-20.223-20.223-20.223-20.223l-11.844 11.83zm-69.667-5.6871s-12.961 12.973-20.169 20.178c-1.6324 1.604-2.314 3.7498-2.3243 6.012-0.02251 4.7166 3.8615 8.4342 8.5834 8.2169h-0.0019c2.0447-0.096 4.0204-0.9132 5.5177-2.3373 6.8561-6.8048 20.223-20.223 20.223-20.223l-11.82-11.84zm-31.743-31.74s-12.961 12.973-20.169 20.178c-1.6324 1.604-2.314 3.7498-2.3243 6.012-0.02251 4.7167 3.8615 8.4342 8.5834 8.2169h-0.0019c2.0447-0.0962 4.0204-0.91322 5.5177-2.3372 6.8561-6.8047 20.223-20.223 20.223-20.223l-11.829-11.85zm87.237-90.554c1.6794-1.7064 3.9669-2.6599 6.2971-2.626 1.6628 0.0237 3.253 0.55012 4.5625 1.5097l16.499 12.1c3.2009 2.297 4.1445 6.6589 2.2308 10.312-1.9137 3.6528-6.1234 5.5243-9.9506 4.4227l6.124 23.948c1.1128 4.3517-1.564 8.9677-5.9833 10.317l-44.642 13.631 8.2456 31.883c1.1728 4.3696-1.5017 9.0445-5.9546 10.407s-8.9756-1.1106-10.068-5.5047l-10.282-39.769c-1.1265-4.3556 1.5493-8.9847 5.9759-10.338l44.661-13.637-4.1219-16.118c-2.7634 3.0643-7.2335 3.8084-10.586 1.7615-3.3531-2.0469-4.6144-6.2896-2.9861-10.047l8.1169-19.454c0.43322-1.0376 1.0673-1.9888 1.8624-2.7973z"/>
      <path style="color-rendering:auto;text-decoration-color:#000000;color:#000000;isolation:auto;mix-blend-mode:normal;shape-rendering:auto;solid-color:#000000;text-decoration-line:none;image-rendering:auto;white-space:normal;text-indent:0;text-transform:none;text-decoration-style:solid" d="m168.87 1052.4c28.363 0 54.915-7.9155 77.614-21.538 6.4724 5.2624 14.605 8.1917 23.067 8.1939a8.7662 8.7662 0 0 0 0.004 0c20.155-0.0007 36.68-16.528 36.679-36.682a8.7662 8.7662 0 0 0 0 -0.011c-0.01-8.4149-2.9267-16.484-8.1034-22.927 13.825-22.82 21.866-49.572 21.866-78.162a8.7662 8.7662 0 1 0 -17.531 0c0 24.703-6.7194 47.749-18.378 67.575-4.5664-1.9846-9.4728-3.1496-14.519-3.1573a8.7662 8.7662 0 0 0 -0.0124 0c-20.155-0.00062-36.683 16.527-36.682 36.682 0.002 4.9994 1.1387 9.8628 3.0829 14.397-19.717 11.484-42.586 18.095-67.086 18.095a8.7662 8.7662 0 1 0 0 17.531zm100.69-30.875c-5.913 0-11.191-2.5122-14.836-7.0769a8.7662 8.7662 0 0 0 -0.18261 -0.2146c-2.6715-3.3799-4.1327-7.5531-4.1341-11.863 0.002-10.677 8.4681-19.144 19.144-19.148 4.37 0.008 8.6012 1.5088 12 4.2547a8.7662 8.7662 0 0 0 0.0124 0.009c4.5141 3.6332 7.1359 9.098 7.1443 14.893-0.003 10.677-8.4702 19.145-19.148 19.146z"/>
     </g>
     <path d="m477.92 93.229h-48.56v134.68h-19.82v-134.68h-48.45v-16.395h116.83v16.394z"/>
     <path d="m516.72 129.23q12.762-15.668 33.203-15.668 35.59 0 35.901 40.155v74.188h-19.196v-74.292q-0.10376-12.14-5.603-17.95-5.3955-5.8105-16.913-5.8105-9.3384 0-16.394 4.9805-7.0557 4.9805-10.999 13.074v79.999h-19.19v-159.38h19.196v60.699z"/>
     <path d="m635.43 227.91h-19.2v-112.27h19.2zm-20.76-142.05q0-4.6692 2.8015-7.8857 2.9053-3.2166 8.5083-3.2166t8.5083 3.2166 2.9053 7.8857q0 4.6692-2.9053 7.782t-8.5083 3.1128-8.5083-3.1128q-2.8-3.113-2.8-7.782z"/>
     <path d="m684.19 115.64 0.62256 14.111q12.866-16.187 33.618-16.187 35.59 0 35.901 40.155v74.188h-19.196v-74.292q-0.10376-12.14-5.603-17.95-5.3955-5.8105-16.913-5.8105-9.3384 0-16.394 4.9805-7.0557 4.9805-10.999 13.074v79.999h-19.196v-112.27h18.158z"/>
     <path d="m778.92 170.84q0-26.251 12.14-41.711 12.14-15.564 32.166-15.564 20.544 0 32.062 14.526l0.93384-12.451h17.535v109.57q0 21.79-12.97 34.344-12.866 12.555-34.656 12.555-12.14 0-23.761-5.188t-17.743-14.215l9.9609-11.517q12.347 15.253 30.194 15.253 14.008 0 21.79-7.8857 7.8857-7.8858 7.8857-22.205v-9.6497q-11.517 13.281-31.439 13.281-19.714 0-31.958-15.875-12.14-15.875-12.14-43.268zm19.299 2.179q0 18.988 7.782 29.883 7.782 10.791 21.79 10.791 18.158 0 26.666-16.498v-51.257q-8.8196-16.083-26.459-16.083-14.008 0-21.893 10.895-7.8858 10.895-7.8858 32.269z"/>
     <path d="m967.98 198.13q0-7.782-5.9143-12.036-5.8106-4.3579-20.441-7.4707-14.526-3.1128-23.138-7.4707-8.5083-4.3579-12.659-10.376-4.0466-6.0181-4.0466-14.319 0-13.8 11.621-23.346 11.725-9.5459 29.883-9.5459 19.092 0 30.92 9.8572 11.932 9.8572 11.932 25.214h-19.299q0-7.8858-6.7444-13.593-6.6406-5.7068-16.809-5.7068-10.48 0-16.394 4.5654-5.9143 4.5654-5.9143 11.932 0 6.9519 5.4993 10.48 5.4993 3.5278 19.818 6.7444 14.423 3.2166 23.346 7.6782 8.9233 4.4617 13.177 10.791 4.3579 6.2256 4.3579 15.253 0 15.045-12.036 24.176-12.036 9.0271-31.232 9.0271-13.489 0-23.865-4.773t-16.29-13.281q-5.8105-8.6121-5.8105-18.573h19.196q0.5188 9.6497 7.6782 15.356 7.2632 5.603 19.092 5.603 10.895 0 17.432-4.3579 6.6406-4.4617 6.6406-11.829z"/>
     <path d="m1015.2 227.91v-151.07h49.39q24.591 0 36.938 10.168 12.451 10.168 12.451 30.09 0 10.583-6.0181 18.781-6.018 8.0933-16.394 12.555 12.244 3.4241 19.299 13.074 7.1594 9.5459 7.1594 22.827 0 20.337-13.178 31.958t-37.25 11.621h-52.399zm19.922-70.66v54.37h32.892q13.904 0 21.893-7.1594 8.0933-7.2632 8.0933-19.922 0-27.289-29.675-27.289h-33.203zm0-15.979h30.09q13.074 0 20.856-6.5369 7.8858-6.5369 7.8858-17.743 0-12.451-7.2632-18.054-7.2632-5.7068-22.101-5.7068h-29.468v48.041z"/>
     <path d="m1139.5 170.74q0-16.498 6.4331-29.675 6.5369-13.177 18.054-20.337 11.621-7.1594 26.459-7.1594 22.931 0 37.042 15.875 14.215 15.875 14.215 42.23v1.3489q0 16.394-6.3294 29.468-6.2256 12.97-17.95 20.233-11.621 7.2632-26.77 7.2632-22.827 0-37.042-15.875-14.1-15.88-14.1-42.02v-1.3489zm19.299 2.2827q0 18.677 8.6121 29.987 8.7158 11.31 23.242 11.31 14.63 0 23.242-11.414 8.6121-11.517 8.6121-32.166 0-18.469-8.8196-29.883-8.7158-11.517-23.242-11.517-14.215 0-22.931 11.31-8.7158 11.31-8.7158 32.373z"/>
     <path d="m1335.1 227.91q-1.6602-3.3203-2.6978-11.829-13.385 13.904-31.958 13.904-16.602 0-27.289-9.3384-10.584-9.4421-10.584-23.865 0-17.535 13.281-27.185 13.385-9.7534 37.561-9.7534h18.677v-8.8196q0-10.065-6.018-15.979-6.0181-6.0181-17.743-6.0181-10.272 0-17.224 5.188-6.9519 5.188-6.9519 12.555h-19.299q0-8.4045 5.9143-16.187 6.0181-7.8858 16.186-12.451 10.272-4.5654 22.516-4.5654 19.403 0 30.402 9.7534 10.998 9.6497 11.414 26.666v51.672q0 15.46 3.9429 24.591v1.6602h-20.129zm-31.854-14.63q9.0271 0 17.12-4.6692 8.0932-4.6692 11.725-12.14v-23.035h-15.045q-35.278 0-35.278 20.648 0 9.0271 6.0181 14.111 6.0181 5.0842 15.46 5.0842z"/>
     <path d="m1435.8 132.87q-4.3579-0.72632-9.4422-0.72632-18.884 0-25.629 16.083v79.688h-19.196v-112.27h18.677l0.3113 12.97q9.4421-15.045 26.77-15.045 5.603 0 8.5083 1.4526v17.847z"/>
     <path d="m1448.7 170.84q0-25.836 12.244-41.504 12.244-15.771 32.062-15.771 19.714 0 31.232 13.489v-58.517h19.196v159.38h-17.639l-0.9339-12.036q-11.517 14.111-32.062 14.111-19.507 0-31.854-15.979-12.244-15.979-12.244-41.711v-1.4526zm19.196 2.179q0 19.092 7.8858 29.883 7.8857 10.791 21.79 10.791 18.262 0 26.666-16.394v-51.57q-8.6121-15.875-26.459-15.875-14.111 0-21.997 10.895-7.8858 10.895-7.8858 32.269z"/>
    </g>
   </g>
  </g>
  <path stroke-width=".99351" fill="#fff" d="m1022 312.08v27.354h-9.2138v-69.873h25.77q11.47 0 17.949 5.8547 6.5262 5.8547 6.5262 15.501 0 10.174-6.3822 15.692-6.3356 5.4712-18.189 5.4712zm0-7.5348h16.557q7.3907 0 11.326-3.4544 3.9343-3.5041 3.9343-10.078 0-6.2392-3.9343-9.9827-3.9353-3.7425-10.798-3.8866h-17.084zm76.497-9.0697q-2.0167-0.33581-4.3673-0.33581-8.734 0-11.854 7.4384v36.856h-8.878v-51.925h8.6377l0.144 5.9978q4.3673-6.9585 12.382-6.9585 2.5909 0 3.9342 0.67261v8.254zm4.7987 17.516q0-7.6301 2.9756-13.725 3.0232-6.0952 8.3504-9.4065 5.3749-3.3114 12.237-3.3114 10.606 0 17.133 7.342 6.5741 7.343 6.5741 19.532v0.62491q0 7.5824-2.9269 13.629-2.8791 5.9988-8.3027 9.3588-5.3748 3.358-12.381 3.358-10.558 0-17.133-7.342-6.5273-7.342-6.5273-19.436v-0.62392zm8.9267 1.0561q0 8.6375 3.9829 13.869 4.0307 5.2308 10.75 5.2308 6.7658 0 10.75-5.2795 3.9838-5.3272 3.9838-14.877 0-8.5422-4.0802-13.822-4.0307-5.3262-10.75-5.3262-6.5741 0-10.606 5.2308-4.0306 5.2308-4.0306 14.972zm53.845 25.386v-45.062h-8.2062v-6.8621h8.2062v-5.3272q0-8.3504 4.463-12.91 4.4628-4.5592 12.621-4.5592 3.071 0 6.0942 0.81566l-0.4799 7.1989q-2.2552-0.43217-4.7986-0.43217-4.3187 0-6.6704 2.5434-2.3516 2.4957-2.3516 7.1989v5.4712h11.086v6.8621h-11.086v45.062zm50.198 0.95972q-10.558 0-17.181-6.9098-6.6228-6.9585-6.6228-18.573v-1.6313q0-7.7265 2.9268-13.774 2.9757-6.0942 8.2552-9.5019 5.3262-3.4554 11.518-3.4554 10.126 0 15.74 6.6714 5.6152 6.6704 5.6152 19.1v3.6958h-35.177q0.1918 7.6778 4.4628 12.429 4.3199 4.7032 10.943 4.7032 4.7023 0 7.9658-1.9204 3.2638-1.9195 5.7107-5.0868l5.4236 4.2234q-6.5273 10.029-19.58 10.029zm-1.1038-46.55q-5.3748 0-9.0231 3.9343-3.646 3.8876-4.5105 10.942h26.01v-0.67161q-0.3835-6.7668-3.6462-10.462-3.2636-3.7435-8.8303-3.7435zm61.811 31.817q0-3.5995-2.7351-5.5666-2.6874-2.0158-9.4541-3.4554-6.7192-1.4406-10.702-3.4554-3.9343-2.0158-5.8547-4.7986-1.8718-2.7838-1.8718-6.6227 0-6.3833 5.3749-10.798 5.4235-4.4151 13.822-4.4151 8.8302 0 14.3 4.5602 5.5189 4.5582 5.5189 11.661h-8.9256q0-3.6462-3.1197-6.2869-3.0709-2.6388-7.7741-2.6388-4.8473 0-7.5824 2.1112-2.7362 2.1112-2.7362 5.5189 0 3.215 2.5435 4.8473 2.5433 1.6313 9.167 3.1196 6.6703 1.4873 10.797 3.5508 4.127 2.0635 6.0952 4.9914 2.0148 2.8792 2.0148 7.0539 0 6.9585-5.5666 11.182-5.5667 4.1747-14.446 4.1747-6.2382 0-11.038-2.2076-4.7987-2.2076-7.5337-6.1418-2.6875-3.9839-2.6875-8.5908h8.878q0.2404 4.4628 3.5518 7.1036 3.3579 2.5911 8.8302 2.5911 5.0391 0 8.0623-2.0168 3.0709-2.0625 3.0709-5.4702zm50.678 0q0-3.5995-2.7351-5.5666-2.6875-2.0158-9.4542-3.4554-6.719-1.4406-10.702-3.4554-3.9342-2.0158-5.8547-4.7986-1.8718-2.7838-1.8718-6.6227 0-6.3833 5.3749-10.798 5.4237-4.4151 13.822-4.4151 8.8303 0 14.3 4.5602 5.519 4.5582 5.519 11.661h-8.9257q0-3.6462-3.1196-6.2869-3.0709-2.6388-7.7742-2.6388-4.8473 0-7.5824 2.1112-2.7361 2.1112-2.7361 5.5189 0 3.215 2.5433 4.8473 2.5433 1.6313 9.1671 3.1196 6.6705 1.4873 10.797 3.5508 4.1271 2.0635 6.0951 4.9914 2.0149 2.8792 2.0149 7.0539 0 6.9585-5.5666 11.182-5.5666 4.1747-14.446 4.1747-6.2382 0-11.038-2.2076-4.7986-2.2076-7.5338-6.1418-2.6874-3.9839-2.6874-8.5908h8.8779q0.2405 4.4628 3.5518 7.1036 3.3581 2.5911 8.8303 2.5911 5.039 0 8.0623-2.0168 3.0709-2.0625 3.0709-5.4702zm30.09 13.773h-8.8779v-51.925h8.8779zm-9.5982-65.699q0-2.1589 1.2955-3.6462 1.3442-1.4883 3.9352-1.4883 2.5921 0 3.9354 1.4873 1.3441 1.4883 1.3441 3.6472 0 2.1599-1.3441 3.5995-1.3433 1.4406-3.9343 1.4406-2.5931 0-3.9363-1.4406-1.2955-1.4406-1.2955-3.5995zm21.404 39.256q0-7.6301 2.9746-13.725 3.0242-6.0952 8.3504-9.4065 5.3749-3.3114 12.238-3.3114 10.606 0 17.132 7.342 6.5749 7.343 6.5749 19.532v0.62491q0 7.5824-2.9279 13.629-2.8791 5.9988-8.3016 9.3588-5.375 3.358-12.382 3.358-10.557 0-17.132-7.342-6.5274-7.342-6.5274-19.436v-0.62392zm8.9257 1.0561q0 8.6375 3.9839 13.869 4.0307 5.2308 10.75 5.2308 6.7658 0 10.75-5.2795 3.983-5.3272 3.983-14.877 0-8.5422-4.0793-13.822-4.0318-5.3262-10.75-5.3262-6.5751 0-10.606 5.2308-4.0317 5.2308-4.0317 14.972zm57.877-26.539 0.2881 6.5263q5.9511-7.4871 15.548-7.4871 16.46 0 16.604 18.573v34.313h-8.878v-34.359q-0.047-5.6153-2.591-8.3027-2.4958-2.6874-7.823-2.6874-4.3186 0-7.5824 2.3039-3.2636 2.303-5.0868 6.0465v37h-8.8778v-51.926zm77.984 51.925q-0.768-1.535-1.2479-5.4702-6.1905 6.43-14.782 6.43-7.6777 0-12.621-4.3188-4.8949-4.3674-4.8949-11.038 0-8.11 6.1428-12.573 6.1905-4.5115 17.372-4.5115h8.6386v-4.0793q0-4.6546-2.7839-7.3907-2.7827-2.7828-8.2063-2.7828-4.751 0-7.9659 2.3993-3.216 2.3993-3.216 5.807h-8.9257q0-3.8876 2.7352-7.487 2.7837-3.6462 7.487-5.7584 4.7509-2.1122 10.414-2.1122 8.9734 0 14.061 4.5115 5.0868 4.4628 5.2786 12.333v23.899q0 7.1512 1.8241 11.375v0.767zm-14.734-6.7658q4.1756 0 7.9182-2.1599 3.7435-2.1599 5.4236-5.6153v-10.653h-6.9585q-16.318 0-16.318 9.5496 0 4.1757 2.7838 6.5273 2.7839 2.3516 7.1504 2.3516zm45.879 6.7658h-8.878v-73.712h8.878v73.713z"/>
 </g>
</svg>
