<svg width="1542" height="390" viewBox="0 0 1542 390" fill="none" xmlns="http://www.w3.org/2000/svg">
<path fill-rule="evenodd" clip-rule="evenodd" d="M79.8723 115.431C78.4702 116.895 77.6486 118.918 77.7507 121.136C77.8411 123.058 78.6089 124.915 79.9471 126.322C86.3423 132.765 127.145 173.52 127.145 173.52L138.276 162.403C138.276 162.403 97.8915 122.03 91.1224 115.254C89.6151 113.72 87.5986 113.08 85.4726 113.07C83.2563 113.06 81.2744 113.967 79.8723 115.431ZM138.276 162.403L103.844 196.835C100.108 200.571 100.108 206.628 103.844 210.365L120.906 227.428L150.746 257.268L179.388 285.909C183.124 289.646 189.182 289.646 192.919 285.909L216.217 262.611L251.847 226.981L286.279 192.549C290.015 188.812 290.015 182.754 286.278 179.018L268.771 161.512L238.931 131.672L210.734 103.475C206.997 99.739 200.94 99.739 197.204 103.475L173.906 126.773L138.276 162.403ZM173.906 126.773C173.906 126.773 133.522 86.3994 126.753 79.6243C125.245 78.0901 123.229 77.4496 121.103 77.44C116.67 77.4188 113.177 81.069 113.381 85.5064C113.471 87.4279 114.239 89.2846 115.577 90.6917C121.972 97.1346 162.775 137.889 162.775 137.889L173.906 126.773ZM238.931 131.672C238.931 131.672 251.111 119.48 257.886 112.711C259.421 111.204 260.061 109.187 260.071 107.061C260.092 102.629 256.442 99.135 252.004 99.3392C250.083 99.4296 248.226 100.197 246.819 101.536C240.376 107.931 227.814 120.541 227.814 120.541L238.931 131.672ZM268.771 161.512C268.771 161.512 280.951 149.32 287.727 142.551C289.261 141.044 289.901 139.027 289.911 136.901C289.932 132.469 286.282 128.975 281.844 129.179C279.923 129.27 278.066 130.038 276.659 131.376C270.216 137.771 257.654 150.381 257.654 150.381L268.771 161.512ZM251.847 226.981C251.847 226.981 292.231 267.355 299.002 274.129C300.509 275.663 302.526 276.303 304.652 276.313C309.084 276.334 312.578 272.684 312.374 268.247L312.372 268.248C312.281 266.327 311.513 264.469 310.175 263.062C303.779 256.619 262.978 215.865 262.978 215.865L251.847 226.981ZM216.217 262.611C216.217 262.611 256.601 302.985 263.372 309.759C264.879 311.293 266.896 311.933 269.022 311.943C273.454 311.965 276.948 308.314 276.744 303.877H276.742C276.651 301.955 275.884 300.098 274.545 298.691C268.15 292.248 227.347 251.493 227.347 251.493L216.217 262.611ZM150.746 257.268C150.746 257.268 138.566 269.459 131.793 276.23C130.259 277.737 129.618 279.754 129.608 281.88C129.587 286.312 133.237 289.806 137.675 289.602H137.673C139.595 289.512 141.451 288.744 142.858 287.405C149.301 281.01 161.863 268.4 161.863 268.4L150.746 257.268ZM120.906 227.428C120.906 227.428 108.726 239.619 101.952 246.39C100.418 247.897 99.7779 249.914 99.7682 252.04C99.7471 256.472 103.397 259.966 107.835 259.762H107.833C109.754 259.671 111.611 258.903 113.018 257.565C119.461 251.17 132.023 238.56 132.023 238.56L120.906 227.428ZM202.888 142.328C204.466 140.725 206.616 139.829 208.805 139.861C210.368 139.883 211.862 140.378 213.093 141.279L228.598 152.65C231.606 154.809 232.492 158.908 230.694 162.341C228.896 165.774 224.94 167.532 221.343 166.497L227.098 189.003C228.144 193.092 225.628 197.43 221.475 198.698L179.523 211.508L187.272 241.47C188.374 245.576 185.86 249.97 181.676 251.25C177.491 252.53 173.241 250.206 172.214 246.077L162.551 208.703C161.493 204.61 164.007 200.26 168.167 198.989L210.138 186.173L206.264 171.026C203.668 173.905 199.467 174.605 196.316 172.681C193.165 170.757 191.979 166.77 193.509 163.239L201.137 144.957C201.545 143.982 202.14 143.088 202.888 142.328Z" fill="white"/>
<path fill-rule="evenodd" clip-rule="evenodd" d="M153.341 41.9005C153.341 41.9005 122.365 72.8873 115.59 79.6564C114.056 81.1637 113.415 83.1802 113.406 85.3062C113.385 89.7387 117.035 93.2323 121.472 93.0281C123.394 92.9377 125.25 92.1699 126.658 90.8316C133.1 84.4365 164.458 53.0315 164.458 53.0315L153.341 41.9005Z" fill="white"/>
<path fill-rule="evenodd" clip-rule="evenodd" d="M53.4061 164.189C53.4061 164.189 84.3816 133.203 91.1567 126.433C92.6909 124.926 93.3314 122.91 93.341 120.784C93.3621 116.351 89.712 112.858 85.2746 113.062C83.3531 113.152 81.4964 113.92 80.0893 115.258C73.6464 121.653 42.2891 153.058 42.2891 153.058L53.4061 164.189Z" fill="white"/>
<circle cx="172.446" cy="34.3012" r="25.8012" stroke="white" stroke-width="17"/>
<circle cx="34.3012" cy="172.446" r="25.8012" stroke="white" stroke-width="17"/>
<path fill-rule="evenodd" clip-rule="evenodd" d="M336.594 225.154C336.594 225.154 305.618 256.141 298.843 262.91C297.309 264.417 296.668 266.434 296.659 268.56C296.638 272.992 300.288 276.486 304.725 276.282C306.647 276.191 308.503 275.423 309.91 274.085C316.353 267.69 347.711 236.285 347.711 236.285L336.594 225.154Z" fill="white"/>
<path fill-rule="evenodd" clip-rule="evenodd" d="M236.659 347.442C236.659 347.442 267.634 316.455 274.41 309.686C275.944 308.179 276.584 306.163 276.594 304.037C276.615 299.604 272.965 296.11 268.528 296.315C266.606 296.405 264.749 297.173 263.342 298.511C256.899 304.906 225.542 336.311 225.542 336.311L236.659 347.442Z" fill="white"/>
<circle cx="355.699" cy="217.555" r="25.8012" stroke="white" stroke-width="17"/>
<circle cx="217.554" cy="355.699" r="25.8012" stroke="white" stroke-width="17"/>
<path d="M538.278 134.644H492.628V261.253H473.996V134.644H428.449V119.231H538.278V134.643V134.644Z" fill="white"/>
<path d="M574.752 168.487C582.75 158.668 593.155 153.758 605.965 153.758C628.27 153.758 639.52 166.341 639.715 191.507V261.249H621.669V191.409C621.604 183.801 619.849 178.176 616.402 174.535C613.021 170.893 607.721 169.073 600.503 169.073C594.65 169.073 589.513 170.633 585.091 173.755C580.669 176.876 577.223 180.973 574.751 186.045V261.25H556.711V111.421H574.757V168.483L574.752 168.487Z" fill="white"/>
<path d="M686.348 261.253H668.299V155.712H686.348V261.253ZM666.832 127.716C666.832 124.79 667.71 122.319 669.466 120.303C671.287 118.287 673.953 117.279 677.464 117.279C680.976 117.279 683.642 118.287 685.463 120.303C687.283 122.319 688.194 124.79 688.194 127.716C688.194 130.642 687.283 133.081 685.463 135.032C683.642 136.983 680.976 137.958 677.464 137.958C673.953 137.958 671.287 136.983 669.466 135.032C667.711 133.081 666.834 130.642 666.834 127.716H666.832Z" fill="white"/>
<path d="M732.186 155.712L732.771 168.977C740.834 158.833 751.369 153.76 764.374 153.76C786.679 153.76 797.929 166.343 798.124 191.509V261.251H780.078V191.411C780.013 183.803 778.258 178.178 774.811 174.537C771.43 170.895 766.13 169.074 758.912 169.074C753.059 169.074 747.922 170.635 743.5 173.757C739.078 176.878 735.632 180.975 733.16 186.047V261.252H715.115V155.71H732.185L732.186 155.712Z" fill="white"/>
<path d="M821.239 207.604C821.239 191.152 825.043 178.081 832.651 168.392C840.26 158.638 850.339 153.761 862.89 153.761C875.765 153.761 885.812 158.313 893.03 167.417L893.908 155.712H910.392V258.715C910.392 272.372 906.328 283.133 898.199 291.001C890.136 298.87 879.276 302.804 865.62 302.804C858.012 302.804 850.566 301.178 843.283 297.927C836 294.675 830.44 290.221 826.604 284.564L835.968 273.737C843.706 283.296 853.167 288.076 864.352 288.076C873.131 288.076 879.959 285.605 884.836 280.663C889.778 275.72 892.249 268.762 892.249 259.788V250.717C885.031 259.04 875.18 263.202 862.694 263.202C850.339 263.202 840.325 258.227 832.652 248.278C825.043 238.329 821.239 224.771 821.239 207.603L821.239 207.604ZM839.381 209.652C839.381 221.552 841.82 230.916 846.697 237.744C851.574 244.507 858.402 247.889 867.181 247.889C878.561 247.889 886.917 242.719 892.249 232.379V184.194C886.722 174.115 878.43 169.075 867.376 169.075C858.597 169.075 851.736 172.489 846.795 179.317C841.852 186.145 839.381 196.257 839.381 209.652H839.381Z" fill="white"/>
<path d="M998.968 233.258C998.968 228.381 997.115 224.609 993.409 221.943C989.767 219.212 983.362 216.871 974.193 214.92C965.089 212.97 957.839 210.629 952.441 207.897C947.109 205.166 943.142 201.915 940.541 198.143C938.005 194.372 936.737 189.885 936.737 184.682C936.737 176.034 940.378 168.718 947.661 162.736C955.01 156.753 964.374 153.762 975.754 153.762C987.719 153.762 997.408 156.851 1004.82 163.028C1012.3 169.206 1016.04 177.107 1016.04 186.731H997.895C997.895 181.789 995.782 177.53 991.555 173.953C987.393 170.376 982.126 168.588 975.753 168.588C969.185 168.588 964.048 170.019 960.342 172.88C956.635 175.741 954.782 179.48 954.782 184.097C954.782 188.454 956.505 191.738 959.952 193.949C963.398 196.16 969.608 198.273 978.582 200.289C987.621 202.305 994.937 204.711 1000.53 207.507C1006.12 210.303 1010.25 213.685 1012.92 217.651C1015.65 221.553 1017.01 226.332 1017.01 231.99C1017.01 241.419 1013.24 248.995 1005.7 254.717C998.155 260.375 988.368 263.203 976.338 263.203C967.884 263.203 960.406 261.708 953.903 258.716C947.4 255.725 942.296 251.563 938.589 246.231C934.948 240.834 933.127 235.014 933.127 228.771H951.173C951.498 234.819 953.904 239.631 958.391 243.207C962.943 246.719 968.925 248.474 976.338 248.474C983.166 248.474 988.629 247.109 992.726 244.378C996.888 241.581 998.968 237.875 998.968 233.258L998.968 233.258Z" fill="white"/>
<path d="M1043.36 261.253V119.237H1089.79C1105.2 119.237 1116.78 122.423 1124.51 128.795C1132.32 135.168 1136.22 144.597 1136.22 157.082C1136.22 163.715 1134.33 169.6 1130.56 174.738C1126.79 179.81 1121.65 183.744 1115.15 186.54C1122.82 188.686 1128.87 192.783 1133.29 198.831C1137.78 204.813 1140.02 211.966 1140.02 220.29C1140.02 233.035 1135.89 243.049 1127.63 250.333C1119.37 257.616 1107.7 261.257 1092.62 261.257H1043.36L1043.36 261.253ZM1062.09 194.828V245.94H1093.01C1101.72 245.94 1108.58 243.696 1113.59 239.209C1118.66 234.657 1121.2 228.415 1121.2 220.481C1121.2 203.379 1111.9 194.828 1093.3 194.828H1062.09L1062.09 194.828ZM1062.09 179.807H1090.37C1098.57 179.807 1105.1 177.758 1109.98 173.661C1114.92 169.565 1117.39 164.005 1117.39 156.982C1117.39 149.178 1115.12 143.521 1110.56 140.01C1106.01 136.433 1099.09 134.645 1089.79 134.645H1062.09V179.807L1062.09 179.807Z" fill="white"/>
<path d="M1160.21 207.51C1160.21 197.17 1162.23 187.871 1166.26 179.613C1170.35 171.355 1176.01 164.982 1183.23 160.495C1190.51 156.008 1198.8 153.765 1208.1 153.765C1222.47 153.765 1234.08 158.739 1242.92 168.688C1251.83 178.637 1256.29 191.87 1256.29 208.387V209.656C1256.29 219.93 1254.3 229.164 1250.34 237.358C1246.44 245.486 1240.81 251.826 1233.46 256.378C1226.18 260.93 1217.79 263.206 1208.3 263.206C1193.99 263.206 1182.38 258.231 1173.48 248.282C1164.64 238.33 1160.22 225.163 1160.22 208.781V207.512L1160.21 207.51ZM1178.35 209.656C1178.35 221.361 1181.05 230.757 1186.45 237.846C1191.91 244.934 1199.19 248.478 1208.3 248.478C1217.47 248.478 1224.75 244.901 1230.15 237.748C1235.54 230.53 1238.24 220.451 1238.24 207.51C1238.24 195.935 1235.48 186.571 1229.95 179.417C1224.49 172.2 1217.21 168.591 1208.1 168.591C1199.19 168.591 1192.01 172.135 1186.55 179.223C1181.08 186.311 1178.35 196.455 1178.35 209.656H1178.35Z" fill="white"/>
<path d="M1344.09 261.254C1343.05 259.173 1342.2 255.466 1341.55 250.133C1333.16 258.847 1323.15 263.204 1311.51 263.204C1301.1 263.204 1292.55 260.278 1285.85 254.425C1279.22 248.508 1275.91 241.03 1275.91 231.991C1275.91 221.001 1280.07 212.483 1288.39 206.435C1296.78 200.322 1308.55 197.266 1323.7 197.266H1341.26V188.975C1341.26 182.667 1339.37 177.66 1335.6 173.954C1331.83 170.182 1326.27 168.296 1318.92 168.296C1312.48 168.296 1307.09 169.922 1302.73 173.173C1298.37 176.425 1296.19 180.359 1296.19 184.976H1278.05C1278.05 179.709 1279.9 174.636 1283.61 169.759C1287.38 164.817 1292.46 160.915 1298.83 158.054C1305.27 155.193 1312.32 153.762 1319.99 153.762C1332.15 153.762 1341.68 156.819 1348.57 162.931C1355.47 168.979 1359.04 177.335 1359.3 187.999V236.574C1359.3 246.263 1360.54 253.969 1363.01 259.692V261.252H1344.09L1344.09 261.254ZM1314.14 247.5C1319.8 247.5 1325.16 246.037 1330.24 243.111C1335.31 240.185 1338.98 236.381 1341.26 231.698V210.044H1327.12C1305.01 210.044 1293.95 216.514 1293.95 229.455C1293.95 235.112 1295.84 239.534 1299.61 242.72C1303.38 245.906 1308.23 247.499 1314.14 247.499L1314.14 247.5Z" fill="white"/>
<path d="M1438.75 171.909C1436.02 171.454 1433.06 171.226 1429.88 171.226C1418.04 171.226 1410.01 176.266 1405.78 186.346V261.258H1387.74V155.716H1405.3L1405.59 167.909C1411.51 158.48 1419.89 153.766 1430.75 153.766C1434.27 153.766 1436.93 154.221 1438.75 155.131V171.909L1438.75 171.909Z" fill="white"/>
<path d="M1450.88 207.604C1450.88 191.412 1454.72 178.406 1462.39 168.587C1470.06 158.703 1480.11 153.761 1492.53 153.761C1504.89 153.761 1514.67 157.988 1521.89 166.442V111.432H1539.94V261.26H1523.35L1522.48 249.945C1515.26 258.789 1505.21 263.211 1492.34 263.211C1480.11 263.211 1470.13 258.204 1462.39 248.189C1454.72 238.175 1450.88 225.105 1450.88 208.978V207.613L1450.88 207.604ZM1468.93 209.652C1468.93 221.617 1471.4 230.981 1476.34 237.744C1481.28 244.507 1488.11 247.889 1496.82 247.889C1508.27 247.889 1516.62 242.751 1521.89 232.477V183.998C1516.49 174.049 1508.2 169.074 1497.02 169.074C1488.17 169.074 1481.28 172.488 1476.34 179.316C1471.4 186.144 1468.93 196.256 1468.93 209.651V209.652Z" fill="white"/>
<path d="M1383.17 335.603H1354.67V358.909H1387.78V366H1346V300.238H1387.33V307.375H1354.67V328.512H1383.17V335.603Z" fill="white"/>
<path d="M1394.33 341.159C1394.33 333.661 1396.1 327.639 1399.66 323.092C1403.21 318.515 1407.86 316.227 1413.61 316.227C1419.33 316.227 1423.87 318.184 1427.21 322.099V296.625H1435.56V366H1427.89L1427.48 360.761C1424.14 364.856 1419.49 366.903 1413.52 366.903C1407.86 366.903 1403.24 364.585 1399.66 359.948C1396.1 355.311 1394.33 349.258 1394.33 341.791V341.159ZM1402.68 342.107C1402.68 347.648 1403.83 351.983 1406.12 355.115C1408.4 358.247 1411.57 359.812 1415.6 359.812C1420.9 359.812 1424.77 357.434 1427.21 352.676V330.229C1424.71 325.622 1420.87 323.318 1415.69 323.318C1411.6 323.318 1408.4 324.899 1406.12 328.061C1403.83 331.222 1402.68 335.904 1402.68 342.107Z" fill="white"/>
<path d="M1446.58 341.159C1446.58 333.541 1448.35 327.488 1451.87 323.002C1455.39 318.485 1460.06 316.227 1465.87 316.227C1471.83 316.227 1476.48 318.335 1479.83 322.55L1480.23 317.13H1487.87V364.826C1487.87 371.149 1485.98 376.132 1482.22 379.776C1478.49 383.419 1473.46 385.241 1467.14 385.241C1463.61 385.241 1460.16 384.488 1456.79 382.982C1453.42 381.477 1450.85 379.414 1449.07 376.795L1453.4 371.781C1456.99 376.208 1461.37 378.421 1466.55 378.421C1470.61 378.421 1473.77 377.276 1476.03 374.988C1478.32 372.7 1479.47 369.478 1479.47 365.323V361.122C1476.12 364.976 1471.56 366.903 1465.78 366.903C1460.06 366.903 1455.42 364.6 1451.87 359.993C1448.35 355.386 1446.58 349.108 1446.58 341.159ZM1454.99 342.107C1454.99 347.617 1456.11 351.953 1458.37 355.115C1460.63 358.247 1463.79 359.812 1467.86 359.812C1473.13 359.812 1477 357.418 1479.47 352.631V330.319C1476.91 325.652 1473.07 323.318 1467.95 323.318C1463.88 323.318 1460.71 324.899 1458.42 328.061C1456.13 331.222 1454.99 335.904 1454.99 342.107Z" fill="white"/>
<path d="M1520.79 366.903C1514.17 366.903 1508.78 364.735 1504.62 360.399C1500.47 356.033 1498.39 350.207 1498.39 342.92V341.385C1498.39 336.537 1499.31 332.216 1501.15 328.422C1503.01 324.598 1505.6 321.617 1508.91 319.479C1512.26 317.311 1515.87 316.227 1519.75 316.227C1526.11 316.227 1531.05 318.32 1534.57 322.505C1538.09 326.691 1539.85 332.683 1539.85 340.481V343.959H1506.75C1506.87 348.777 1508.27 352.676 1510.95 355.657C1513.66 358.608 1517.09 360.083 1521.24 360.083C1524.19 360.083 1526.69 359.481 1528.74 358.277C1530.79 357.072 1532.58 355.476 1534.12 353.489L1539.22 357.464C1535.13 363.757 1528.98 366.903 1520.79 366.903ZM1519.75 323.092C1516.38 323.092 1513.55 324.327 1511.26 326.796C1508.97 329.235 1507.56 332.667 1507.02 337.094H1531.5V336.461C1531.26 332.216 1530.11 328.934 1528.06 326.615C1526.02 324.267 1523.25 323.092 1519.75 323.092Z" fill="white"/>
</svg>
