<svg width="255" height="76" viewBox="0 0 255 76" fill="none" xmlns="http://www.w3.org/2000/svg">
<g filter="url(#filter0_d_4386_64427)">
<rect x="8.66602" y="4.5" width="238" height="59" rx="4" fill="white" shape-rendering="crispEdges"/>
<path d="M69.3066 36.0703C69.3066 35.8359 69.2702 35.6276 69.1973 35.4453C69.1296 35.263 69.0072 35.0964 68.8301 34.9453C68.653 34.7943 68.403 34.6484 68.0801 34.5078C67.7624 34.362 67.3561 34.2135 66.8613 34.0625C66.3197 33.8958 65.8197 33.7109 65.3613 33.5078C64.9082 33.2995 64.5124 33.0599 64.1738 32.7891C63.8353 32.513 63.5723 32.1979 63.3848 31.8438C63.1973 31.4844 63.1035 31.0703 63.1035 30.6016C63.1035 30.138 63.1999 29.7161 63.3926 29.3359C63.5905 28.9557 63.8691 28.6276 64.2285 28.3516C64.5931 28.0703 65.0228 27.8542 65.5176 27.7031C66.0124 27.5469 66.5592 27.4688 67.1582 27.4688C68.002 27.4688 68.7285 27.625 69.3379 27.9375C69.9525 28.25 70.4238 28.6693 70.752 29.1953C71.0853 29.7214 71.252 30.3021 71.252 30.9375H69.3066C69.3066 30.5625 69.2259 30.2318 69.0645 29.9453C68.9082 29.6536 68.6686 29.4245 68.3457 29.2578C68.028 29.0911 67.6243 29.0078 67.1348 29.0078C66.6712 29.0078 66.2858 29.0781 65.9785 29.2188C65.6712 29.3594 65.4421 29.5495 65.291 29.7891C65.14 30.0286 65.0645 30.2995 65.0645 30.6016C65.0645 30.8151 65.1139 31.0104 65.2129 31.1875C65.3118 31.3594 65.4629 31.5208 65.666 31.6719C65.8691 31.8177 66.1243 31.9557 66.4316 32.0859C66.7389 32.2161 67.1009 32.3411 67.5176 32.4609C68.1478 32.6484 68.6973 32.8568 69.166 33.0859C69.6348 33.3099 70.0254 33.5651 70.3379 33.8516C70.6504 34.138 70.8848 34.4635 71.041 34.8281C71.1973 35.1875 71.2754 35.5964 71.2754 36.0547C71.2754 36.5339 71.179 36.9661 70.9863 37.3516C70.7936 37.7318 70.5176 38.0573 70.1582 38.3281C69.804 38.5938 69.377 38.7995 68.877 38.9453C68.3822 39.0859 67.8301 39.1562 67.2207 39.1562C66.6738 39.1562 66.1348 39.0833 65.6035 38.9375C65.0775 38.7917 64.5983 38.5703 64.166 38.2734C63.7337 37.9714 63.39 37.5964 63.1348 37.1484C62.8796 36.6953 62.752 36.1667 62.752 35.5625H64.7129C64.7129 35.9323 64.7754 36.2474 64.9004 36.5078C65.0306 36.7682 65.2103 36.9818 65.4395 37.1484C65.6686 37.3099 65.9342 37.4297 66.2363 37.5078C66.5436 37.5859 66.8717 37.625 67.2207 37.625C67.679 37.625 68.0618 37.5599 68.3691 37.4297C68.6816 37.2995 68.916 37.1172 69.0723 36.8828C69.2285 36.6484 69.3066 36.3776 69.3066 36.0703ZM75.3691 37.125L77.3223 30.5469H78.5254L78.1973 32.5156L76.2285 39H75.1504L75.3691 37.125ZM74.2207 30.5469L75.7441 37.1562L75.8691 39H74.666L72.377 30.5469H74.2207ZM80.3535 37.0781L81.8301 30.5469H83.666L81.3848 39H80.1816L80.3535 37.0781ZM78.7285 30.5469L80.6582 37.0469L80.9004 39H79.8223L77.8301 32.5078L77.502 30.5469H78.7285ZM87.2129 30.5469V39H85.3223V30.5469H87.2129ZM85.1973 28.3281C85.1973 28.0417 85.291 27.8047 85.4785 27.6172C85.6712 27.4245 85.9368 27.3281 86.2754 27.3281C86.6087 27.3281 86.8717 27.4245 87.0645 27.6172C87.2572 27.8047 87.3535 28.0417 87.3535 28.3281C87.3535 28.6094 87.2572 28.8438 87.0645 29.0312C86.8717 29.2188 86.6087 29.3125 86.2754 29.3125C85.9368 29.3125 85.6712 29.2188 85.4785 29.0312C85.291 28.8438 85.1973 28.6094 85.1973 28.3281ZM93.4004 30.5469V31.9219H88.6348V30.5469H93.4004ZM90.0098 28.4766H91.8926V36.6641C91.8926 36.9245 91.929 37.125 92.002 37.2656C92.0801 37.401 92.1868 37.4922 92.3223 37.5391C92.4577 37.5859 92.6165 37.6094 92.7988 37.6094C92.929 37.6094 93.054 37.6016 93.1738 37.5859C93.2936 37.5703 93.39 37.5547 93.4629 37.5391L93.4707 38.9766C93.3145 39.0234 93.1322 39.0651 92.9238 39.1016C92.7207 39.138 92.4863 39.1562 92.2207 39.1562C91.7884 39.1562 91.4056 39.0807 91.0723 38.9297C90.7389 38.7734 90.4785 38.5208 90.291 38.1719C90.1035 37.8229 90.0098 37.3594 90.0098 36.7812V28.4766ZM98.5566 37.6562C98.8639 37.6562 99.14 37.5964 99.3848 37.4766C99.6348 37.3516 99.8353 37.1797 99.9863 36.9609C100.143 36.7422 100.229 36.4896 100.244 36.2031H102.018C102.007 36.75 101.846 37.2474 101.533 37.6953C101.221 38.1432 100.807 38.5 100.291 38.7656C99.7754 39.026 99.2051 39.1562 98.5801 39.1562C97.9342 39.1562 97.3717 39.0469 96.8926 38.8281C96.4134 38.6042 96.015 38.2969 95.6973 37.9062C95.3796 37.5156 95.14 37.0651 94.9785 36.5547C94.8223 36.0443 94.7441 35.4974 94.7441 34.9141V34.6406C94.7441 34.0573 94.8223 33.5104 94.9785 33C95.14 32.4844 95.3796 32.0312 95.6973 31.6406C96.015 31.25 96.4134 30.9453 96.8926 30.7266C97.3717 30.5026 97.9316 30.3906 98.5723 30.3906C99.2493 30.3906 99.8431 30.526 100.354 30.7969C100.864 31.0625 101.265 31.4349 101.557 31.9141C101.854 32.388 102.007 32.9401 102.018 33.5703H100.244C100.229 33.2578 100.15 32.9766 100.01 32.7266C99.8743 32.4714 99.6816 32.2682 99.4316 32.1172C99.1868 31.9661 98.8926 31.8906 98.5488 31.8906C98.1686 31.8906 97.8535 31.9688 97.6035 32.125C97.3535 32.276 97.1582 32.4844 97.0176 32.75C96.877 33.0104 96.7754 33.3047 96.7129 33.6328C96.6556 33.9557 96.627 34.2917 96.627 34.6406V34.9141C96.627 35.263 96.6556 35.6016 96.7129 35.9297C96.7702 36.2578 96.8691 36.5521 97.0098 36.8125C97.1556 37.0677 97.3535 37.2734 97.6035 37.4297C97.8535 37.5807 98.1712 37.6562 98.5566 37.6562ZM105.572 27V39H103.697V27H105.572ZM105.244 34.4609L104.635 34.4531C104.64 33.8698 104.721 33.3307 104.877 32.8359C105.038 32.3411 105.262 31.9115 105.549 31.5469C105.84 31.1771 106.189 30.8932 106.596 30.6953C107.002 30.4922 107.452 30.3906 107.947 30.3906C108.364 30.3906 108.739 30.4479 109.072 30.5625C109.411 30.6771 109.702 30.862 109.947 31.1172C110.192 31.3672 110.377 31.6953 110.502 32.1016C110.632 32.5026 110.697 32.9922 110.697 33.5703V39H108.807V33.5547C108.807 33.1484 108.747 32.8255 108.627 32.5859C108.512 32.3464 108.343 32.1745 108.119 32.0703C107.895 31.9609 107.622 31.9062 107.299 31.9062C106.96 31.9062 106.661 31.974 106.4 32.1094C106.145 32.2448 105.932 32.4297 105.76 32.6641C105.588 32.8984 105.458 33.1693 105.369 33.4766C105.286 33.7839 105.244 34.112 105.244 34.4609Z" fill="black" fill-opacity="0.76"/>
<path d="M130.244 32.9531V33.6719C130.244 34.526 130.137 35.2917 129.924 35.9688C129.71 36.6458 129.403 37.2214 129.002 37.6953C128.601 38.1693 128.119 38.5312 127.557 38.7812C126.999 39.0312 126.374 39.1562 125.682 39.1562C125.01 39.1562 124.393 39.0312 123.83 38.7812C123.273 38.5312 122.788 38.1693 122.377 37.6953C121.971 37.2214 121.656 36.6458 121.432 35.9688C121.208 35.2917 121.096 34.526 121.096 33.6719V32.9531C121.096 32.099 121.205 31.3359 121.424 30.6641C121.648 29.987 121.963 29.4115 122.369 28.9375C122.775 28.4583 123.257 28.0938 123.814 27.8438C124.377 27.5938 124.994 27.4688 125.666 27.4688C126.359 27.4688 126.984 27.5938 127.541 27.8438C128.104 28.0938 128.585 28.4583 128.986 28.9375C129.393 29.4115 129.702 29.987 129.916 30.6641C130.135 31.3359 130.244 32.099 130.244 32.9531ZM128.752 33.6719V32.9375C128.752 32.2604 128.682 31.6615 128.541 31.1406C128.406 30.6198 128.205 30.1823 127.939 29.8281C127.674 29.474 127.348 29.2057 126.963 29.0234C126.583 28.8411 126.15 28.75 125.666 28.75C125.197 28.75 124.773 28.8411 124.393 29.0234C124.018 29.2057 123.695 29.474 123.424 29.8281C123.158 30.1823 122.952 30.6198 122.807 31.1406C122.661 31.6615 122.588 32.2604 122.588 32.9375V33.6719C122.588 34.3542 122.661 34.9583 122.807 35.4844C122.952 36.0052 123.161 36.4453 123.432 36.8047C123.708 37.1589 124.033 37.4271 124.408 37.6094C124.788 37.7917 125.213 37.8828 125.682 37.8828C126.171 37.8828 126.606 37.7917 126.986 37.6094C127.367 37.4271 127.687 37.1589 127.947 36.8047C128.213 36.4453 128.413 36.0052 128.549 35.4844C128.684 34.9583 128.752 34.3542 128.752 33.6719ZM134.589 39H133.144V29.6562C133.144 29.0469 133.254 28.5339 133.472 28.1172C133.696 27.6953 134.017 27.3776 134.433 27.1641C134.85 26.9453 135.345 26.8359 135.918 26.8359C136.084 26.8359 136.251 26.8464 136.418 26.8672C136.589 26.888 136.756 26.9193 136.918 26.9609L136.839 28.1406C136.73 28.1146 136.605 28.0964 136.464 28.0859C136.329 28.0755 136.194 28.0703 136.058 28.0703C135.751 28.0703 135.485 28.1328 135.261 28.2578C135.043 28.3776 134.876 28.5547 134.761 28.7891C134.647 29.0234 134.589 29.3125 134.589 29.6562V39ZM136.386 30.5469V31.6562H131.808V30.5469H136.386ZM140.302 39H138.857V29.6562C138.857 29.0469 138.966 28.5339 139.185 28.1172C139.409 27.6953 139.729 27.3776 140.146 27.1641C140.562 26.9453 141.057 26.8359 141.63 26.8359C141.797 26.8359 141.963 26.8464 142.13 26.8672C142.302 26.888 142.469 26.9193 142.63 26.9609L142.552 28.1406C142.443 28.1146 142.318 28.0964 142.177 28.0859C142.042 28.0755 141.906 28.0703 141.771 28.0703C141.463 28.0703 141.198 28.1328 140.974 28.2578C140.755 28.3776 140.588 28.5547 140.474 28.7891C140.359 29.0234 140.302 29.3125 140.302 29.6562V39ZM142.099 30.5469V31.6562H137.521V30.5469H142.099Z" fill="black" fill-opacity="0.38"/>
<rect x="151.166" y="23" width="42" height="22" rx="11" fill="#00695C"/>
<circle cx="182.166" cy="34" r="9" fill="white"/>
</g>
<defs>
<filter id="filter0_d_4386_64427" x="0.666016" y="0.5" width="254" height="75" filterUnits="userSpaceOnUse" color-interpolation-filters="sRGB">
<feFlood flood-opacity="0" result="BackgroundImageFix"/>
<feColorMatrix in="SourceAlpha" type="matrix" values="0 0 0 0 0 0 0 0 0 0 0 0 0 0 0 0 0 0 127 0" result="hardAlpha"/>
<feOffset dy="4"/>
<feGaussianBlur stdDeviation="4"/>
<feComposite in2="hardAlpha" operator="out"/>
<feColorMatrix type="matrix" values="0 0 0 0 0 0 0 0 0 0 0 0 0 0 0 0 0 0 0.04 0"/>
<feBlend mode="normal" in2="BackgroundImageFix" result="effect1_dropShadow_4386_64427"/>
<feBlend mode="normal" in="SourceGraphic" in2="effect1_dropShadow_4386_64427" result="shape"/>
</filter>
</defs>
</svg>
