<svg width="255" height="76" viewBox="0 0 255 76" fill="none" xmlns="http://www.w3.org/2000/svg">
<g filter="url(#filter0_d_4386_64381)">
<rect x="8.33301" y="4.5" width="238" height="59" rx="4" fill="white" shape-rendering="crispEdges"/>
<path d="M39.4736 36.0703C39.4736 35.8359 39.4372 35.6276 39.3643 35.4453C39.2965 35.263 39.1742 35.0964 38.9971 34.9453C38.82 34.7943 38.57 34.6484 38.2471 34.5078C37.9294 34.362 37.5231 34.2135 37.0283 34.0625C36.4867 33.8958 35.9867 33.7109 35.5283 33.5078C35.0752 33.2995 34.6794 33.0599 34.3408 32.7891C34.0023 32.513 33.7393 32.1979 33.5518 31.8438C33.3643 31.4844 33.2705 31.0703 33.2705 30.6016C33.2705 30.138 33.3669 29.7161 33.5596 29.3359C33.7575 28.9557 34.0361 28.6276 34.3955 28.3516C34.7601 28.0703 35.1898 27.8542 35.6846 27.7031C36.1794 27.5469 36.7262 27.4688 37.3252 27.4688C38.1689 27.4688 38.8955 27.625 39.5049 27.9375C40.1195 28.25 40.5908 28.6693 40.9189 29.1953C41.2523 29.7214 41.4189 30.3021 41.4189 30.9375H39.4736C39.4736 30.5625 39.3929 30.2318 39.2314 29.9453C39.0752 29.6536 38.8356 29.4245 38.5127 29.2578C38.195 29.0911 37.7913 29.0078 37.3018 29.0078C36.8382 29.0078 36.4528 29.0781 36.1455 29.2188C35.8382 29.3594 35.609 29.5495 35.458 29.7891C35.307 30.0286 35.2314 30.2995 35.2314 30.6016C35.2314 30.8151 35.2809 31.0104 35.3799 31.1875C35.4788 31.3594 35.6299 31.5208 35.833 31.6719C36.0361 31.8177 36.2913 31.9557 36.5986 32.0859C36.9059 32.2161 37.2679 32.3411 37.6846 32.4609C38.3148 32.6484 38.8643 32.8568 39.333 33.0859C39.8018 33.3099 40.1924 33.5651 40.5049 33.8516C40.8174 34.138 41.0518 34.4635 41.208 34.8281C41.3643 35.1875 41.4424 35.5964 41.4424 36.0547C41.4424 36.5339 41.346 36.9661 41.1533 37.3516C40.9606 37.7318 40.6846 38.0573 40.3252 38.3281C39.971 38.5938 39.5439 38.7995 39.0439 38.9453C38.5492 39.0859 37.9971 39.1562 37.3877 39.1562C36.8408 39.1562 36.3018 39.0833 35.7705 38.9375C35.2445 38.7917 34.7653 38.5703 34.333 38.2734C33.9007 37.9714 33.557 37.5964 33.3018 37.1484C33.0465 36.6953 32.9189 36.1667 32.9189 35.5625H34.8799C34.8799 35.9323 34.9424 36.2474 35.0674 36.5078C35.1976 36.7682 35.3773 36.9818 35.6064 37.1484C35.8356 37.3099 36.1012 37.4297 36.4033 37.5078C36.7106 37.5859 37.0387 37.625 37.3877 37.625C37.846 37.625 38.2288 37.5599 38.5361 37.4297C38.8486 37.2995 39.083 37.1172 39.2393 36.8828C39.3955 36.6484 39.4736 36.3776 39.4736 36.0703ZM45.5361 37.125L47.4893 30.5469H48.6924L48.3643 32.5156L46.3955 39H45.3174L45.5361 37.125ZM44.3877 30.5469L45.9111 37.1562L46.0361 39H44.833L42.5439 30.5469H44.3877ZM50.5205 37.0781L51.9971 30.5469H53.833L51.5518 39H50.3486L50.5205 37.0781ZM48.8955 30.5469L50.8252 37.0469L51.0674 39H49.9893L47.9971 32.5078L47.6689 30.5469H48.8955ZM57.3799 30.5469V39H55.4893V30.5469H57.3799ZM55.3643 28.3281C55.3643 28.0417 55.458 27.8047 55.6455 27.6172C55.8382 27.4245 56.1038 27.3281 56.4424 27.3281C56.7757 27.3281 57.0387 27.4245 57.2314 27.6172C57.4242 27.8047 57.5205 28.0417 57.5205 28.3281C57.5205 28.6094 57.4242 28.8438 57.2314 29.0312C57.0387 29.2188 56.7757 29.3125 56.4424 29.3125C56.1038 29.3125 55.8382 29.2188 55.6455 29.0312C55.458 28.8438 55.3643 28.6094 55.3643 28.3281ZM63.5674 30.5469V31.9219H58.8018V30.5469H63.5674ZM60.1768 28.4766H62.0596V36.6641C62.0596 36.9245 62.096 37.125 62.1689 37.2656C62.2471 37.401 62.3538 37.4922 62.4893 37.5391C62.6247 37.5859 62.7835 37.6094 62.9658 37.6094C63.096 37.6094 63.221 37.6016 63.3408 37.5859C63.4606 37.5703 63.557 37.5547 63.6299 37.5391L63.6377 38.9766C63.4814 39.0234 63.2992 39.0651 63.0908 39.1016C62.8877 39.138 62.6533 39.1562 62.3877 39.1562C61.9554 39.1562 61.5726 39.0807 61.2393 38.9297C60.9059 38.7734 60.6455 38.5208 60.458 38.1719C60.2705 37.8229 60.1768 37.3594 60.1768 36.7812V28.4766ZM68.7236 37.6562C69.0309 37.6562 69.307 37.5964 69.5518 37.4766C69.8018 37.3516 70.0023 37.1797 70.1533 36.9609C70.3096 36.7422 70.3955 36.4896 70.4111 36.2031H72.1846C72.1742 36.75 72.0127 37.2474 71.7002 37.6953C71.3877 38.1432 70.9736 38.5 70.458 38.7656C69.9424 39.026 69.3721 39.1562 68.7471 39.1562C68.1012 39.1562 67.5387 39.0469 67.0596 38.8281C66.5804 38.6042 66.182 38.2969 65.8643 37.9062C65.5465 37.5156 65.307 37.0651 65.1455 36.5547C64.9893 36.0443 64.9111 35.4974 64.9111 34.9141V34.6406C64.9111 34.0573 64.9893 33.5104 65.1455 33C65.307 32.4844 65.5465 32.0312 65.8643 31.6406C66.182 31.25 66.5804 30.9453 67.0596 30.7266C67.5387 30.5026 68.0986 30.3906 68.7393 30.3906C69.4163 30.3906 70.0101 30.526 70.5205 30.7969C71.0309 31.0625 71.432 31.4349 71.7236 31.9141C72.0205 32.388 72.1742 32.9401 72.1846 33.5703H70.4111C70.3955 33.2578 70.3174 32.9766 70.1768 32.7266C70.0413 32.4714 69.8486 32.2682 69.5986 32.1172C69.3538 31.9661 69.0596 31.8906 68.7158 31.8906C68.3356 31.8906 68.0205 31.9688 67.7705 32.125C67.5205 32.276 67.3252 32.4844 67.1846 32.75C67.0439 33.0104 66.9424 33.3047 66.8799 33.6328C66.8226 33.9557 66.7939 34.2917 66.7939 34.6406V34.9141C66.7939 35.263 66.8226 35.6016 66.8799 35.9297C66.9372 36.2578 67.0361 36.5521 67.1768 36.8125C67.3226 37.0677 67.5205 37.2734 67.7705 37.4297C68.0205 37.5807 68.3382 37.6562 68.7236 37.6562ZM75.7393 27V39H73.8643V27H75.7393ZM75.4111 34.4609L74.8018 34.4531C74.807 33.8698 74.8877 33.3307 75.0439 32.8359C75.2054 32.3411 75.4294 31.9115 75.7158 31.5469C76.0075 31.1771 76.3564 30.8932 76.7627 30.6953C77.1689 30.4922 77.6195 30.3906 78.1143 30.3906C78.5309 30.3906 78.9059 30.4479 79.2393 30.5625C79.5778 30.6771 79.8695 30.862 80.1143 31.1172C80.359 31.3672 80.5439 31.6953 80.6689 32.1016C80.7992 32.5026 80.8643 32.9922 80.8643 33.5703V39H78.9736V33.5547C78.9736 33.1484 78.9137 32.8255 78.7939 32.5859C78.6794 32.3464 78.5101 32.1745 78.2861 32.0703C78.0622 31.9609 77.7887 31.9062 77.4658 31.9062C77.1273 31.9062 76.8278 31.974 76.5674 32.1094C76.3122 32.2448 76.0986 32.4297 75.9268 32.6641C75.7549 32.8984 75.6247 33.1693 75.5361 33.4766C75.4528 33.7839 75.4111 34.112 75.4111 34.4609Z" fill="black" fill-opacity="0.76"/>
<path d="M159.411 32.9531V33.6719C159.411 34.526 159.304 35.2917 159.091 35.9688C158.877 36.6458 158.57 37.2214 158.169 37.6953C157.768 38.1693 157.286 38.5312 156.724 38.7812C156.166 39.0312 155.541 39.1562 154.849 39.1562C154.177 39.1562 153.56 39.0312 152.997 38.7812C152.44 38.5312 151.955 38.1693 151.544 37.6953C151.138 37.2214 150.823 36.6458 150.599 35.9688C150.375 35.2917 150.263 34.526 150.263 33.6719V32.9531C150.263 32.099 150.372 31.3359 150.591 30.6641C150.815 29.987 151.13 29.4115 151.536 28.9375C151.942 28.4583 152.424 28.0938 152.981 27.8438C153.544 27.5938 154.161 27.4688 154.833 27.4688C155.526 27.4688 156.151 27.5938 156.708 27.8438C157.271 28.0938 157.752 28.4583 158.153 28.9375C158.56 29.4115 158.869 29.987 159.083 30.6641C159.302 31.3359 159.411 32.099 159.411 32.9531ZM157.919 33.6719V32.9375C157.919 32.2604 157.849 31.6615 157.708 31.1406C157.573 30.6198 157.372 30.1823 157.106 29.8281C156.841 29.474 156.515 29.2057 156.13 29.0234C155.75 28.8411 155.317 28.75 154.833 28.75C154.364 28.75 153.94 28.8411 153.56 29.0234C153.185 29.2057 152.862 29.474 152.591 29.8281C152.325 30.1823 152.119 30.6198 151.974 31.1406C151.828 31.6615 151.755 32.2604 151.755 32.9375V33.6719C151.755 34.3542 151.828 34.9583 151.974 35.4844C152.119 36.0052 152.328 36.4453 152.599 36.8047C152.875 37.1589 153.2 37.4271 153.575 37.6094C153.955 37.7917 154.38 37.8828 154.849 37.8828C155.338 37.8828 155.773 37.7917 156.153 37.6094C156.534 37.4271 156.854 37.1589 157.114 36.8047C157.38 36.4453 157.58 36.0052 157.716 35.4844C157.851 34.9583 157.919 34.3542 157.919 33.6719ZM163.756 39H162.311V29.6562C162.311 29.0469 162.421 28.5339 162.639 28.1172C162.863 27.6953 163.184 27.3776 163.6 27.1641C164.017 26.9453 164.512 26.8359 165.085 26.8359C165.251 26.8359 165.418 26.8464 165.585 26.8672C165.756 26.888 165.923 26.9193 166.085 26.9609L166.006 28.1406C165.897 28.1146 165.772 28.0964 165.631 28.0859C165.496 28.0755 165.361 28.0703 165.225 28.0703C164.918 28.0703 164.652 28.1328 164.428 28.2578C164.21 28.3776 164.043 28.5547 163.928 28.7891C163.814 29.0234 163.756 29.3125 163.756 29.6562V39ZM165.553 30.5469V31.6562H160.975V30.5469H165.553ZM169.469 39H168.024V29.6562C168.024 29.0469 168.133 28.5339 168.352 28.1172C168.576 27.6953 168.896 27.3776 169.313 27.1641C169.729 26.9453 170.224 26.8359 170.797 26.8359C170.964 26.8359 171.13 26.8464 171.297 26.8672C171.469 26.888 171.636 26.9193 171.797 26.9609L171.719 28.1406C171.61 28.1146 171.485 28.0964 171.344 28.0859C171.209 28.0755 171.073 28.0703 170.938 28.0703C170.63 28.0703 170.365 28.1328 170.141 28.2578C169.922 28.3776 169.755 28.5547 169.641 28.7891C169.526 29.0234 169.469 29.3125 169.469 29.6562V39ZM171.266 30.5469V31.6562H166.688V30.5469H171.266Z" fill="black" fill-opacity="0.38"/>
<rect x="180.333" y="23" width="42" height="22" rx="11" fill="#00695C"/>
<circle cx="211.333" cy="34" r="9" fill="white"/>
</g>
<defs>
<filter id="filter0_d_4386_64381" x="0.333008" y="0.5" width="254" height="75" filterUnits="userSpaceOnUse" color-interpolation-filters="sRGB">
<feFlood flood-opacity="0" result="BackgroundImageFix"/>
<feColorMatrix in="SourceAlpha" type="matrix" values="0 0 0 0 0 0 0 0 0 0 0 0 0 0 0 0 0 0 127 0" result="hardAlpha"/>
<feOffset dy="4"/>
<feGaussianBlur stdDeviation="4"/>
<feComposite in2="hardAlpha" operator="out"/>
<feColorMatrix type="matrix" values="0 0 0 0 0 0 0 0 0 0 0 0 0 0 0 0 0 0 0.04 0"/>
<feBlend mode="normal" in2="BackgroundImageFix" result="effect1_dropShadow_4386_64381"/>
<feBlend mode="normal" in="SourceGraphic" in2="effect1_dropShadow_4386_64381" result="shape"/>
</filter>
</defs>
</svg>
