<?xml version="1.0" encoding="UTF-8"?>
<svg width="213" height="75" fill="none" version="1.1" xmlns="http://www.w3.org/2000/svg">
 <rect x="8" y="4" width="197" height="59" rx="4" fill="#fff" shape-rendering="crispEdges"/>
 <rect x="20" y="17.5" width="32" height="32" rx="16" fill="#00695C"/>
 <path d="m38 39.5 1.41-1.41-4.58-4.59 4.58-4.59L38 27.5l-6 6 6 6z" fill="#fff"/>
 <path d="m64.5 21.5a3.5 3.5 0 0 1 3.5-3.5h77a3.5 3.5 0 0 1 3.5 3.5v24a3.5 3.5 0 0 1-3.5 3.5h-77a3.5 3.5 0 0 1-3.5-3.5z" stroke="#00695c"/>
 <path d="M105.77 37v1.5h-7.63v-1.29l3.7-4.04c.41-.46.73-.85.97-1.19.23-.33.4-.63.5-.9a2.29 2.29 0 0 0-.06-1.73c-.13-.27-.33-.5-.58-.65a1.7 1.7 0 0 0-.93-.24c-.42 0-.78.1-1.06.27-.3.19-.5.44-.65.76a2.6 2.6 0 0 0-.22 1.1h-1.88c0-.67.15-1.27.45-1.82.3-.55.74-.99 1.31-1.3a4.1 4.1 0 0 1 2.07-.5c.76 0 1.4.13 1.94.38.53.26.93.62 1.21 1.09.28.47.42 1.02.42 1.66 0 .36-.06.7-.17 1.06-.11.35-.28.7-.5 1.04a9 9 0 0 1-.73 1.04c-.3.35-.6.7-.95 1.05L100.52 37h5.25zm9.27-9.88v1.04L110.5 38.5h-1.99l4.54-9.87h-5.89v-1.5h7.88z" fill="#000" fill-opacity=".87"/>
 <rect x="161" y="17.5" width="32" height="32" rx="16" fill="#00695C"/>
 <path d="m175 27.5-1.41 1.41 4.58 4.59-4.58 4.59L175 39.5l6-6-6-6z" fill="#fff"/>
</svg>
