<svg width="28" height="28" viewBox="0 0 28 28" fill="none" xmlns="http://www.w3.org/2000/svg">
<path d="M21.1997 21.5348C20.4421 22.8469 18.9647 23.6387 17.1015 23.7946C15.2406 23.9503 13.0449 23.4618 10.9715 22.2648C8.89806 21.0677 7.37714 19.4103 6.58154 17.7209C5.78498 16.0294 5.73194 14.354 6.48953 13.0418C7.24712 11.7296 8.72457 10.9379 10.5877 10.782C12.4486 10.6263 14.6444 11.1147 16.7178 12.3118C18.7912 13.5089 20.3121 15.1662 21.1077 16.8557C21.9043 18.5472 21.9573 20.2226 21.1997 21.5348Z" stroke="url(#paint0_linear_3092_173952)"/>
<path d="M17.7471 9.73233C18.5269 10.1826 18.973 11.3283 18.8461 13.0755C18.722 14.7844 18.0516 16.8975 16.8422 18.9924C15.6328 21.0872 14.1379 22.7243 12.72 23.6862C11.2704 24.6696 10.0551 24.8563 9.27526 24.406C8.49544 23.9558 8.04942 22.81 8.17628 21.0629C8.30035 19.354 8.97074 17.2408 10.1802 15.146C11.3896 13.0512 12.8845 11.414 14.3024 10.4522C15.752 9.46873 16.9673 9.28211 17.7471 9.73233Z" stroke="url(#paint1_linear_3092_173952)"/>
<path d="M20.5571 12.3651C21.0571 13.1139 20.9499 14.3388 20.0628 15.8493C19.1952 17.3268 17.6587 18.9249 15.647 20.2681C13.6353 21.6112 11.5701 22.4176 9.87299 22.6525C8.13776 22.8927 6.9654 22.5221 6.46541 21.7733C5.96543 21.0244 6.07262 19.7995 6.95971 18.289C7.82734 16.8116 9.36383 15.2134 11.3755 13.8703C13.3873 12.5272 15.4524 11.7208 17.1495 11.4858C18.8848 11.2456 20.0571 11.6162 20.5571 12.3651Z" stroke="url(#paint2_linear_3092_173952)"/>
<path d="M13.9995 8.5C18.6939 8.5 22.4995 12.3056 22.4995 17C22.4995 21.6944 18.6939 25.5 13.9995 25.5C9.30509 25.5 5.49951 21.6944 5.49951 17C5.49951 12.3056 9.30509 8.5 13.9995 8.5Z" stroke="url(#paint3_linear_3092_173952)"/>
<path fill-rule="evenodd" clip-rule="evenodd" d="M14.5 2.03076C14.5 1.75462 14.2761 1.53076 14 1.53076C13.7239 1.53076 13.5 1.75462 13.5 2.03076V5.17942C13.5 5.45556 13.7239 5.67942 14 5.67942C14.2761 5.67942 14.5 5.45556 14.5 5.17942V2.03076ZM21.7401 3.43244C21.9814 3.56661 22.0683 3.87103 21.9342 4.11239L20.4368 6.8061C20.3026 7.04746 19.9982 7.13436 19.7569 7.00019C19.5155 6.86603 19.4286 6.5616 19.5628 6.32025L21.0601 3.62654C21.1943 3.38518 21.4987 3.29828 21.7401 3.43244ZM27.2462 9.10475C27.3874 9.34205 27.3095 9.64891 27.0722 9.79012L24.6844 11.2111C24.4471 11.3523 24.1403 11.2744 23.9991 11.0371C23.8578 10.7998 23.9357 10.493 24.173 10.3517L26.5608 8.93077C26.7981 8.78956 27.105 8.86745 27.2462 9.10475ZM6.0975 3.54283C6.33391 3.40013 6.64125 3.47609 6.78395 3.71251L8.34869 6.30477C8.49139 6.54118 8.41542 6.84851 8.17901 6.99121C7.9426 7.13392 7.63527 7.05795 7.49256 6.82154L5.92783 4.22928C5.78512 3.99287 5.86109 3.68553 6.0975 3.54283ZM1.00786 8.96363C0.767007 8.82855 0.462257 8.91429 0.327177 9.15514C0.192098 9.39599 0.277841 9.70074 0.51869 9.83582L3.18786 11.3328C3.42871 11.4679 3.73346 11.3821 3.86854 11.1413C4.00362 10.9004 3.91787 10.5957 3.67702 10.4606L1.00786 8.96363Z" fill="#979797"/>
<defs>
<linearGradient id="paint0_linear_3092_173952" x1="16.8861" y1="15.9735" x2="10.7215" y2="22.6978" gradientUnits="userSpaceOnUse">
<stop stop-color="#979797" stop-opacity="0"/>
<stop offset="0.510417" stop-color="#979797"/>
</linearGradient>
<linearGradient id="paint1_linear_3092_173952" x1="9.52845" y1="14.9881" x2="14.9708" y2="17.7825" gradientUnits="userSpaceOnUse">
<stop offset="0.369792" stop-color="#979797"/>
<stop offset="1" stop-color="#979797" stop-opacity="0"/>
</linearGradient>
<linearGradient id="paint2_linear_3092_173952" x1="17.2146" y1="10.8494" x2="16.689" y2="17.0692" gradientUnits="userSpaceOnUse">
<stop offset="0.369792" stop-color="#979797"/>
<stop offset="1" stop-color="#979797" stop-opacity="0"/>
</linearGradient>
<linearGradient id="paint3_linear_3092_173952" x1="7.82042" y1="12.5575" x2="21.5995" y2="21.8" gradientUnits="userSpaceOnUse">
<stop stop-color="#979797" stop-opacity="0"/>
<stop offset="0.520833" stop-color="#979797"/>
</linearGradient>
</defs>
</svg>
