<?xml version="1.0" encoding="utf-8"?>
<!-- Generator: Adobe Illustrator 27.7.0, SVG Export Plug-In . SVG Version: 6.00 Build 0)  -->
<svg version="1.1" id="Шар_1" xmlns="http://www.w3.org/2000/svg" xmlns:xlink="http://www.w3.org/1999/xlink" x="0px" y="0px"
	 viewBox="0 0 27.4 29.8" style="enable-background:new 0 0 27.4 29.8;" xml:space="preserve">
<style type="text/css">
	.st0{fill:#FFFFFF;}
	.st1{fill:#333333;}
</style>
<g>
	<g>
		<rect class="st0" width="27.4" height="29.8"/>
		<g transform="translate(0 7)">
			<path id="a" class="st1" d="M8.8-4.5c1.4,0,2.6,1.1,2.6,2.6c0,0.8-0.4,1.5-1,2l1.1,2.4c0.6-0.2,1.3-0.3,2-0.3
				c1.2,0,2.3,0.4,3.3,1l2.3-2.1l0,0c0-0.1,0-0.3-0.1-0.4V0.5V0.4c0-2.1,1.6-3.7,3.7-3.7s3.7,1.7,3.7,3.7s-1.6,3.7-3.7,3.7
				c-0.4,0-0.7-0.1-1.1-0.2l-0.3-0.1h-0.1l-2.3,1.9c0.3,0.7,0.5,1.6,0.5,2.4c0,0.7-0.1,1.4-0.4,2.1l2.6,1.3c0.5-0.5,1.1-0.8,1.9-0.8
				c1.4,0,2.6,1.1,2.6,2.6s-1.1,2.6-2.6,2.6c-1.4,0-2.6-1.1-2.6-2.6c0-0.2,0-0.5,0.1-0.7l-2.5-1.2c-0.5,0.8-1.2,1.5-2,2l0.2,0.8h0.1
				c1.6,0.3,2.9,1.7,3,3.4v0.2v0.1c0,2.1-1.7,3.7-3.7,3.7s-3.7-1.7-3.7-3.7c0-0.8,0.3-1.6,0.8-2.3l0.1-0.2l0.1-0.1l-0.3-1.1
				c-1.7-0.1-3.2-0.8-4.3-2l-1.7,1.2c0.1,0.3,0.2,0.7,0.2,1c0,1.4-1.1,2.6-2.6,2.6c-1.4,0-2.6-1.1-2.6-2.6s1.1-2.6,2.6-2.6
				c0.6,0,1.2,0.2,1.6,0.6L8,11.2c-0.5-0.9-0.8-1.9-0.8-3.1c0-2.2,1.2-4.2,3-5.2L9.4,0.5c-0.2,0-0.3,0.1-0.5,0.1
				C7.5,0.6,6.3-0.5,6.3-2S7.4-4.5,8.8-4.5L8.8-4.5L8.8-4.5z M16,15.2l-0.4-1.4l0,0c-0.2,0.1-0.4,0.1-0.6,0.2l-0.5,0.1l0.4,1.5
				l-0.3,0.2c-0.6,0.5-0.9,1.2-0.9,1.9c0,1.4,1.1,2.6,2.6,2.6c1.4,0,2.6-1.1,2.6-2.6c0-1.3-1-2.4-2.3-2.5h-0.2L16,15.2L16,15.2
				L16,15.2z M5,13c-0.8,0-1.4,0.6-1.4,1.4s0.6,1.4,1.4,1.4s1.4-0.6,1.4-1.4C6.3,13.6,5.7,13,5,13z M23.6,11.8
				c-0.8,0-1.4,0.6-1.4,1.4s0.6,1.4,1.4,1.4S25,14,25,13.2S24.4,11.8,23.6,11.8z M13.5,3.3c-2.7,0-4.9,2.2-4.9,4.8s2.2,4.8,4.9,4.8
				s4.9-2.2,4.9-4.8S16.2,3.3,13.5,3.3z M22.7-2.2c-1.4,0-2.5,1.1-2.5,2.6c0,0.2,0,0.4,0.1,0.6l0.1,0.2l0,0.3l-2.7,2.2l0.7,0.9
				l2.7-2.2l0.4,0.2c0.4,0.2,0.8,0.3,1.2,0.3c1.4,0,2.5-1.1,2.5-2.6S24.1-2.2,22.7-2.2L22.7-2.2L22.7-2.2z M8.8-3.3
				C8-3.3,7.4-2.7,7.4-1.9S8-0.5,8.8-0.5s1.4-0.6,1.4-1.4S9.6-3.3,8.8-3.3z"/>
		</g>
	</g>
</g>
</svg>
