<?xml version="1.0" standalone="no"?>
<!DOCTYPE svg PUBLIC "-//W3C//DTD SVG 20010904//EN"
 "http://www.w3.org/TR/2001/REC-SVG-20010904/DTD/svg10.dtd">
<svg version="1.0" xmlns="http://www.w3.org/2000/svg"
 width="72.000000pt" height="72.000000pt" viewBox="0 0 72.000000 72.000000"
 preserveAspectRatio="xMidYMid meet">

<g transform="translate(0.000000,72.000000) scale(0.100000,-0.100000)"
fill="#000000" stroke="none">
<path d="M180 640 c-41 -44 -57 -127 -39 -200 9 -36 19 -55 29 -55 8 0 13 7
12 15 -10 42 -14 122 -8 155 9 47 46 85 83 85 46 0 126 -44 170 -94 22 -25 48
-46 57 -46 45 0 -61 116 -138 151 -22 10 -63 19 -89 19 -42 0 -53 -5 -77 -30z"/>
<path d="M343 494 c-3 -8 1 -22 9 -30 13 -13 16 -13 28 0 10 13 10 19 0 31
-16 19 -29 19 -37 -1z"/>
<path d="M480 450 c0 -17 7 -20 41 -20 31 0 47 -6 70 -29 16 -16 29 -37 29
-46 0 -23 -69 -225 -86 -252 -16 -25 -44 -29 -75 -13 -11 7 -26 7 -35 2 -13
-7 -11 -11 11 -26 49 -32 109 -20 133 26 28 55 82 226 82 260 0 65 -66 118
-147 118 -16 0 -23 -6 -23 -20z"/>
<path d="M278 405 c-10 -22 -8 -33 10 -70 15 -32 28 -45 42 -45 19 0 20 1 5
30 -20 38 -20 80 0 80 8 0 15 7 15 15 0 10 -10 15 -30 15 -23 0 -33 -6 -42
-25z"/>
<path d="M380 419 c0 -7 8 -18 17 -25 18 -13 18 -14 -12 -86 -5 -14 -2 -18 12
-18 39 0 70 99 41 128 -15 15 -58 16 -58 1z"/>
<path d="M97 372 c-9 -10 -22 -33 -28 -50 -24 -69 58 -165 169 -198 72 -22
178 -16 169 10 -2 7 -32 11 -74 12 -56 0 -82 6 -127 28 -91 44 -132 121 -90
167 11 12 13 23 7 34 -8 14 -11 14 -26 -3z"/>
<path d="M212 368 c-28 -28 0 -88 41 -88 23 0 21 13 -3 35 -14 13 -17 22 -10
29 14 14 13 36 -3 36 -7 0 -18 -5 -25 -12z"/>
<path d="M484 354 c5 -20 1 -33 -15 -50 -22 -23 -22 -24 -2 -24 22 0 63 39 63
61 0 19 -20 39 -38 39 -10 0 -12 -7 -8 -26z"/>
<path d="M288 253 c-10 -2 -18 -10 -18 -17 0 -9 26 -12 95 -13 69 0 95 3 95
12 0 7 -10 15 -22 19 -26 6 -124 6 -150 -1z"/>
</g>
</svg>
