<svg width="250" height="128" viewBox="0 0 250 128" fill="none" xmlns="http://www.w3.org/2000/svg">
<g filter="url(#filter0_d_4559_125692)">
<rect x="8.5" y="4" width="233" height="112" rx="3.50376" fill="white" shape-rendering="crispEdges"/>
<path d="M35.3585 27.1438V38.5188H33.4132V27.1438H35.3585ZM38.9288 27.1438V28.7063H29.8741V27.1438H38.9288ZM43.4679 38.675C42.8429 38.675 42.2778 38.5735 41.7726 38.3704C41.2726 38.162 40.8455 37.873 40.4913 37.5032C40.1424 37.1334 39.8741 36.6985 39.6866 36.1985C39.4991 35.6985 39.4054 35.1594 39.4054 34.5813V34.2688C39.4054 33.6073 39.5017 33.0084 39.6945 32.4719C39.8872 31.9355 40.1554 31.4771 40.4991 31.0969C40.8429 30.7115 41.2491 30.4172 41.7179 30.2141C42.1866 30.011 42.6945 29.9094 43.2413 29.9094C43.8455 29.9094 44.3741 30.011 44.8273 30.2141C45.2804 30.4172 45.6554 30.7037 45.9523 31.0735C46.2544 31.4381 46.4783 31.873 46.6241 32.3782C46.7752 32.8834 46.8507 33.4407 46.8507 34.05V34.8547H40.3195V33.5032H44.9913V33.3547C44.9809 33.0162 44.9132 32.6985 44.7882 32.4016C44.6684 32.1047 44.4835 31.8652 44.2335 31.6829C43.9835 31.5006 43.6502 31.4094 43.2335 31.4094C42.921 31.4094 42.6424 31.4771 42.3976 31.6125C42.158 31.7428 41.9575 31.9329 41.796 32.1829C41.6346 32.4329 41.5096 32.7349 41.421 33.0891C41.3377 33.4381 41.296 33.8313 41.296 34.2688V34.5813C41.296 34.9511 41.3455 35.2948 41.4445 35.6125C41.5486 35.925 41.6997 36.1985 41.8976 36.4329C42.0955 36.6672 42.3351 36.8521 42.6163 36.9875C42.8976 37.1178 43.2179 37.1829 43.5773 37.1829C44.0304 37.1829 44.434 37.0917 44.7882 36.9094C45.1424 36.7271 45.4497 36.4693 45.7101 36.136L46.7023 37.0969C46.52 37.3625 46.283 37.6178 45.9913 37.8625C45.6997 38.1021 45.3429 38.2974 44.921 38.4485C44.5044 38.5995 44.02 38.675 43.4679 38.675ZM50.4523 31.7844V38.5188H48.5695V30.0657H50.3429L50.4523 31.7844ZM50.1476 33.9797L49.507 33.9719C49.507 33.3886 49.5799 32.8495 49.7257 32.3547C49.8715 31.8599 50.0851 31.4303 50.3663 31.0657C50.6476 30.6959 50.9965 30.412 51.4132 30.2141C51.8351 30.011 52.3221 29.9094 52.8741 29.9094C53.2596 29.9094 53.6111 29.9667 53.9288 30.0813C54.2517 30.1907 54.5304 30.3652 54.7648 30.6047C55.0044 30.8443 55.1866 31.1516 55.3116 31.5266C55.4419 31.9016 55.507 32.3547 55.507 32.886V38.5188H53.6241V33.05C53.6241 32.6386 53.5616 32.3157 53.4366 32.0813C53.3169 31.8469 53.1424 31.6803 52.9132 31.5813C52.6892 31.4771 52.421 31.425 52.1085 31.425C51.7544 31.425 51.4523 31.4928 51.2023 31.6282C50.9575 31.7636 50.757 31.9485 50.6007 32.1829C50.4445 32.4172 50.3299 32.6881 50.257 32.9954C50.184 33.3027 50.1476 33.6308 50.1476 33.9797ZM55.3898 33.4797L54.507 33.675C54.507 33.1646 54.5773 32.6829 54.7179 32.2297C54.8637 31.7714 55.0747 31.3704 55.3507 31.0266C55.632 30.6777 55.9783 30.4042 56.3898 30.2063C56.8012 30.0084 57.2726 29.9094 57.8038 29.9094C58.2361 29.9094 58.6215 29.9693 58.9601 30.0891C59.3038 30.2037 59.5955 30.386 59.8351 30.636C60.0747 30.886 60.257 31.2115 60.382 31.6125C60.507 32.0084 60.5695 32.4875 60.5695 33.05V38.5188H58.6788V33.0422C58.6788 32.6152 58.6163 32.2844 58.4913 32.05C58.3715 31.8157 58.1997 31.6542 57.9757 31.5657C57.7517 31.4719 57.4835 31.425 57.171 31.425C56.8794 31.425 56.6215 31.4797 56.3976 31.5891C56.1788 31.6933 55.9939 31.8417 55.8429 32.0344C55.6919 32.2219 55.5773 32.4381 55.4991 32.6829C55.4262 32.9277 55.3898 33.1933 55.3898 33.4797ZM64.6476 31.6907V41.7688H62.7648V30.0657H64.4991L64.6476 31.6907ZM70.1554 34.2141V34.3782C70.1554 34.9928 70.0825 35.5631 69.9366 36.0891C69.796 36.6099 69.5851 37.0657 69.3038 37.4563C69.0278 37.8417 68.6866 38.1412 68.2804 38.3547C67.8741 38.5683 67.4054 38.675 66.8741 38.675C66.3481 38.675 65.8872 38.5787 65.4913 38.386C65.1007 38.1881 64.77 37.9094 64.4991 37.55C64.2283 37.1907 64.0096 36.7688 63.8429 36.2844C63.6814 35.7948 63.5669 35.2584 63.4991 34.675V34.0422C63.5669 33.4224 63.6814 32.8599 63.8429 32.3547C64.0096 31.8495 64.2283 31.4146 64.4991 31.05C64.77 30.6855 65.1007 30.4042 65.4913 30.2063C65.882 30.0084 66.3377 29.9094 66.8585 29.9094C67.3898 29.9094 67.8611 30.0136 68.2726 30.2219C68.684 30.425 69.0304 30.7167 69.3116 31.0969C69.5929 31.4719 69.8038 31.925 69.9445 32.4563C70.0851 32.9823 70.1554 33.5683 70.1554 34.2141ZM68.2726 34.3782V34.2141C68.2726 33.8235 68.2361 33.4615 68.1632 33.1282C68.0903 32.7896 67.9757 32.4928 67.8195 32.2375C67.6632 31.9823 67.4627 31.7844 67.2179 31.6438C66.9783 31.498 66.6892 31.425 66.3507 31.425C66.0174 31.425 65.7309 31.4823 65.4913 31.5969C65.2517 31.7063 65.0512 31.8599 64.8898 32.0579C64.7283 32.2558 64.6033 32.4875 64.5148 32.7532C64.4262 33.0136 64.3637 33.2974 64.3273 33.6047V35.1204C64.3898 35.4954 64.4965 35.8391 64.6476 36.1516C64.7986 36.4641 65.0122 36.7141 65.2882 36.9016C65.5695 37.0839 65.9288 37.175 66.3663 37.175C66.7049 37.175 66.9939 37.1021 67.2335 36.9563C67.4731 36.8105 67.6684 36.6099 67.8195 36.3547C67.9757 36.0943 68.0903 35.7948 68.1632 35.4563C68.2361 35.1178 68.2726 34.7584 68.2726 34.3782ZM75.7335 38.675C75.1085 38.675 74.5434 38.5735 74.0382 38.3704C73.5382 38.162 73.1111 37.873 72.757 37.5032C72.408 37.1334 72.1398 36.6985 71.9523 36.1985C71.7648 35.6985 71.671 35.1594 71.671 34.5813V34.2688C71.671 33.6073 71.7674 33.0084 71.9601 32.4719C72.1528 31.9355 72.421 31.4771 72.7648 31.0969C73.1085 30.7115 73.5148 30.4172 73.9835 30.2141C74.4523 30.011 74.9601 29.9094 75.507 29.9094C76.1111 29.9094 76.6398 30.011 77.0929 30.2141C77.546 30.4172 77.921 30.7037 78.2179 31.0735C78.52 31.4381 78.7439 31.873 78.8898 32.3782C79.0408 32.8834 79.1163 33.4407 79.1163 34.05V34.8547H72.5851V33.5032H77.257V33.3547C77.2465 33.0162 77.1788 32.6985 77.0538 32.4016C76.934 32.1047 76.7491 31.8652 76.4991 31.6829C76.2491 31.5006 75.9158 31.4094 75.4991 31.4094C75.1866 31.4094 74.908 31.4771 74.6632 31.6125C74.4236 31.7428 74.2231 31.9329 74.0616 32.1829C73.9002 32.4329 73.7752 32.7349 73.6866 33.0891C73.6033 33.4381 73.5616 33.8313 73.5616 34.2688V34.5813C73.5616 34.9511 73.6111 35.2948 73.7101 35.6125C73.8142 35.925 73.9653 36.1985 74.1632 36.4329C74.3611 36.6672 74.6007 36.8521 74.882 36.9875C75.1632 37.1178 75.4835 37.1829 75.8429 37.1829C76.296 37.1829 76.6997 37.0917 77.0538 36.9094C77.408 36.7271 77.7153 36.4693 77.9757 36.136L78.9679 37.0969C78.7856 37.3625 78.5486 37.6178 78.257 37.8625C77.9653 38.1021 77.6085 38.2974 77.1866 38.4485C76.77 38.5995 76.2856 38.675 75.7335 38.675ZM82.7257 31.675V38.5188H80.8429V30.0657H82.6398L82.7257 31.675ZM85.3116 30.011L85.296 31.761C85.1814 31.7402 85.0564 31.7245 84.921 31.7141C84.7908 31.7037 84.6606 31.6985 84.5304 31.6985C84.2075 31.6985 83.9236 31.7454 83.6788 31.8391C83.434 31.9277 83.2283 32.0579 83.0616 32.2297C82.9002 32.3964 82.7752 32.5995 82.6866 32.8391C82.5981 33.0787 82.546 33.3469 82.5304 33.6438L82.1007 33.675C82.1007 33.1438 82.1528 32.6516 82.257 32.1985C82.3611 31.7454 82.5174 31.3469 82.7257 31.0032C82.9392 30.6594 83.2049 30.3912 83.5226 30.1985C83.8455 30.0058 84.2179 29.9094 84.6398 29.9094C84.7544 29.9094 84.8767 29.9198 85.007 29.9407C85.1424 29.9615 85.2439 29.9849 85.3116 30.011ZM91.2257 36.8235V32.7922C91.2257 32.4902 91.171 32.2297 91.0616 32.011C90.9523 31.7922 90.7856 31.623 90.5616 31.5032C90.3429 31.3834 90.0669 31.3235 89.7335 31.3235C89.4262 31.3235 89.1606 31.3756 88.9366 31.4797C88.7127 31.5839 88.5382 31.7245 88.4132 31.9016C88.2882 32.0787 88.2257 32.2792 88.2257 32.5032H86.3507C86.3507 32.1698 86.4314 31.8469 86.5929 31.5344C86.7544 31.2219 86.9887 30.9433 87.296 30.6985C87.6033 30.4537 87.9705 30.261 88.3976 30.1204C88.8247 29.9797 89.3038 29.9094 89.8351 29.9094C90.4705 29.9094 91.033 30.0162 91.5226 30.2297C92.0174 30.4433 92.4054 30.7662 92.6866 31.1985C92.9731 31.6256 93.1163 32.162 93.1163 32.8079V36.5657C93.1163 36.9511 93.1424 37.2974 93.1945 37.6047C93.2517 37.9068 93.3325 38.1698 93.4366 38.3938V38.5188H91.507C91.4184 38.3157 91.3481 38.0579 91.296 37.7454C91.2491 37.4277 91.2257 37.1204 91.2257 36.8235ZM91.4991 33.3782L91.5148 34.5422H90.1632C89.8142 34.5422 89.507 34.5761 89.2413 34.6438C88.9757 34.7063 88.7544 34.8 88.5773 34.925C88.4002 35.05 88.2674 35.2011 88.1788 35.3782C88.0903 35.5553 88.046 35.7558 88.046 35.9797C88.046 36.2037 88.0981 36.4094 88.2023 36.5969C88.3064 36.7792 88.4575 36.9224 88.6554 37.0266C88.8585 37.1308 89.1033 37.1829 89.3898 37.1829C89.7752 37.1829 90.1111 37.1047 90.3976 36.9485C90.6892 36.787 90.9184 36.5917 91.0851 36.3625C91.2517 36.1282 91.3403 35.9068 91.3507 35.6985L91.9601 36.5344C91.8976 36.748 91.7908 36.9771 91.6398 37.2219C91.4887 37.4667 91.2908 37.7011 91.046 37.925C90.8064 38.1438 90.5174 38.3235 90.1788 38.4641C89.8455 38.6047 89.4601 38.675 89.0226 38.675C88.4705 38.675 87.9783 38.5657 87.546 38.3469C87.1137 38.123 86.7752 37.8235 86.5304 37.4485C86.2856 37.0683 86.1632 36.6386 86.1632 36.1594C86.1632 35.7115 86.2465 35.3157 86.4132 34.9719C86.5851 34.623 86.8351 34.3313 87.1632 34.0969C87.4965 33.8625 87.9028 33.6855 88.382 33.5657C88.8611 33.4407 89.408 33.3782 90.0226 33.3782H91.4991ZM99.2101 30.0657V31.4407H94.4445V30.0657H99.2101ZM95.8195 27.9954H97.7023V36.1829C97.7023 36.4433 97.7387 36.6438 97.8116 36.7844C97.8898 36.9198 97.9965 37.011 98.132 37.0579C98.2674 37.1047 98.4262 37.1282 98.6085 37.1282C98.7387 37.1282 98.8637 37.1204 98.9835 37.1047C99.1033 37.0891 99.1997 37.0735 99.2726 37.0579L99.2804 38.4954C99.1241 38.5422 98.9419 38.5839 98.7335 38.6204C98.5304 38.6568 98.296 38.675 98.0304 38.675C97.5981 38.675 97.2153 38.5995 96.882 38.4485C96.5486 38.2922 96.2882 38.0396 96.1007 37.6907C95.9132 37.3417 95.8195 36.8782 95.8195 36.3V27.9954ZM105.999 36.5266V30.0657H107.89V38.5188H106.109L105.999 36.5266ZM106.265 34.7688L106.898 34.7532C106.898 35.3209 106.835 35.8443 106.71 36.3235C106.585 36.7974 106.392 37.2115 106.132 37.5657C105.872 37.9146 105.538 38.1881 105.132 38.386C104.726 38.5787 104.239 38.675 103.671 38.675C103.26 38.675 102.882 38.6152 102.538 38.4954C102.194 38.3756 101.898 38.1907 101.648 37.9407C101.403 37.6907 101.213 37.3652 101.077 36.9641C100.942 36.5631 100.874 36.0839 100.874 35.5266V30.0657H102.757V35.5422C102.757 35.8495 102.793 36.1073 102.866 36.3157C102.939 36.5188 103.038 36.6829 103.163 36.8079C103.288 36.9329 103.434 37.0214 103.601 37.0735C103.767 37.1256 103.944 37.1516 104.132 37.1516C104.668 37.1516 105.09 37.0474 105.398 36.8391C105.71 36.6256 105.931 36.3391 106.062 35.9797C106.197 35.6204 106.265 35.2167 106.265 34.7688ZM111.96 31.675V38.5188H110.077V30.0657H111.874L111.96 31.675ZM114.546 30.011L114.53 31.761C114.416 31.7402 114.291 31.7245 114.155 31.7141C114.025 31.7037 113.895 31.6985 113.765 31.6985C113.442 31.6985 113.158 31.7454 112.913 31.8391C112.668 31.9277 112.463 32.0579 112.296 32.2297C112.135 32.3964 112.01 32.5995 111.921 32.8391C111.832 33.0787 111.78 33.3469 111.765 33.6438L111.335 33.675C111.335 33.1438 111.387 32.6516 111.491 32.1985C111.595 31.7454 111.752 31.3469 111.96 31.0032C112.174 30.6594 112.439 30.3912 112.757 30.1985C113.08 30.0058 113.452 29.9094 113.874 29.9094C113.989 29.9094 114.111 29.9198 114.241 29.9407C114.377 29.9615 114.478 29.9849 114.546 30.011ZM119.546 38.675C118.921 38.675 118.356 38.5735 117.851 38.3704C117.351 38.162 116.924 37.873 116.569 37.5032C116.22 37.1334 115.952 36.6985 115.765 36.1985C115.577 35.6985 115.484 35.1594 115.484 34.5813V34.2688C115.484 33.6073 115.58 33.0084 115.773 32.4719C115.965 31.9355 116.234 31.4771 116.577 31.0969C116.921 30.7115 117.327 30.4172 117.796 30.2141C118.265 30.011 118.773 29.9094 119.319 29.9094C119.924 29.9094 120.452 30.011 120.905 30.2141C121.359 30.4172 121.734 30.7037 122.03 31.0735C122.332 31.4381 122.556 31.873 122.702 32.3782C122.853 32.8834 122.929 33.4407 122.929 34.05V34.8547H116.398V33.5032H121.069V33.3547C121.059 33.0162 120.991 32.6985 120.866 32.4016C120.747 32.1047 120.562 31.8652 120.312 31.6829C120.062 31.5006 119.728 31.4094 119.312 31.4094C118.999 31.4094 118.72 31.4771 118.476 31.6125C118.236 31.7428 118.036 31.9329 117.874 32.1829C117.713 32.4329 117.588 32.7349 117.499 33.0891C117.416 33.4381 117.374 33.8313 117.374 34.2688V34.5813C117.374 34.9511 117.424 35.2948 117.523 35.6125C117.627 35.925 117.778 36.1985 117.976 36.4329C118.174 36.6672 118.413 36.8521 118.694 36.9875C118.976 37.1178 119.296 37.1829 119.655 37.1829C120.109 37.1829 120.512 37.0917 120.866 36.9094C121.22 36.7271 121.528 36.4693 121.788 36.136L122.78 37.0969C122.598 37.3625 122.361 37.6178 122.069 37.8625C121.778 38.1021 121.421 38.2974 120.999 38.4485C120.582 38.5995 120.098 38.675 119.546 38.675Z" fill="black" fill-opacity="0.87"/>
<path d="M44.3702 86.3525V88.9775H31.0265V86.7217L37.507 79.6533C38.2179 78.8512 38.7784 78.1585 39.1886 77.5752C39.5988 76.9919 39.8859 76.4678 40.0499 76.0029C40.2231 75.529 40.3097 75.0687 40.3097 74.6221C40.3097 73.9932 40.1912 73.4417 39.9542 72.9678C39.7264 72.4847 39.3891 72.1064 38.9425 71.833C38.4959 71.5505 37.9536 71.4092 37.3156 71.4092C36.5773 71.4092 35.9575 71.5687 35.4562 71.8877C34.9549 72.2067 34.5766 72.6488 34.3214 73.2139C34.0662 73.7699 33.9386 74.4079 33.9386 75.1279H30.6437C30.6437 73.9704 30.908 72.9131 31.4366 71.9561C31.9653 70.9899 32.7309 70.2243 33.7335 69.6592C34.7361 69.085 35.9438 68.7979 37.3566 68.7979C38.6873 68.7979 39.8175 69.0212 40.7472 69.4678C41.6769 69.9144 42.3833 70.5479 42.8663 71.3682C43.3585 72.1885 43.6046 73.1592 43.6046 74.2803C43.6046 74.9001 43.5044 75.5153 43.3038 76.126C43.1033 76.7367 42.8162 77.3473 42.4425 77.958C42.0779 78.5596 41.645 79.1657 41.1437 79.7764C40.6424 80.3779 40.0909 80.9886 39.4894 81.6084L35.1827 86.3525H44.3702ZM60.2843 86.3525V88.9775H46.9406V86.7217L53.421 79.6533C54.132 78.8512 54.6925 78.1585 55.1027 77.5752C55.5128 76.9919 55.7999 76.4678 55.964 76.0029C56.1372 75.529 56.2238 75.0687 56.2238 74.6221C56.2238 73.9932 56.1053 73.4417 55.8683 72.9678C55.6404 72.4847 55.3032 72.1064 54.8566 71.833C54.41 71.5505 53.8676 71.4092 53.2296 71.4092C52.4913 71.4092 51.8715 71.5687 51.3702 71.8877C50.8689 72.2067 50.4907 72.6488 50.2355 73.2139C49.9803 73.7699 49.8527 74.4079 49.8527 75.1279H46.5577C46.5577 73.9704 46.8221 72.9131 47.3507 71.9561C47.8794 70.9899 48.645 70.2243 49.6476 69.6592C50.6502 69.085 51.8579 68.7979 53.2706 68.7979C54.6014 68.7979 55.7316 69.0212 56.6613 69.4678C57.5909 69.9144 58.2973 70.5479 58.7804 71.3682C59.2726 72.1885 59.5187 73.1592 59.5187 74.2803C59.5187 74.9001 59.4184 75.5153 59.2179 76.126C59.0174 76.7367 58.7303 77.3473 58.3566 77.958C57.992 78.5596 57.559 79.1657 57.0577 79.7764C56.5564 80.3779 56.005 80.9886 55.4034 81.6084L51.0968 86.3525H60.2843Z" fill="black" fill-opacity="0.87"/>
<path d="M67.2863 72.4482C67.2863 71.7829 67.4503 71.1722 67.7784 70.6162C68.1066 70.0602 68.5441 69.6182 69.0909 69.29C69.6469 68.9528 70.2485 68.7842 70.8956 68.7842C71.5519 68.7842 72.1489 68.9528 72.6866 69.29C73.2244 69.6182 73.6528 70.0602 73.9718 70.6162C74.2999 71.1722 74.464 71.7829 74.464 72.4482C74.464 73.1136 74.2999 73.7243 73.9718 74.2803C73.6528 74.8271 73.2244 75.2601 72.6866 75.5791C72.1489 75.8981 71.5519 76.0576 70.8956 76.0576C70.2485 76.0576 69.6469 75.8981 69.0909 75.5791C68.5441 75.2601 68.1066 74.8271 67.7784 74.2803C67.4503 73.7243 67.2863 73.1136 67.2863 72.4482ZM69.132 72.4482C69.132 72.9404 69.3051 73.3551 69.6515 73.6924C69.9978 74.0205 70.4126 74.1846 70.8956 74.1846C71.3787 74.1846 71.7843 74.0205 72.1124 73.6924C72.4406 73.3643 72.6046 72.9495 72.6046 72.4482C72.6046 71.9378 72.4406 71.514 72.1124 71.1768C71.7843 70.8395 71.3787 70.6709 70.8956 70.6709C70.4126 70.6709 69.9978 70.8395 69.6515 71.1768C69.3051 71.514 69.132 71.9378 69.132 72.4482ZM90.0226 82.4971H93.4406C93.3312 83.8005 92.9666 84.9626 92.3468 85.9834C91.727 86.9951 90.8566 87.7926 89.7355 88.376C88.6144 88.9593 87.2517 89.251 85.6476 89.251C84.4171 89.251 83.3097 89.0322 82.3253 88.5947C81.3409 88.1481 80.4978 87.5192 79.796 86.708C79.0942 85.8877 78.5564 84.8988 78.1827 83.7412C77.8182 82.5837 77.6359 81.2894 77.6359 79.8584V78.2041C77.6359 76.7731 77.8227 75.4788 78.1964 74.3213C78.5792 73.1637 79.1261 72.1748 79.837 71.3545C80.548 70.5251 81.4002 69.8916 82.3937 69.4541C83.3963 69.0166 84.5219 68.7979 85.7706 68.7979C87.3566 68.7979 88.6964 69.0895 89.7902 69.6729C90.8839 70.2562 91.7316 71.0628 92.3331 72.0928C92.9438 73.1227 93.3175 74.3031 93.4542 75.6338H90.0363C89.9451 74.777 89.7446 74.0433 89.4347 73.4326C89.1339 72.8219 88.6873 72.3571 88.0948 72.0381C87.5024 71.71 86.7277 71.5459 85.7706 71.5459C84.9868 71.5459 84.3032 71.6917 83.7198 71.9834C83.1365 72.2751 82.6489 72.7035 82.257 73.2686C81.865 73.8337 81.5688 74.5309 81.3683 75.3604C81.1769 76.1807 81.0812 77.1195 81.0812 78.1768V79.8584C81.0812 80.861 81.1678 81.7725 81.3409 82.5928C81.5232 83.404 81.7967 84.1012 82.1613 84.6846C82.535 85.2679 83.0089 85.7191 83.5831 86.0381C84.1573 86.3571 84.8455 86.5166 85.6476 86.5166C86.6228 86.5166 87.4113 86.3617 88.0128 86.0518C88.6235 85.7419 89.0838 85.2907 89.3937 84.6982C89.7127 84.0967 89.9223 83.363 90.0226 82.4971Z" fill="black" fill-opacity="0.87"/>
<path d="M110.413 90.5716L119.457 84.8671C121.181 83.7792 122.503 82.1569 123.22 80.2478L125.931 73.0257C128.025 67.4494 135.913 67.4494 138.006 73.0257V73.0257C139.855 77.9503 146.505 78.7089 149.416 74.3272L152.73 69.3372C154.747 66.3009 159.021 65.8321 161.648 68.3589V68.3589C164.579 71.1773 169.42 70.216 171.052 66.4918L172.89 62.2957C175.962 55.2808 185.821 55.028 189.249 61.8762L192.419 68.2087C194.813 72.99 200.438 75.1818 205.436 73.2804V73.2804C208.076 72.2756 211.012 72.3869 213.569 73.5888L220.038 76.629" stroke="#00695C" stroke-width="1.75188" stroke-linecap="round"/>
</g>
<defs>
<filter id="filter0_d_4559_125692" x="0.5" y="0" width="249" height="128" filterUnits="userSpaceOnUse" color-interpolation-filters="sRGB">
<feFlood flood-opacity="0" result="BackgroundImageFix"/>
<feColorMatrix in="SourceAlpha" type="matrix" values="0 0 0 0 0 0 0 0 0 0 0 0 0 0 0 0 0 0 127 0" result="hardAlpha"/>
<feOffset dy="4"/>
<feGaussianBlur stdDeviation="4"/>
<feComposite in2="hardAlpha" operator="out"/>
<feColorMatrix type="matrix" values="0 0 0 0 0 0 0 0 0 0 0 0 0 0 0 0 0 0 0.04 0"/>
<feBlend mode="normal" in2="BackgroundImageFix" result="effect1_dropShadow_4559_125692"/>
<feBlend mode="normal" in="SourceGraphic" in2="effect1_dropShadow_4559_125692" result="shape"/>
</filter>
</defs>
</svg>
