<svg width="250" height="128" viewBox="0 0 250 128" fill="none" xmlns="http://www.w3.org/2000/svg">
<g filter="url(#filter0_d_4559_125710)">
<rect x="8.5" y="4" width="233" height="112" rx="3.51008" fill="white" shape-rendering="crispEdges"/>
<g filter="url(#filter1_b_4559_125710)">
<rect x="19.0303" y="14.5303" width="211.939" height="90.9395" rx="3.51008" fill="white" fill-opacity="0.76"/>
</g>
<path d="M35.3965 27.1755V38.5505H33.4512V27.1755H35.3965ZM38.9668 27.1755V28.738H29.9121V27.1755H38.9668ZM43.5059 38.7068C42.8809 38.7068 42.3158 38.6052 41.8105 38.4021C41.3105 38.1938 40.8835 37.9047 40.5293 37.5349C40.1803 37.1651 39.9121 36.7302 39.7246 36.2302C39.5371 35.7302 39.4434 35.1912 39.4434 34.613V34.3005C39.4434 33.6391 39.5397 33.0401 39.7324 32.5037C39.9251 31.9672 40.1934 31.5089 40.5371 31.1287C40.8809 30.7432 41.2871 30.449 41.7559 30.2458C42.2246 30.0427 42.7324 29.9412 43.2793 29.9412C43.8835 29.9412 44.4121 30.0427 44.8652 30.2458C45.3184 30.449 45.6934 30.7354 45.9902 31.1052C46.2923 31.4698 46.5163 31.9047 46.6621 32.4099C46.8132 32.9151 46.8887 33.4724 46.8887 34.0818V34.8865H40.3574V33.5349H45.0293V33.3865C45.0189 33.0479 44.9512 32.7302 44.8262 32.4333C44.7064 32.1365 44.5215 31.8969 44.2715 31.7146C44.0215 31.5323 43.6882 31.4412 43.2715 31.4412C42.959 31.4412 42.6803 31.5089 42.4355 31.6443C42.196 31.7745 41.9954 31.9646 41.834 32.2146C41.6725 32.4646 41.5475 32.7667 41.459 33.1208C41.3757 33.4698 41.334 33.863 41.334 34.3005V34.613C41.334 34.9828 41.3835 35.3266 41.4824 35.6443C41.5866 35.9568 41.7376 36.2302 41.9355 36.4646C42.1335 36.699 42.373 36.8839 42.6543 37.0193C42.9355 37.1495 43.2559 37.2146 43.6152 37.2146C44.0684 37.2146 44.472 37.1235 44.8262 36.9412C45.1803 36.7589 45.4876 36.5011 45.748 36.1677L46.7402 37.1287C46.5579 37.3943 46.321 37.6495 46.0293 37.8943C45.7376 38.1339 45.3809 38.3292 44.959 38.4802C44.5423 38.6313 44.0579 38.7068 43.5059 38.7068ZM50.4902 31.8162V38.5505H48.6074V30.0974H50.3809L50.4902 31.8162ZM50.1855 34.0115L49.5449 34.0037C49.5449 33.4203 49.6178 32.8813 49.7637 32.3865C49.9095 31.8917 50.123 31.462 50.4043 31.0974C50.6855 30.7276 51.0345 30.4438 51.4512 30.2458C51.873 30.0427 52.36 29.9412 52.9121 29.9412C53.2975 29.9412 53.6491 29.9985 53.9668 30.113C54.2897 30.2224 54.5684 30.3969 54.8027 30.6365C55.0423 30.8761 55.2246 31.1833 55.3496 31.5583C55.4798 31.9333 55.5449 32.3865 55.5449 32.9177V38.5505H53.6621V33.0818C53.6621 32.6703 53.5996 32.3474 53.4746 32.113C53.3548 31.8787 53.1803 31.712 52.9512 31.613C52.7272 31.5089 52.459 31.4568 52.1465 31.4568C51.7923 31.4568 51.4902 31.5245 51.2402 31.6599C50.9954 31.7953 50.7949 31.9802 50.6387 32.2146C50.4824 32.449 50.3678 32.7198 50.2949 33.0271C50.222 33.3344 50.1855 33.6625 50.1855 34.0115ZM55.4277 33.5115L54.5449 33.7068C54.5449 33.1964 54.6152 32.7146 54.7559 32.2615C54.9017 31.8031 55.1126 31.4021 55.3887 31.0583C55.6699 30.7094 56.0163 30.436 56.4277 30.238C56.8392 30.0401 57.3105 29.9412 57.8418 29.9412C58.2741 29.9412 58.6595 30.0011 58.998 30.1208C59.3418 30.2354 59.6335 30.4177 59.873 30.6677C60.1126 30.9177 60.2949 31.2432 60.4199 31.6443C60.5449 32.0401 60.6074 32.5193 60.6074 33.0818V38.5505H58.7168V33.074C58.7168 32.6469 58.6543 32.3162 58.5293 32.0818C58.4095 31.8474 58.2376 31.686 58.0137 31.5974C57.7897 31.5037 57.5215 31.4568 57.209 31.4568C56.9173 31.4568 56.6595 31.5115 56.4355 31.6208C56.2168 31.725 56.0319 31.8735 55.8809 32.0662C55.7298 32.2537 55.6152 32.4698 55.5371 32.7146C55.4642 32.9594 55.4277 33.225 55.4277 33.5115ZM64.6855 31.7224V41.8005H62.8027V30.0974H64.5371L64.6855 31.7224ZM70.1934 34.2458V34.4099C70.1934 35.0245 70.1204 35.5948 69.9746 36.1208C69.834 36.6417 69.623 37.0974 69.3418 37.488C69.0658 37.8735 68.7246 38.1729 68.3184 38.3865C67.9121 38.6 67.4434 38.7068 66.9121 38.7068C66.3861 38.7068 65.9251 38.6104 65.5293 38.4177C65.1387 38.2198 64.8079 37.9412 64.5371 37.5818C64.2663 37.2224 64.0475 36.8005 63.8809 36.3162C63.7194 35.8266 63.6048 35.2901 63.5371 34.7068V34.074C63.6048 33.4542 63.7194 32.8917 63.8809 32.3865C64.0475 31.8813 64.2663 31.4464 64.5371 31.0818C64.8079 30.7172 65.1387 30.436 65.5293 30.238C65.9199 30.0401 66.3757 29.9412 66.8965 29.9412C67.4277 29.9412 67.8991 30.0453 68.3105 30.2537C68.722 30.4568 69.0684 30.7485 69.3496 31.1287C69.6309 31.5037 69.8418 31.9568 69.9824 32.488C70.123 33.0141 70.1934 33.6 70.1934 34.2458ZM68.3105 34.4099V34.2458C68.3105 33.8552 68.2741 33.4932 68.2012 33.1599C68.1283 32.8214 68.0137 32.5245 67.8574 32.2693C67.7012 32.0141 67.5007 31.8162 67.2559 31.6755C67.0163 31.5297 66.7272 31.4568 66.3887 31.4568C66.0553 31.4568 65.7689 31.5141 65.5293 31.6287C65.2897 31.738 65.0892 31.8917 64.9277 32.0896C64.7663 32.2875 64.6413 32.5193 64.5527 32.7849C64.4642 33.0453 64.4017 33.3292 64.3652 33.6365V35.1521C64.4277 35.5271 64.5345 35.8708 64.6855 36.1833C64.8366 36.4958 65.0501 36.7458 65.3262 36.9333C65.6074 37.1156 65.9668 37.2068 66.4043 37.2068C66.7428 37.2068 67.0319 37.1339 67.2715 36.988C67.5111 36.8422 67.7064 36.6417 67.8574 36.3865C68.0137 36.1261 68.1283 35.8266 68.2012 35.488C68.2741 35.1495 68.3105 34.7901 68.3105 34.4099ZM75.7715 38.7068C75.1465 38.7068 74.5814 38.6052 74.0762 38.4021C73.5762 38.1938 73.1491 37.9047 72.7949 37.5349C72.446 37.1651 72.1777 36.7302 71.9902 36.2302C71.8027 35.7302 71.709 35.1912 71.709 34.613V34.3005C71.709 33.6391 71.8053 33.0401 71.998 32.5037C72.1908 31.9672 72.459 31.5089 72.8027 31.1287C73.1465 30.7432 73.5527 30.449 74.0215 30.2458C74.4902 30.0427 74.998 29.9412 75.5449 29.9412C76.1491 29.9412 76.6777 30.0427 77.1309 30.2458C77.584 30.449 77.959 30.7354 78.2559 31.1052C78.5579 31.4698 78.7819 31.9047 78.9277 32.4099C79.0788 32.9151 79.1543 33.4724 79.1543 34.0818V34.8865H72.623V33.5349H77.2949V33.3865C77.2845 33.0479 77.2168 32.7302 77.0918 32.4333C76.972 32.1365 76.7871 31.8969 76.5371 31.7146C76.2871 31.5323 75.9538 31.4412 75.5371 31.4412C75.2246 31.4412 74.946 31.5089 74.7012 31.6443C74.4616 31.7745 74.2611 31.9646 74.0996 32.2146C73.9382 32.4646 73.8132 32.7667 73.7246 33.1208C73.6413 33.4698 73.5996 33.863 73.5996 34.3005V34.613C73.5996 34.9828 73.6491 35.3266 73.748 35.6443C73.8522 35.9568 74.0033 36.2302 74.2012 36.4646C74.3991 36.699 74.6387 36.8839 74.9199 37.0193C75.2012 37.1495 75.5215 37.2146 75.8809 37.2146C76.334 37.2146 76.7376 37.1235 77.0918 36.9412C77.446 36.7589 77.7533 36.5011 78.0137 36.1677L79.0059 37.1287C78.8236 37.3943 78.5866 37.6495 78.2949 37.8943C78.0033 38.1339 77.6465 38.3292 77.2246 38.4802C76.8079 38.6313 76.3236 38.7068 75.7715 38.7068ZM82.7637 31.7068V38.5505H80.8809V30.0974H82.6777L82.7637 31.7068ZM85.3496 30.0427L85.334 31.7927C85.2194 31.7719 85.0944 31.7563 84.959 31.7458C84.8288 31.7354 84.6986 31.7302 84.5684 31.7302C84.2454 31.7302 83.9616 31.7771 83.7168 31.8708C83.472 31.9594 83.2663 32.0896 83.0996 32.2615C82.9382 32.4281 82.8132 32.6313 82.7246 32.8708C82.6361 33.1104 82.584 33.3787 82.5684 33.6755L82.1387 33.7068C82.1387 33.1755 82.1908 32.6833 82.2949 32.2302C82.3991 31.7771 82.5553 31.3787 82.7637 31.0349C82.9772 30.6912 83.2428 30.4229 83.5605 30.2302C83.8835 30.0375 84.2559 29.9412 84.6777 29.9412C84.7923 29.9412 84.9147 29.9516 85.0449 29.9724C85.1803 29.9932 85.2819 30.0167 85.3496 30.0427ZM91.2637 36.8552V32.824C91.2637 32.5219 91.209 32.2615 91.0996 32.0427C90.9902 31.824 90.8236 31.6547 90.5996 31.5349C90.3809 31.4151 90.1048 31.3552 89.7715 31.3552C89.4642 31.3552 89.1986 31.4073 88.9746 31.5115C88.7507 31.6156 88.5762 31.7563 88.4512 31.9333C88.3262 32.1104 88.2637 32.311 88.2637 32.5349H86.3887C86.3887 32.2016 86.4694 31.8787 86.6309 31.5662C86.7923 31.2537 87.0267 30.975 87.334 30.7302C87.6413 30.4854 88.0085 30.2927 88.4355 30.1521C88.8626 30.0115 89.3418 29.9412 89.873 29.9412C90.5085 29.9412 91.071 30.0479 91.5605 30.2615C92.0553 30.475 92.4434 30.7979 92.7246 31.2302C93.0111 31.6573 93.1543 32.1938 93.1543 32.8396V36.5974C93.1543 36.9828 93.1803 37.3292 93.2324 37.6365C93.2897 37.9386 93.3704 38.2016 93.4746 38.4255V38.5505H91.5449C91.4564 38.3474 91.3861 38.0896 91.334 37.7771C91.2871 37.4594 91.2637 37.1521 91.2637 36.8552ZM91.5371 33.4099L91.5527 34.574H90.2012C89.8522 34.574 89.5449 34.6078 89.2793 34.6755C89.0137 34.738 88.7923 34.8318 88.6152 34.9568C88.4382 35.0818 88.3053 35.2328 88.2168 35.4099C88.1283 35.587 88.084 35.7875 88.084 36.0115C88.084 36.2354 88.1361 36.4412 88.2402 36.6287C88.3444 36.811 88.4954 36.9542 88.6934 37.0583C88.8965 37.1625 89.1413 37.2146 89.4277 37.2146C89.8132 37.2146 90.1491 37.1365 90.4355 36.9802C90.7272 36.8188 90.9564 36.6235 91.123 36.3943C91.2897 36.1599 91.3783 35.9386 91.3887 35.7302L91.998 36.5662C91.9355 36.7797 91.8288 37.0089 91.6777 37.2537C91.5267 37.4985 91.3288 37.7328 91.084 37.9568C90.8444 38.1755 90.5553 38.3552 90.2168 38.4958C89.8835 38.6365 89.498 38.7068 89.0605 38.7068C88.5085 38.7068 88.0163 38.5974 87.584 38.3787C87.1517 38.1547 86.8132 37.8552 86.5684 37.4802C86.3236 37.1 86.2012 36.6703 86.2012 36.1912C86.2012 35.7432 86.2845 35.3474 86.4512 35.0037C86.623 34.6547 86.873 34.363 87.2012 34.1287C87.5345 33.8943 87.9408 33.7172 88.4199 33.5974C88.8991 33.4724 89.446 33.4099 90.0605 33.4099H91.5371ZM99.248 30.0974V31.4724H94.4824V30.0974H99.248ZM95.8574 28.0271H97.7402V36.2146C97.7402 36.475 97.7767 36.6755 97.8496 36.8162C97.9277 36.9516 98.0345 37.0427 98.1699 37.0896C98.3053 37.1365 98.4642 37.1599 98.6465 37.1599C98.7767 37.1599 98.9017 37.1521 99.0215 37.1365C99.1413 37.1208 99.2376 37.1052 99.3105 37.0896L99.3184 38.5271C99.1621 38.574 98.9798 38.6156 98.7715 38.6521C98.5684 38.6886 98.334 38.7068 98.0684 38.7068C97.6361 38.7068 97.2533 38.6313 96.9199 38.4802C96.5866 38.324 96.3262 38.0714 96.1387 37.7224C95.9512 37.3735 95.8574 36.9099 95.8574 36.3318V28.0271ZM106.037 36.5583V30.0974H107.928V38.5505H106.146L106.037 36.5583ZM106.303 34.8005L106.936 34.7849C106.936 35.3526 106.873 35.8761 106.748 36.3552C106.623 36.8292 106.43 37.2432 106.17 37.5974C105.91 37.9464 105.576 38.2198 105.17 38.4177C104.764 38.6104 104.277 38.7068 103.709 38.7068C103.298 38.7068 102.92 38.6469 102.576 38.5271C102.232 38.4073 101.936 38.2224 101.686 37.9724C101.441 37.7224 101.251 37.3969 101.115 36.9958C100.98 36.5948 100.912 36.1156 100.912 35.5583V30.0974H102.795V35.574C102.795 35.8813 102.831 36.1391 102.904 36.3474C102.977 36.5505 103.076 36.7146 103.201 36.8396C103.326 36.9646 103.472 37.0531 103.639 37.1052C103.805 37.1573 103.982 37.1833 104.17 37.1833C104.706 37.1833 105.128 37.0792 105.436 36.8708C105.748 36.6573 105.969 36.3708 106.1 36.0115C106.235 35.6521 106.303 35.2485 106.303 34.8005ZM111.998 31.7068V38.5505H110.115V30.0974H111.912L111.998 31.7068ZM114.584 30.0427L114.568 31.7927C114.454 31.7719 114.329 31.7563 114.193 31.7458C114.063 31.7354 113.933 31.7302 113.803 31.7302C113.48 31.7302 113.196 31.7771 112.951 31.8708C112.706 31.9594 112.501 32.0896 112.334 32.2615C112.173 32.4281 112.048 32.6313 111.959 32.8708C111.87 33.1104 111.818 33.3787 111.803 33.6755L111.373 33.7068C111.373 33.1755 111.425 32.6833 111.529 32.2302C111.633 31.7771 111.79 31.3787 111.998 31.0349C112.212 30.6912 112.477 30.4229 112.795 30.2302C113.118 30.0375 113.49 29.9412 113.912 29.9412C114.027 29.9412 114.149 29.9516 114.279 29.9724C114.415 29.9932 114.516 30.0167 114.584 30.0427ZM119.584 38.7068C118.959 38.7068 118.394 38.6052 117.889 38.4021C117.389 38.1938 116.962 37.9047 116.607 37.5349C116.258 37.1651 115.99 36.7302 115.803 36.2302C115.615 35.7302 115.521 35.1912 115.521 34.613V34.3005C115.521 33.6391 115.618 33.0401 115.811 32.5037C116.003 31.9672 116.271 31.5089 116.615 31.1287C116.959 30.7432 117.365 30.449 117.834 30.2458C118.303 30.0427 118.811 29.9412 119.357 29.9412C119.962 29.9412 120.49 30.0427 120.943 30.2458C121.396 30.449 121.771 30.7354 122.068 31.1052C122.37 31.4698 122.594 31.9047 122.74 32.4099C122.891 32.9151 122.967 33.4724 122.967 34.0818V34.8865H116.436V33.5349H121.107V33.3865C121.097 33.0479 121.029 32.7302 120.904 32.4333C120.785 32.1365 120.6 31.8969 120.35 31.7146C120.1 31.5323 119.766 31.4412 119.35 31.4412C119.037 31.4412 118.758 31.5089 118.514 31.6443C118.274 31.7745 118.074 31.9646 117.912 32.2146C117.751 32.4646 117.626 32.7667 117.537 33.1208C117.454 33.4698 117.412 33.863 117.412 34.3005V34.613C117.412 34.9828 117.462 35.3266 117.561 35.6443C117.665 35.9568 117.816 36.2302 118.014 36.4646C118.212 36.699 118.451 36.8839 118.732 37.0193C119.014 37.1495 119.334 37.2146 119.693 37.2146C120.146 37.2146 120.55 37.1235 120.904 36.9412C121.258 36.7589 121.566 36.5011 121.826 36.1677L122.818 37.1287C122.636 37.3943 122.399 37.6495 122.107 37.8943C121.816 38.1339 121.459 38.3292 121.037 38.4802C120.62 38.6313 120.136 38.7068 119.584 38.7068Z" fill="black" fill-opacity="0.87"/>
<path d="M30.438 90.6915L39.4984 84.9758C41.2264 83.8857 42.5504 82.2604 43.2685 80.3477L45.9853 73.1112C48.0829 67.5242 55.9857 67.5242 58.0833 73.1112V73.1112C59.9357 78.0453 66.5983 78.8053 69.5144 74.4151L72.8354 69.4154C74.8561 66.3732 79.1383 65.9035 81.7705 68.4352V68.4352C84.7064 71.2591 89.5572 70.2959 91.1915 66.5646L93.0331 62.3602C96.1116 55.3317 105.989 55.0784 109.424 61.9399L112.6 68.2851C114.998 73.0755 120.634 75.2715 125.641 73.3664V73.3664C128.287 72.3596 131.228 72.4712 133.79 73.6754L140.271 76.7216" stroke="#00695C" stroke-width="1.75504" stroke-linecap="round"/>
<path d="M169.287 86.3145V88.9395H155.943V86.6836L162.424 79.6152C163.135 78.8132 163.695 78.1204 164.105 77.5371C164.516 76.9538 164.803 76.4297 164.967 75.9648C165.14 75.4909 165.227 75.0306 165.227 74.584C165.227 73.9551 165.108 73.4036 164.871 72.9297C164.643 72.4466 164.306 72.0684 163.859 71.7949C163.413 71.5124 162.87 71.3711 162.232 71.3711C161.494 71.3711 160.874 71.5306 160.373 71.8496C159.872 72.1686 159.493 72.6107 159.238 73.1758C158.983 73.7318 158.855 74.3698 158.855 75.0898H155.561C155.561 73.9323 155.825 72.875 156.354 71.918C156.882 70.9518 157.648 70.1862 158.65 69.6211C159.653 69.0469 160.861 68.7598 162.273 68.7598C163.604 68.7598 164.734 68.9831 165.664 69.4297C166.594 69.8763 167.3 70.5098 167.783 71.3301C168.275 72.1504 168.521 73.1211 168.521 74.2422C168.521 74.862 168.421 75.4772 168.221 76.0879C168.02 76.6986 167.733 77.3092 167.359 77.9199C166.995 78.5215 166.562 79.1276 166.061 79.7383C165.559 80.3398 165.008 80.9505 164.406 81.5703L160.1 86.3145H169.287ZM185.201 86.3145V88.9395H171.857V86.6836L178.338 79.6152C179.049 78.8132 179.609 78.1204 180.02 77.5371C180.43 76.9538 180.717 76.4297 180.881 75.9648C181.054 75.4909 181.141 75.0306 181.141 74.584C181.141 73.9551 181.022 73.4036 180.785 72.9297C180.557 72.4466 180.22 72.0684 179.773 71.7949C179.327 71.5124 178.785 71.3711 178.146 71.3711C177.408 71.3711 176.788 71.5306 176.287 71.8496C175.786 72.1686 175.408 72.6107 175.152 73.1758C174.897 73.7318 174.77 74.3698 174.77 75.0898H171.475C171.475 73.9323 171.739 72.875 172.268 71.918C172.796 70.9518 173.562 70.1862 174.564 69.6211C175.567 69.0469 176.775 68.7598 178.188 68.7598C179.518 68.7598 180.648 68.9831 181.578 69.4297C182.508 69.8763 183.214 70.5098 183.697 71.3301C184.189 72.1504 184.436 73.1211 184.436 74.2422C184.436 74.862 184.335 75.4772 184.135 76.0879C183.934 76.6986 183.647 77.3092 183.273 77.9199C182.909 78.5215 182.476 79.1276 181.975 79.7383C181.473 80.3398 180.922 80.9505 180.32 81.5703L176.014 86.3145H185.201Z" fill="black" fill-opacity="0.87"/>
<path d="M192.203 72.4102C192.203 71.7448 192.367 71.1341 192.695 70.5781C193.023 70.0221 193.461 69.5801 194.008 69.252C194.564 68.9147 195.165 68.7461 195.812 68.7461C196.469 68.7461 197.066 68.9147 197.604 69.252C198.141 69.5801 198.57 70.0221 198.889 70.5781C199.217 71.1341 199.381 71.7448 199.381 72.4102C199.381 73.0755 199.217 73.6862 198.889 74.2422C198.57 74.7891 198.141 75.222 197.604 75.541C197.066 75.86 196.469 76.0195 195.812 76.0195C195.165 76.0195 194.564 75.86 194.008 75.541C193.461 75.222 193.023 74.7891 192.695 74.2422C192.367 73.6862 192.203 73.0755 192.203 72.4102ZM194.049 72.4102C194.049 72.9023 194.222 73.3171 194.568 73.6543C194.915 73.9824 195.329 74.1465 195.812 74.1465C196.296 74.1465 196.701 73.9824 197.029 73.6543C197.357 73.3262 197.521 72.9115 197.521 72.4102C197.521 71.8997 197.357 71.4759 197.029 71.1387C196.701 70.8014 196.296 70.6328 195.812 70.6328C195.329 70.6328 194.915 70.8014 194.568 71.1387C194.222 71.4759 194.049 71.8997 194.049 72.4102ZM214.939 82.459H218.357C218.248 83.7624 217.883 84.9245 217.264 85.9453C216.644 86.957 215.773 87.7546 214.652 88.3379C213.531 88.9212 212.169 89.2129 210.564 89.2129C209.334 89.2129 208.227 88.9941 207.242 88.5566C206.258 88.11 205.415 87.4811 204.713 86.6699C204.011 85.8496 203.473 84.8607 203.1 83.7031C202.735 82.5456 202.553 81.2513 202.553 79.8203V78.166C202.553 76.735 202.74 75.4408 203.113 74.2832C203.496 73.1257 204.043 72.1367 204.754 71.3164C205.465 70.487 206.317 69.8535 207.311 69.416C208.313 68.9785 209.439 68.7598 210.688 68.7598C212.273 68.7598 213.613 69.0514 214.707 69.6348C215.801 70.2181 216.648 71.0247 217.25 72.0547C217.861 73.0846 218.234 74.265 218.371 75.5957H214.953C214.862 74.7389 214.661 74.0052 214.352 73.3945C214.051 72.7839 213.604 72.319 213.012 72C212.419 71.6719 211.645 71.5078 210.688 71.5078C209.904 71.5078 209.22 71.6536 208.637 71.9453C208.053 72.237 207.566 72.6654 207.174 73.2305C206.782 73.7956 206.486 74.4928 206.285 75.3223C206.094 76.1426 205.998 77.0814 205.998 78.1387V79.8203C205.998 80.8229 206.085 81.7344 206.258 82.5547C206.44 83.3659 206.714 84.0632 207.078 84.6465C207.452 85.2298 207.926 85.681 208.5 86C209.074 86.319 209.762 86.4785 210.564 86.4785C211.54 86.4785 212.328 86.3236 212.93 86.0137C213.54 85.7038 214.001 85.2526 214.311 84.6602C214.63 84.0586 214.839 83.3249 214.939 82.459Z" fill="black" fill-opacity="0.87"/>
</g>
<defs>
<filter id="filter0_d_4559_125710" x="0.5" y="0" width="249" height="128" filterUnits="userSpaceOnUse" color-interpolation-filters="sRGB">
<feFlood flood-opacity="0" result="BackgroundImageFix"/>
<feColorMatrix in="SourceAlpha" type="matrix" values="0 0 0 0 0 0 0 0 0 0 0 0 0 0 0 0 0 0 127 0" result="hardAlpha"/>
<feOffset dy="4"/>
<feGaussianBlur stdDeviation="4"/>
<feComposite in2="hardAlpha" operator="out"/>
<feColorMatrix type="matrix" values="0 0 0 0 0 0 0 0 0 0 0 0 0 0 0 0 0 0 0.04 0"/>
<feBlend mode="normal" in2="BackgroundImageFix" result="effect1_dropShadow_4559_125710"/>
<feBlend mode="normal" in="SourceGraphic" in2="effect1_dropShadow_4559_125710" result="shape"/>
</filter>
<filter id="filter1_b_4559_125710" x="13.0303" y="8.53027" width="223.939" height="102.939" filterUnits="userSpaceOnUse" color-interpolation-filters="sRGB">
<feFlood flood-opacity="0" result="BackgroundImageFix"/>
<feGaussianBlur in="BackgroundImageFix" stdDeviation="3"/>
<feComposite in2="SourceAlpha" operator="in" result="effect1_backgroundBlur_4559_125710"/>
<feBlend mode="normal" in="SourceGraphic" in2="effect1_backgroundBlur_4559_125710" result="shape"/>
</filter>
</defs>
</svg>
